<?xml version="1.0" encoding="UTF-8" standalone="no"?>
<svg
   version="1.1"
   viewBox="0.00 0.00 1276.00 414.00"
   id="svg79"
   sodipodi:docname="pixlit-header.svg"
   inkscape:version="1.3.2 (091e20e, 2023-11-25)"
   inkscape:export-filename="Logov5alt1.png"
   inkscape:export-xdpi="96"
   inkscape:export-ydpi="96"
   xmlns:inkscape="http://www.inkscape.org/namespaces/inkscape"
   xmlns:sodipodi="http://sodipodi.sourceforge.net/DTD/sodipodi-0.dtd"
   xmlns="http://www.w3.org/2000/svg"
   xmlns:svg="http://www.w3.org/2000/svg">
  <defs
     id="defs79" />
  <sodipodi:namedview
     id="namedview79"
     pagecolor="#ffffff"
     bordercolor="#000000"
     borderopacity="0.25"
     inkscape:showpageshadow="2"
     inkscape:pageopacity="0.0"
     inkscape:pagecheckerboard="true"
     inkscape:deskcolor="#d1d1d1"
     inkscape:zoom="0.70857164"
     inkscape:cx="685.8869"
     inkscape:cy="-48.689502"
     inkscape:window-width="1728"
     inkscape:window-height="1004"
     inkscape:window-x="651"
     inkscape:window-y="1118"
     inkscape:window-maximized="1"
     inkscape:current-layer="svg79"
     showgrid="false"
     showguides="true">
    <inkscape:grid
       id="grid1"
       units="px"
       originx="0"
       originy="0"
       spacingx="1"
       spacingy="1"
       empcolor="#0099e5"
       empopacity="0.30196078"
       color="#0099e5"
       opacity="0.14901961"
       empspacing="5"
       dotted="false"
       gridanglex="30"
       gridanglez="30"
       visible="false" />
  </sodipodi:namedview>
  <g
     stroke-width="2.00"
     fill="none"
     stroke-linecap="butt"
     id="g44"
     style="stroke:none">
    <path
       stroke="#b5cd9f"
       vector-effect="non-scaling-stroke"
       d="   M 629.67 76.93   A 13.15 13.15 0.0 0 0 616.52 63.78   A 13.15 13.15 0.0 0 0 603.37 76.93   A 13.15 13.15 0.0 0 0 616.52 90.08   A 13.15 13.15 0.0 0 0 629.67 76.93"
       id="path1"
       style="stroke:none" />
    <path
       stroke="#b5cd9f"
       vector-effect="non-scaling-stroke"
       d="   M 1057.56 76.92   A 13.15 13.15 0.0 0 0 1044.41 63.77   A 13.15 13.15 0.0 0 0 1031.26 76.92   A 13.15 13.15 0.0 0 0 1044.41 90.07   A 13.15 13.15 0.0 0 0 1057.56 76.92"
       id="path2"
       style="stroke:none" />
    <path
       stroke="#c7e09e"
       vector-effect="non-scaling-stroke"
       d="   M 456.18 93.83   Q 475.16 93.77 492.33 93.80   Q 505.08 93.82 508.50 106.36   C 510.33 113.05 510.19 119.94 506.96 125.63   C 504.83 129.37 503.23 132.83 504.13 137.25   C 505.63 144.72 512.91 149.43 520.24 147.51   C 525.68 146.08 528.06 142.79 530.44 137.89   Q 540.20 117.80 532.69 95.97   C 526.49 77.93 511.57 67.12 492.33 67.19   Q 468.85 67.27 446.72 67.08   C 439.67 67.02 433.80 68.15 430.68 74.72   Q 429.30 77.62 429.32 83.24   Q 429.43 135.82 429.38 192.19   C 429.37 211.05 455.82 210.29 455.83 192.87   Q 455.86 142.05 455.84 94.17   A 0.34 0.34 0.0 0 1 456.18 93.83"
       id="path3"
       style="stroke:none" />
    <path
       stroke="#b5cd9f"
       vector-effect="non-scaling-stroke"
       d="   M 804.07 80.50   A 13.11 13.11 0.0 0 0 790.96 67.39   A 13.11 13.11 0.0 0 0 777.85 80.50   A 13.11 13.11 0.0 0 0 790.96 93.61   A 13.11 13.11 0.0 0 0 804.07 80.50"
       id="path4"
       style="stroke:none" />
    <path
       stroke="#c7e09e"
       vector-effect="non-scaling-stroke"
       d="   M 905.42 178.94   Q 905.40 131.98 905.43 81.33   Q 905.43 78.67 904.67 76.26   C 902.07 67.99 891.79 64.72 884.73 69.55   Q 878.99 73.47 879.00 80.94   Q 879.08 137.96 879.01 192.09   Q 878.99 201.31 886.41 204.94   Q 889.75 206.58 899.28 206.37   Q 909.21 206.15 919.15 206.29   Q 925.97 206.39 930.04 201.66   C 935.79 194.98 933.28 183.90 924.91 180.70   Q 921.82 179.52 917.12 179.66   Q 911.85 179.80 906.15 179.68   Q 905.42 179.67 905.42 178.94"
       id="path5"
       style="stroke:none" />
    <path
       stroke="#c7e09e"
       vector-effect="non-scaling-stroke"
       d="   M 1162.63 94.40   Q 1162.73 141.04 1162.67 187.56   C 1162.66 194.14 1162.47 198.40 1166.58 202.50   C 1170.51 206.43 1176.95 207.39 1181.82 204.77   Q 1188.99 200.91 1188.97 192.12   Q 1188.86 140.83 1188.99 84.28   C 1189.01 77.33 1188.23 71.75 1181.67 68.45   Q 1178.87 67.04 1170.44 67.13   Q 1152.37 67.32 1134.96 67.17   C 1125.82 67.09 1119.26 74.35 1121.21 83.40   Q 1122.60 89.87 1128.54 92.60   Q 1131.38 93.91 1137.84 93.87   Q 1149.63 93.79 1162.00 93.77   Q 1162.63 93.77 1162.63 94.40"
       id="path6"
       style="stroke:none" />
    <path
       stroke="#b5cd9f"
       vector-effect="non-scaling-stroke"
       d="   M 1230.74 80.49   A 13.15 13.15 0.0 0 0 1217.59 67.34   A 13.15 13.15 0.0 0 0 1204.44 80.49   A 13.15 13.15 0.0 0 0 1217.59 93.64   A 13.15 13.15 0.0 0 0 1230.74 80.49"
       id="path7"
       style="stroke:none" />
    <path
       stroke="#c7e09e"
       vector-effect="non-scaling-stroke"
       d="   M 754.67 111.59   Q 742.70 93.06 730.65 74.37   C 727.29 69.14 721.62 66.29 715.53 68.03   C 707.06 70.44 703.01 80.01 707.84 87.57   Q 723.35 111.80 739.09 136.33   A 0.76 0.74 45.6 0 1 739.09 137.14   Q 723.96 160.82 708.79 184.38   C 705.98 188.73 704.79 193.59 707.08 198.44   C 710.64 206.00 719.22 208.37 726.27 203.97   Q 728.64 202.49 731.57 197.86   Q 742.87 180.03 754.87 161.67   A 0.26 0.26 0.0 0 1 755.31 161.67   Q 767.65 180.99 779.78 199.91   C 787.72 212.30 806.23 205.03 803.78 190.42   Q 803.33 187.69 799.58 181.90   Q 784.19 158.18 770.81 137.03   Q 770.58 136.68 770.81 136.32   Q 775.53 129.12 780.33 121.53   C 785.14 113.91 782.53 104.17 773.54 101.40   Q 767.76 99.63 762.71 102.74   C 759.39 104.78 757.52 108.41 755.43 111.59   Q 755.05 112.18 754.67 111.59"
       id="path8"
       style="stroke:none" />
    <path
       stroke="#c7e09e"
       vector-effect="non-scaling-stroke"
       d="   M 248.69 198.34   Q 283.49 198.30 317.87 198.43   C 325.49 198.46 331.30 197.46 336.99 192.46   C 344.03 186.25 345.24 178.91 345.16 169.39   Q 344.87 136.23 345.15 104.38   Q 345.25 92.98 344.37 88.51   C 342.15 77.24 331.84 70.05 320.43 70.04   Q 275.73 70.03 235.51 70.04   C 224.61 70.04 216.37 78.03 216.36 89.07   Q 216.32 170.41 216.41 257.98   Q 216.41 259.91 216.58 261.87   Q 216.70 263.20 217.27 261.99   Q 231.77 231.29 245.13 203.52   C 245.95 201.82 246.47 199.93 247.86 198.67   Q 248.22 198.34 248.69 198.34"
       id="path9"
       style="stroke:none" />
    <path
       stroke="#c7e09e"
       vector-effect="non-scaling-stroke"
       d="   M 629.8173 116.2131   A 12.85 12.85 0.0 0 0 616.9897 103.3407   L 616.2697 103.3394   A 12.85 12.85 0.0 0 0 603.3973 116.1670   L 603.2627 193.2869   A 12.85 12.85 0.0 0 0 616.0903 206.1593   L 616.8103 206.1606   A 12.85 12.85 0.0 0 0 629.6827 193.3330   L 629.8173 116.2131"
       id="path10"
       style="stroke:none" />
    <path
       stroke="#c7e09e"
       vector-effect="non-scaling-stroke"
       d="   M 1057.6973 116.2231   A 12.86 12.86 0.0 0 0 1044.8597 103.3407   L 1044.1597 103.3395   A 12.86 12.86 0.0 0 0 1031.2773 116.1770   L 1031.1427 193.2769   A 12.86 12.86 0.0 0 0 1043.9803 206.1593   L 1044.6803 206.1605   A 12.86 12.86 0.0 0 0 1057.5627 193.3230   L 1057.6973 116.2231"
       id="path11"
       style="stroke:none" />
    <path
       stroke="#c7e09e"
       vector-effect="non-scaling-stroke"
       d="   M 208.61 141.85   A 12.82 12.82 0.0 0 0 195.79 129.03   L 151.79 129.03   A 12.82 12.82 0.0 0 0 138.97 141.85   L 138.97 185.51   A 12.82 12.82 0.0 0 0 151.79 198.33   L 195.79 198.33   A 12.82 12.82 0.0 0 0 208.61 185.51   L 208.61 141.85"
       id="path12"
       style="stroke:none" />
    <path
       stroke="#b5cd9f"
       vector-effect="non-scaling-stroke"
       d="   M 495.11 149.37   A 13.10 13.10 0.0 0 0 482.01 136.27   A 13.10 13.10 0.0 0 0 468.91 149.37   A 13.10 13.10 0.0 0 0 482.01 162.47   A 13.10 13.10 0.0 0 0 495.11 149.37"
       id="path13"
       style="stroke:none" />
    <path
       stroke="#b5cd9f"
       vector-effect="non-scaling-stroke"
       d="   M 972.71 193.04   A 13.13 13.13 0.0 0 0 959.58 179.91   A 13.13 13.13 0.0 0 0 946.45 193.04   A 13.13 13.13 0.0 0 0 959.58 206.17   A 13.13 13.13 0.0 0 0 972.71 193.04"
       id="path14"
       style="stroke:none" />
    <path
       stroke="#c7e09e"
       vector-effect="non-scaling-stroke"
       d="   M 208.58 218.36   A 12.78 12.78 0.0 0 0 195.80 205.58   L 151.74 205.58   A 12.78 12.78 0.0 0 0 138.96 218.36   L 138.96 262.12   A 12.78 12.78 0.0 0 0 151.74 274.90   L 195.80 274.90   A 12.78 12.78 0.0 0 0 208.58 262.12   L 208.58 218.36"
       id="path15"
       style="stroke:none" />
    <path
       stroke="#c7e09e"
       vector-effect="non-scaling-stroke"
       d="   M 257.88 205.43   Q 255.56 205.36 253.45 205.78   Q 252.97 205.88 252.76 206.32   L 221.97 270.98   A 1.46 1.46 0.0 0 0 222.47 272.81   Q 225.40 274.80 228.67 274.81   Q 249.02 274.84 269.97 274.95   C 277.10 274.99 282.65 274.13 285.77 267.06   Q 287.07 264.12 287.03 258.94   Q 286.86 239.03 287.07 221.11   C 287.17 212.96 284.17 205.21 274.64 205.47   Q 266.25 205.70 257.88 205.43"
       id="path16"
       style="stroke:none" />
    <path
       stroke="#c7e09e"
       vector-effect="non-scaling-stroke"
       d="   M 579.8739 250.4090   A 11.35 11.35 0.0 0 0 568.5041 239.0788   L 567.1241 239.0812   A 11.35 11.35 0.0 0 0 555.7940 250.4510   L 555.8261 268.8510   A 11.35 11.35 0.0 0 0 567.1959 280.1812   L 568.5759 280.1788   A 11.35 11.35 0.0 0 0 579.9060 268.8090   L 579.8739 250.4090"
       id="path17"
       style="stroke:none" />
    <path
       stroke="#c7e09e"
       vector-effect="non-scaling-stroke"
       d="   M 670.86 246.77   C 672.59 245.97 675.11 246.65 675.37 248.86   Q 675.48 249.75 675.57 250.63   Q 675.63 251.28 676.28 251.28   L 682.78 251.29   A 0.58 0.58 0.0 0 0 683.36 250.68   Q 682.74 238.10 670.96 239.05   C 666.54 239.41 662.78 242.62 662.13 247.12   C 660.79 256.34 667.82 260.00 674.05 264.74   C 676.68 266.73 677.78 271.74 673.53 272.75   C 670.36 273.49 668.72 270.34 668.72 267.67   A 0.23 0.23 0.0 0 0 668.49 267.44   L 661.28 267.46   Q 661.07 267.46 661.06 267.68   C 660.83 274.89 665.30 280.64 673.10 280.33   Q 682.13 279.98 683.66 271.32   C 685.12 263.06 679.47 258.85 673.31 254.86   Q 670.69 253.16 669.48 250.59   A 2.87 2.86 64.9 0 1 670.86 246.77"
       id="path18"
       style="stroke:none" />
    <path
       stroke="#c7e09e"
       vector-effect="non-scaling-stroke"
       d="   M 738.8878 250.3880   A 11.35 11.35 0.0 0 0 727.4983 239.0777   L 726.0983 239.0826   A 11.35 11.35 0.0 0 0 714.7880 250.4721   L 714.8522 268.8720   A 11.35 11.35 0.0 0 0 726.2417 280.1823   L 727.6417 280.1774   A 11.35 11.35 0.0 0 0 738.9520 268.7879   L 738.8878 250.3880"
       id="path19"
       style="stroke:none" />
    <path
       stroke="#c7e09e"
       vector-effect="non-scaling-stroke"
       d="   M 883.7438 250.3491   A 11.30 11.30 0.0 0 0 872.4241 239.0688   L 871.0641 239.0712   A 11.30 11.30 0.0 0 0 859.7839 250.3909   L 859.8162 268.9109   A 11.30 11.30 0.0 0 0 871.1359 280.1912   L 872.4959 280.1888   A 11.30 11.30 0.0 0 0 883.7761 268.8691   L 883.7438 250.3491"
       id="path20"
       style="stroke:none" />
    <path
       stroke="#c7e09e"
       vector-effect="non-scaling-stroke"
       d="   M 977.41 272.71   Q 973.56 272.51 973.56 268.66   L 973.54 250.90   Q 973.54 247.01 977.40 246.51   Q 977.89 246.44 978.40 246.53   Q 981.47 247.07 981.88 250.16   Q 982.16 252.26 981.95 254.67   Q 981.83 256.03 983.19 256.02   L 988.59 256.01   Q 989.80 256.00 989.84 254.79   Q 989.97 250.47 989.16 247.35   C 987.07 239.20 977.05 236.61 970.54 241.25   Q 965.77 244.64 965.77 251.13   Q 965.77 257.11 965.65 263.09   C 965.48 271.72 966.89 278.61 975.76 280.15   C 981.07 281.07 986.91 278.24 988.82 273.07   Q 990.18 269.37 989.76 264.09   Q 989.69 263.23 988.83 263.23   L 982.94 263.22   Q 981.91 263.21 981.98 264.24   Q 982.17 267.05 981.83 269.73   Q 981.42 272.92 978.21 272.75   L 977.41 272.71"
       id="path21"
       style="stroke:none" />
    <path
       stroke="#c7e09e"
       vector-effect="non-scaling-stroke"
       d="   M 1119.31 246.84   C 1123.12 245.41 1123.90 247.65 1124.37 250.60   Q 1124.48 251.28 1125.16 251.28   L 1131.31 251.29   Q 1131.94 251.29 1131.97 250.66   C 1132.26 245.06 1129.26 239.78 1123.31 239.07   C 1116.55 238.26 1110.88 241.71 1110.73 249.04   C 1110.57 256.74 1116.94 260.46 1122.50 264.45   C 1124.69 266.02 1126.42 269.71 1124.03 271.88   C 1121.38 274.27 1117.69 272.04 1117.66 268.76   Q 1117.65 267.44 1116.34 267.45   L 1110.67 267.45   Q 1109.56 267.46 1109.68 268.56   C 1110.55 276.01 1114.38 280.79 1122.39 280.33   C 1127.65 280.02 1131.28 277.05 1132.37 271.82   C 1134.39 262.11 1126.81 258.48 1120.44 253.50   Q 1117.04 250.86 1118.56 247.54   A 1.37 1.35 1.5 0 1 1119.31 246.84"
       id="path22"
       style="stroke:none" />
    <path
       stroke="#c7e09e"
       vector-effect="non-scaling-stroke"
       d="   M 539.66 256.28   L 535.29 239.95   Q 535.22 239.71 534.98 239.71   L 527.72 239.71   A 0.17 0.16 -7.9 0 0 527.56 239.92   Q 531.26 251.97 535.10 263.73   C 536.71 268.67 536.02 274.02 536.09 279.08   Q 536.10 279.53 536.55 279.53   L 543.28 279.54   Q 543.83 279.54 543.84 278.98   C 543.93 274.06 543.22 268.83 544.73 264.18   Q 548.64 252.08 552.38 239.91   A 0.15 0.15 0.0 0 0 552.24 239.72   L 544.99 239.71   A 0.35 0.34 -82.2 0 0 544.66 239.97   L 540.28 256.28   Q 539.97 257.43 539.66 256.28"
       id="path23"
       style="stroke:none" />
    <path
       stroke="#c7e09e"
       vector-effect="non-scaling-stroke"
       d="   M 598.52 272.57   Q 594.38 272.57 594.34 268.44   Q 594.20 254.67 594.29 240.22   Q 594.29 239.71 593.78 239.71   L 586.95 239.69   Q 586.51 239.69 586.51 240.13   Q 586.37 253.77 586.51 267.30   Q 586.57 273.92 590.43 277.29   C 597.59 283.53 609.90 279.70 610.51 269.53   C 611.07 260.16 610.91 250.33 610.79 240.24   Q 610.79 239.73 610.28 239.73   L 603.50 239.72   Q 603.01 239.72 603.01 240.22   Q 603.08 253.35 602.88 268.44   Q 602.82 272.58 598.69 272.57   Q 598.67 272.57 598.52 272.57"
       id="path24"
       style="stroke:none" />
    <path
       stroke="#c7e09e"
       vector-effect="non-scaling-stroke"
       d="   M 626.27 266.79   L 627.93 266.81   Q 628.53 266.82 628.78 267.37   L 634.03 279.26   Q 634.16 279.56 634.49 279.56   L 641.60 279.53   A 0.19 0.19 0.0 0 0 641.77 279.27   L 635.73 265.49   Q 635.51 264.98 635.93 264.62   Q 641.36 260.03 640.70 252.12   C 639.60 238.78 628.99 239.35 618.21 239.78   Q 617.72 239.80 617.72 240.29   L 617.71 279.26   A 0.28 0.28 0.0 0 0 617.99 279.54   L 625.24 279.55   Q 625.54 279.55 625.54 279.26   L 625.56 267.49   Q 625.56 266.78 626.27 266.79"
       id="path25"
       style="stroke:none" />
    <path
       stroke="#c7e09e"
       vector-effect="non-scaling-stroke"
       d="   M 702.93 247.66   A 0.38 0.38 0.0 0 1 703.31 247.28   L 709.82 247.30   A 0.38 0.38 0.0 0 0 710.20 246.92   L 710.20 240.10   A 0.38 0.38 0.0 0 0 709.82 239.72   L 688.30 239.71   A 0.38 0.38 0.0 0 0 687.92 240.09   L 687.91 246.91   A 0.38 0.38 0.0 0 0 688.29 247.29   L 694.81 247.28   A 0.38 0.38 0.0 0 1 695.19 247.66   L 695.18 279.16   A 0.38 0.38 0.0 0 0 695.56 279.54   L 702.54 279.55   A 0.38 0.38 0.0 0 0 702.92 279.17   L 702.93 247.66"
       id="path26"
       style="stroke:none" />
    <path
       stroke="#c7e09e"
       vector-effect="non-scaling-stroke"
       d="   M 754.28 266.78   L 756.09 266.83   Q 756.57 266.84 756.77 267.28   L 762.07 279.33   Q 762.16 279.53 762.38 279.53   L 769.64 279.53   A 0.19 0.18 -10.8 0 0 769.82 279.27   L 763.76 265.54   Q 763.53 265.02 763.96 264.65   Q 770.21 259.21 768.40 249.80   C 766.14 238.05 755.58 239.94 746.78 239.68   Q 746.01 239.66 746.01 240.44   L 746.01 279.28   Q 746.01 279.54 746.27 279.54   L 753.44 279.55   Q 753.53 279.55 753.53 279.45   L 753.56 267.48   A 0.70 0.70 0.0 0 1 754.28 266.78"
       id="path27"
       style="stroke:none" />
    <path
       stroke="#c7e09e"
       vector-effect="non-scaling-stroke"
       d="   M 785.62 256.43   L 781.21 240.03   Q 781.12 239.71 780.79 239.71   L 773.58 239.73   Q 773.41 239.73 773.46 239.90   Q 777.13 251.89 780.98 263.62   C 782.62 268.60 781.93 274.01 782.01 279.05   Q 782.02 279.55 782.51 279.55   L 789.44 279.53   Q 789.76 279.53 789.77 279.22   C 789.86 273.97 789.15 268.60 790.85 263.42   Q 794.65 251.90 798.24 239.97   Q 798.33 239.70 798.04 239.70   L 790.76 239.72   Q 790.62 239.72 790.59 239.85   L 786.15 256.43   Q 785.88 257.42 785.62 256.43"
       id="path28"
       style="stroke:none" />
    <path
       stroke="#c7e09e"
       vector-effect="non-scaling-stroke"
       d="   M 843.64 256.32   L 839.24 239.94   Q 839.18 239.72 838.96 239.72   L 831.72 239.71   Q 831.48 239.71 831.55 239.94   Q 835.05 251.55 838.98 263.43   C 840.66 268.53 840.00 273.92 840.05 279.05   Q 840.05 279.54 840.54 279.54   L 847.29 279.54   Q 847.81 279.54 847.82 279.01   C 847.91 273.86 847.20 268.55 848.89 263.47   Q 852.49 252.60 856.32 239.86   Q 856.37 239.71 856.21 239.71   L 848.94 239.71   Q 848.68 239.71 848.62 239.96   L 844.23 256.31   Q 843.94 257.41 843.64 256.32"
       id="path29"
       style="stroke:none" />
    <path
       stroke="#c7e09e"
       vector-effect="non-scaling-stroke"
       d="   M 902.50 272.58   Q 898.39 272.61 898.33 268.50   Q 898.10 253.13 898.22 240.20   A 0.49 0.49 0.0 0 0 897.74 239.71   L 891.01 239.71   Q 890.48 239.71 890.49 240.23   Q 890.60 252.19 890.48 265.25   Q 890.42 270.56 891.62 273.39   C 894.48 280.19 903.15 282.25 909.24 278.39   Q 914.60 274.99 914.61 267.73   Q 914.63 253.60 914.62 240.27   A 0.56 0.56 0.0 0 0 914.06 239.71   L 907.46 239.71   Q 906.92 239.72 906.93 240.25   Q 907.01 254.20 906.83 268.45   Q 906.77 272.56 902.67 272.58   Q 902.57 272.58 902.50 272.58"
       id="path30"
       style="stroke:none" />
    <path
       stroke="#c7e09e"
       vector-effect="non-scaling-stroke"
       d="   M 930.26 266.79   L 932.01 266.81   A 0.78 0.78 0.0 0 1 932.71 267.28   L 937.97 279.26   Q 938.00 279.34 938.08 279.36   Q 939.28 279.69 945.61 279.49   A 0.15 0.14 77.9 0 0 945.74 279.28   L 939.68 265.51   Q 939.45 264.99 939.89 264.63   C 947.48 258.43 946.36 241.98 935.18 240.21   Q 929.96 239.38 922.21 239.78   Q 921.72 239.81 921.72 240.31   L 921.71 279.26   A 0.28 0.28 0.0 0 0 921.99 279.54   L 929.24 279.56   Q 929.54 279.56 929.54 279.26   L 929.56 267.49   Q 929.56 266.78 930.26 266.79"
       id="path31"
       style="stroke:none" />
    <path
       stroke="#c7e09e"
       vector-effect="non-scaling-stroke"
       d="   M 1011.50 274.99   A 0.35 0.35 0.0 0 1 1011.85 275.28   L 1012.50 279.26   A 0.35 0.35 0.0 0 0 1012.85 279.55   L 1019.90 279.54   A 0.35 0.35 0.0 0 0 1020.24 279.11   L 1011.44 239.98   A 0.35 0.35 0.0 0 0 1011.10 239.71   L 1003.59 239.72   A 0.35 0.35 0.0 0 0 1003.25 239.99   L 994.49 279.11   A 0.35 0.35 0.0 0 0 994.83 279.54   L 1001.88 279.56   A 0.35 0.35 0.0 0 0 1002.23 279.26   L 1002.86 275.28   A 0.35 0.35 0.0 0 1 1003.21 274.99   L 1011.50 274.99"
       id="path32"
       style="stroke:none" />
    <path
       stroke="#c7e09e"
       vector-effect="non-scaling-stroke"
       d="   M 1043.24 262.56   Q 1043.27 263.83 1042.79 262.65   L 1033.60 240.27   Q 1033.38 239.73 1032.78 239.73   L 1026.22 239.73   Q 1025.67 239.73 1025.67 240.28   L 1025.67 279.24   Q 1025.67 279.56 1025.98 279.56   L 1033.07 279.56   Q 1033.42 279.56 1033.41 279.22   L 1032.92 256.50   Q 1032.90 255.45 1033.30 256.42   L 1042.54 278.94   Q 1042.79 279.56 1043.46 279.56   L 1049.97 279.56   Q 1050.50 279.56 1050.50 279.03   L 1050.50 240.13   Q 1050.50 239.73 1050.11 239.73   L 1043.27 239.73   Q 1042.75 239.73 1042.76 240.24   L 1043.24 262.56"
       id="path33"
       style="stroke:none" />
    <path
       stroke="#c7e09e"
       vector-effect="non-scaling-stroke"
       d="   M 1068.24 262.74   L 1063.60 239.86   Q 1063.57 239.72 1063.43 239.72   L 1056.11 239.72   A 0.22 0.22 0.0 0 0 1055.89 239.99   L 1064.58 279.00   Q 1064.70 279.54 1065.25 279.54   L 1071.71 279.54   Q 1072.26 279.54 1072.38 279.00   L 1080.97 240.27   A 0.48 0.47 -83.6 0 0 1080.51 239.69   L 1073.95 239.71   Q 1073.35 239.71 1073.23 240.30   L 1068.71 262.73   Q 1068.47 263.90 1068.24 262.74"
       id="path34"
       style="stroke:none" />
    <path
       stroke="#c7e09e"
       vector-effect="non-scaling-stroke"
       d="   M 1096.85 274.99   A 0.41 0.41 0.0 0 1 1097.26 275.33   L 1097.92 279.17   A 0.41 0.41 0.0 0 0 1098.32 279.51   L 1105.24 279.57   A 0.41 0.41 0.0 0 0 1105.65 279.07   L 1096.88 240.03   A 0.41 0.41 0.0 0 0 1096.48 239.71   L 1089.07 239.71   A 0.41 0.41 0.0 0 0 1088.67 240.03   L 1079.90 279.07   A 0.41 0.41 0.0 0 0 1080.31 279.57   L 1087.23 279.51   A 0.41 0.41 0.0 0 0 1087.63 279.17   L 1088.29 275.33   A 0.41 0.41 0.0 0 1 1088.70 274.99   L 1096.85 274.99"
       id="path35"
       style="stroke:none" />
    <path
       stroke="#c7e09e"
       vector-effect="non-scaling-stroke"
       d="   M 813.26 269.25   A 0.40 0.40 0.0 0 0 812.88 268.71   L 804.69 268.72   A 0.40 0.40 0.0 0 0 804.29 269.04   L 801.36 283.33   A 0.40 0.40 0.0 0 0 801.75 283.81   L 807.51 283.78   A 0.40 0.40 0.0 0 0 807.89 283.52   L 813.26 269.25"
       id="path36"
       style="stroke:none" />
    <path
       stroke="#c7e09e"
       vector-effect="non-scaling-stroke"
       d="   M 572.1544 250.7025   A 4.15 4.15 0.0 0 0 567.9972 246.5597   L 567.6772 246.5603   A 4.15 4.15 0.0 0 0 563.5344 250.7175   L 563.5656 268.5575   A 4.15 4.15 0.0 0 0 567.7228 272.7003   L 568.0428 272.6997   A 4.15 4.15 0.0 0 0 572.1856 268.5425   L 572.1544 250.7025"
       id="path37"
       style="stroke:none" />
    <path
       stroke="#c7e09e"
       vector-effect="non-scaling-stroke"
       d="   M 731.2211 250.7151   A 4.15 4.15 0.0 0 0 727.0856 246.5506   L 726.7656 246.5495   A 4.15 4.15 0.0 0 0 722.6012 250.6850   L 722.5389 268.5249   A 4.15 4.15 0.0 0 0 726.6744 272.6894   L 726.9944 272.6905   A 4.15 4.15 0.0 0 0 731.1588 268.5550   L 731.2211 250.7151"
       id="path38"
       style="stroke:none" />
    <path
       stroke="#c7e09e"
       vector-effect="non-scaling-stroke"
       d="   M 876.1911 250.7051   A 4.15 4.15 0.0 0 0 872.0557 246.5406   L 871.7357 246.5395   A 4.15 4.15 0.0 0 0 867.5712 250.6750   L 867.5089 268.5349   A 4.15 4.15 0.0 0 0 871.6443 272.6994   L 871.9643 272.7005   A 4.15 4.15 0.0 0 0 876.1288 268.5650   L 876.1911 250.7051"
       id="path39"
       style="stroke:none" />
    <path
       stroke="#c7e09e"
       vector-effect="non-scaling-stroke"
       d="   M 625.54 247.58   L 625.56 259.12   A 0.35 0.35 0.0 0 0 625.91 259.47   L 628.67 259.46   A 4.96 4.57 89.9 0 0 633.23 254.49   L 633.23 252.17   A 4.96 4.57 89.9 0 0 628.65 247.22   L 625.89 247.23   A 0.35 0.35 0.0 0 0 625.54 247.58"
       id="path40"
       style="stroke:none" />
    <path
       stroke="#c7e09e"
       vector-effect="non-scaling-stroke"
       d="   M 753.57 247.66   L 753.53 259.04   A 0.43 0.43 0.0 0 0 753.96 259.47   L 756.68 259.48   A 5.30 4.63 -89.8 0 0 761.33 254.19   L 761.33 252.55   A 5.30 4.63 -89.8 0 0 756.72 247.24   L 754.00 247.23   A 0.43 0.43 0.0 0 0 753.57 247.66"
       id="path41"
       style="stroke:none" />
    <path
       stroke="#c7e09e"
       vector-effect="non-scaling-stroke"
       d="   M 929.58 247.58   L 929.52 259.10   A 0.35 0.35 0.0 0 0 929.87 259.45   L 932.56 259.47   A 4.92 4.62 -89.7 0 0 937.20 254.57   L 937.22 252.19   A 4.92 4.62 -89.7 0 0 932.62 247.25   L 929.93 247.23   A 0.35 0.35 0.0 0 0 929.58 247.58"
       id="path42"
       style="stroke:none" />
    <path
       stroke="#c7e09e"
       vector-effect="non-scaling-stroke"
       d="   M 1004.30 267.21   Q 1004.21 267.70 1004.71 267.70   L 1009.81 267.72   Q 1010.47 267.72 1010.36 267.07   L 1007.64 251.25   Q 1007.40 249.88 1007.16 251.25   L 1004.30 267.21"
       id="path43"
       style="stroke:none" />
    <path
       stroke="#c7e09e"
       vector-effect="non-scaling-stroke"
       d="   M 1092.98 251.19   Q 1092.78 250.07 1092.58 251.19   L 1089.76 267.05   Q 1089.65 267.70 1090.30 267.70   L 1095.28 267.71   Q 1095.93 267.71 1095.82 267.08   L 1092.98 251.19"
       id="path44"
       style="stroke:none" />
  </g>
  <circle
     fill="#6d9e41"
     cx="616.52"
     cy="76.93"
     r="13.15"
     id="circle45"
     style="stroke:none" />
  <circle
     fill="#6d9e41"
     cx="1044.41"
     cy="76.92"
     r="13.15"
     id="circle46"
     style="stroke:none" />
  <path
     fill="#92c33f"
     d="   M 456.18 93.83   A 0.34 0.34 0.0 0 0 455.84 94.17   Q 455.86 142.05 455.83 192.87   C 455.82 210.29 429.37 211.05 429.38 192.19   Q 429.43 135.82 429.32 83.24   Q 429.30 77.62 430.68 74.72   C 433.80 68.15 439.67 67.02 446.72 67.08   Q 468.85 67.27 492.33 67.19   C 511.57 67.12 526.49 77.93 532.69 95.97   Q 540.20 117.80 530.44 137.89   C 528.06 142.79 525.68 146.08 520.24 147.51   C 512.91 149.43 505.63 144.72 504.13 137.25   C 503.23 132.83 504.83 129.37 506.96 125.63   C 510.19 119.94 510.33 113.05 508.50 106.36   Q 505.08 93.82 492.33 93.80   Q 475.16 93.77 456.18 93.83   Z"
     id="path46"
     style="stroke:none;stroke-opacity:1;fill:#92c33f;fill-opacity:1" />
  <circle
     fill="#6d9e41"
     cx="790.96"
     cy="80.50"
     r="13.11"
     id="circle47"
     style="stroke:none" />
  <path
     fill="#92c33f"
     d="   M 906.15 179.68   Q 911.85 179.80 917.12 179.66   Q 921.82 179.52 924.91 180.70   C 933.28 183.90 935.79 194.98 930.04 201.66   Q 925.97 206.39 919.15 206.29   Q 909.21 206.15 899.28 206.37   Q 889.75 206.58 886.41 204.94   Q 878.99 201.31 879.01 192.09   Q 879.08 137.96 879.00 80.94   Q 878.99 73.47 884.73 69.55   C 891.79 64.72 902.07 67.99 904.67 76.26   Q 905.43 78.67 905.43 81.33   Q 905.40 131.98 905.42 178.94   Q 905.42 179.67 906.15 179.68   Z"
     id="path47"
     style="stroke:none" />
  <path
     fill="#92c33f"
     d="   M 1162.00 93.77   Q 1149.63 93.79 1137.84 93.87   Q 1131.38 93.91 1128.54 92.60   Q 1122.60 89.87 1121.21 83.40   C 1119.26 74.35 1125.82 67.09 1134.96 67.17   Q 1152.37 67.32 1170.44 67.13   Q 1178.87 67.04 1181.67 68.45   C 1188.23 71.75 1189.01 77.33 1188.99 84.28   Q 1188.86 140.83 1188.97 192.12   Q 1188.99 200.91 1181.82 204.77   C 1176.95 207.39 1170.51 206.43 1166.58 202.50   C 1162.47 198.40 1162.66 194.14 1162.67 187.56   Q 1162.73 141.04 1162.63 94.40   Q 1162.63 93.77 1162.00 93.77   Z"
     id="path48"
     style="stroke:none" />
  <circle
     fill="#6d9e41"
     cx="1217.59"
     cy="80.49"
     r="13.15"
     id="circle48"
     style="stroke:none" />
  <path
     fill="#92c33f"
     d="   M 754.67 111.59   Q 755.05 112.18 755.43 111.59   C 757.52 108.41 759.39 104.78 762.71 102.74   Q 767.76 99.63 773.54 101.40   C 782.53 104.17 785.14 113.91 780.33 121.53   Q 775.53 129.12 770.81 136.32   Q 770.58 136.68 770.81 137.03   Q 784.19 158.18 799.58 181.90   Q 803.33 187.69 803.78 190.42   C 806.23 205.03 787.72 212.30 779.78 199.91   Q 767.65 180.99 755.31 161.67   A 0.26 0.26 0.0 0 0 754.87 161.67   Q 742.87 180.03 731.57 197.86   Q 728.64 202.49 726.27 203.97   C 719.22 208.37 710.64 206.00 707.08 198.44   C 704.79 193.59 705.98 188.73 708.79 184.38   Q 723.96 160.82 739.09 137.14   A 0.76 0.74 45.6 0 0 739.09 136.33   Q 723.35 111.80 707.84 87.57   C 703.01 80.01 707.06 70.44 715.53 68.03   C 721.62 66.29 727.29 69.14 730.65 74.37   Q 742.70 93.06 754.67 111.59   Z"
     id="path49"
     style="stroke:none" />
  <path
     fill="#92c33f"
     d="   M 247.86 198.67   C 246.47 199.93 245.95 201.82 245.13 203.52   Q 231.77 231.29 217.27 261.99   Q 216.70 263.20 216.58 261.87   Q 216.41 259.91 216.41 257.98   Q 216.32 170.41 216.36 89.07   C 216.37 78.03 224.61 70.04 235.51 70.04   Q 275.73 70.03 320.43 70.04   C 331.84 70.05 342.15 77.24 344.37 88.51   Q 345.25 92.98 345.15 104.38   Q 344.87 136.23 345.16 169.39   C 345.24 178.91 344.03 186.25 336.99 192.46   C 331.30 197.46 325.49 198.46 317.87 198.43   Q 283.49 198.30 248.69 198.34   Q 248.22 198.34 247.86 198.67   Z"
     id="path50"
     style="fill:#6d9f41;fill-opacity:1;stroke:none" />
  <rect
     fill="#92c33f"
     x="-13.21"
     y="-51.41"
     transform="translate(616.54,154.75) rotate(0.1)"
     width="26.42"
     height="102.82"
     rx="12.85"
     id="rect50"
     style="stroke:none" />
  <rect
     fill="#92c33f"
     x="-13.21"
     y="-51.41"
     transform="translate(1044.42,154.75) rotate(0.1)"
     width="26.42"
     height="102.82"
     rx="12.86"
     id="rect51"
     style="stroke:none" />
  <rect
     fill="#92c33f"
     x="138.97"
     y="129.03"
     width="69.64"
     height="69.30"
     rx="12.82"
     id="rect52"
     style="stroke:none" />
  <circle
     fill="#6d9e41"
     cx="482.01"
     cy="149.37"
     r="13.10"
     id="circle52"
     style="stroke:none" />
  <circle
     fill="#6d9e41"
     cx="959.58"
     cy="193.04"
     r="13.13"
     id="circle53"
     style="stroke:none" />
  <rect
     fill="#92c33f"
     x="138.96"
     y="205.58"
     width="69.62"
     height="69.32"
     rx="12.78"
     id="rect53"
     style="stroke:none" />
  <path
     fill="#92c33f"
     d="   M 257.88 205.43   Q 266.25 205.70 274.64 205.47   C 284.17 205.21 287.17 212.96 287.07 221.11   Q 286.86 239.03 287.03 258.94   Q 287.07 264.12 285.77 267.06   C 282.65 274.13 277.10 274.99 269.97 274.95   Q 249.02 274.84 228.67 274.81   Q 225.40 274.80 222.47 272.81   A 1.46 1.46 0.0 0 1 221.97 270.98   L 252.76 206.32   Q 252.97 205.88 253.45 205.78   Q 255.56 205.36 257.88 205.43   Z"
     id="path53"
     style="stroke:none" />
  <path
     fill="#92c33f"
     d="   M 579.9060 268.8090   A 11.35 11.35 0.0 0 1 568.5759 280.1788   L 567.1959 280.1812   A 11.35 11.35 0.0 0 1 555.8261 268.8510   L 555.7940 250.4510   A 11.35 11.35 0.0 0 1 567.1241 239.0812   L 568.5041 239.0788   A 11.35 11.35 0.0 0 1 579.8739 250.4090   L 579.9060 268.8090   Z   M 572.1544 250.7025   A 4.15 4.15 0.0 0 0 567.9972 246.5597   L 567.6772 246.5603   A 4.15 4.15 0.0 0 0 563.5344 250.7175   L 563.5656 268.5575   A 4.15 4.15 0.0 0 0 567.7228 272.7003   L 568.0428 272.6997   A 4.15 4.15 0.0 0 0 572.1856 268.5425   L 572.1544 250.7025   Z"
     id="path54"
     style="stroke:none" />
  <path
     fill="#92c33f"
     d="   M 670.86 246.77   A 2.87 2.86 64.9 0 0 669.48 250.59   Q 670.69 253.16 673.31 254.86   C 679.47 258.85 685.12 263.06 683.66 271.32   Q 682.13 279.98 673.10 280.33   C 665.30 280.64 660.83 274.89 661.06 267.68   Q 661.07 267.46 661.28 267.46   L 668.49 267.44   A 0.23 0.23 0.0 0 1 668.72 267.67   C 668.72 270.34 670.36 273.49 673.53 272.75   C 677.78 271.74 676.68 266.73 674.05 264.74   C 667.82 260.00 660.79 256.34 662.13 247.12   C 662.78 242.62 666.54 239.41 670.96 239.05   Q 682.74 238.10 683.36 250.68   A 0.58 0.58 0.0 0 1 682.78 251.29   L 676.28 251.28   Q 675.63 251.28 675.57 250.63   Q 675.48 249.75 675.37 248.86   C 675.11 246.65 672.59 245.97 670.86 246.77   Z"
     id="path55"
     style="stroke:none" />
  <path
     fill="#92c33f"
     d="   M 738.9520 268.7879   A 11.35 11.35 0.0 0 1 727.6417 280.1774   L 726.2417 280.1823   A 11.35 11.35 0.0 0 1 714.8522 268.8720   L 714.7880 250.4721   A 11.35 11.35 0.0 0 1 726.0983 239.0826   L 727.4983 239.0777   A 11.35 11.35 0.0 0 1 738.8878 250.3880   L 738.9520 268.7879   Z   M 731.2211 250.7151   A 4.15 4.15 0.0 0 0 727.0856 246.5506   L 726.7656 246.5495   A 4.15 4.15 0.0 0 0 722.6012 250.6850   L 722.5389 268.5249   A 4.15 4.15 0.0 0 0 726.6744 272.6894   L 726.9944 272.6905   A 4.15 4.15 0.0 0 0 731.1588 268.5550   L 731.2211 250.7151   Z"
     id="path56"
     style="stroke:none" />
  <path
     fill="#92c33f"
     d="   M 883.7761 268.8691   A 11.30 11.30 0.0 0 1 872.4959 280.1888   L 871.1359 280.1912   A 11.30 11.30 0.0 0 1 859.8162 268.9109   L 859.7839 250.3909   A 11.30 11.30 0.0 0 1 871.0641 239.0712   L 872.4241 239.0688   A 11.30 11.30 0.0 0 1 883.7438 250.3491   L 883.7761 268.8691   Z   M 876.1911 250.7051   A 4.15 4.15 0.0 0 0 872.0557 246.5406   L 871.7357 246.5395   A 4.15 4.15 0.0 0 0 867.5712 250.6750   L 867.5089 268.5349   A 4.15 4.15 0.0 0 0 871.6443 272.6994   L 871.9643 272.7005   A 4.15 4.15 0.0 0 0 876.1288 268.5650   L 876.1911 250.7051   Z"
     id="path57"
     style="stroke:none" />
  <path
     fill="#92c33f"
     d="   M 977.41 272.71   L 978.21 272.75   Q 981.42 272.92 981.83 269.73   Q 982.17 267.05 981.98 264.24   Q 981.91 263.21 982.94 263.22   L 988.83 263.23   Q 989.69 263.23 989.76 264.09   Q 990.18 269.37 988.82 273.07   C 986.91 278.24 981.07 281.07 975.76 280.15   C 966.89 278.61 965.48 271.72 965.65 263.09   Q 965.77 257.11 965.77 251.13   Q 965.77 244.64 970.54 241.25   C 977.05 236.61 987.07 239.20 989.16 247.35   Q 989.97 250.47 989.84 254.79   Q 989.80 256.00 988.59 256.01   L 983.19 256.02   Q 981.83 256.03 981.95 254.67   Q 982.16 252.26 981.88 250.16   Q 981.47 247.07 978.40 246.53   Q 977.89 246.44 977.40 246.51   Q 973.54 247.01 973.54 250.90   L 973.56 268.66   Q 973.56 272.51 977.41 272.71   Z"
     id="path58"
     style="stroke:none" />
  <path
     fill="#92c33f"
     d="   M 1118.56 247.54   Q 1117.04 250.86 1120.44 253.50   C 1126.81 258.48 1134.39 262.11 1132.37 271.82   C 1131.28 277.05 1127.65 280.02 1122.39 280.33   C 1114.38 280.79 1110.55 276.01 1109.68 268.56   Q 1109.56 267.46 1110.67 267.45   L 1116.34 267.45   Q 1117.65 267.44 1117.66 268.76   C 1117.69 272.04 1121.38 274.27 1124.03 271.88   C 1126.42 269.71 1124.69 266.02 1122.50 264.45   C 1116.94 260.46 1110.57 256.74 1110.73 249.04   C 1110.88 241.71 1116.55 238.26 1123.31 239.07   C 1129.26 239.78 1132.26 245.06 1131.97 250.66   Q 1131.94 251.29 1131.31 251.29   L 1125.16 251.28   Q 1124.48 251.28 1124.37 250.60   C 1123.90 247.65 1123.12 245.41 1119.31 246.84   A 1.37 1.35 1.5 0 0 1118.56 247.54   Z"
     id="path59"
     style="stroke:none" />
  <path
     fill="#92c33f"
     d="   M 540.28 256.28   L 544.66 239.97   A 0.35 0.34 -82.2 0 1 544.99 239.71   L 552.24 239.72   A 0.15 0.15 0.0 0 1 552.38 239.91   Q 548.64 252.08 544.73 264.18   C 543.22 268.83 543.93 274.06 543.84 278.98   Q 543.83 279.54 543.28 279.54   L 536.55 279.53   Q 536.10 279.53 536.09 279.08   C 536.02 274.02 536.71 268.67 535.10 263.73   Q 531.26 251.97 527.56 239.92   A 0.17 0.16 -7.9 0 1 527.72 239.71   L 534.98 239.71   Q 535.22 239.71 535.29 239.95   L 539.66 256.28   Q 539.97 257.43 540.28 256.28   Z"
     id="path60"
     style="stroke:none" />
  <path
     fill="#92c33f"
     d="   M 598.52 272.57   Q 598.67 272.57 598.69 272.57   Q 602.82 272.58 602.88 268.44   Q 603.08 253.35 603.01 240.22   Q 603.01 239.72 603.50 239.72   L 610.28 239.73   Q 610.79 239.73 610.79 240.24   C 610.91 250.33 611.07 260.16 610.51 269.53   C 609.90 279.70 597.59 283.53 590.43 277.29   Q 586.57 273.92 586.51 267.30   Q 586.37 253.77 586.51 240.13   Q 586.51 239.69 586.95 239.69   L 593.78 239.71   Q 594.29 239.71 594.29 240.22   Q 594.20 254.67 594.34 268.44   Q 594.38 272.57 598.52 272.57   Z"
     id="path61"
     style="stroke:none" />
  <path
     fill="#92c33f"
     d="   M 625.56 267.49   L 625.54 279.26   Q 625.54 279.55 625.24 279.55   L 617.99 279.54   A 0.28 0.28 0.0 0 1 617.71 279.26   L 617.72 240.29   Q 617.72 239.80 618.21 239.78   C 628.99 239.35 639.60 238.78 640.70 252.12   Q 641.36 260.03 635.93 264.62   Q 635.51 264.98 635.73 265.49   L 641.77 279.27   A 0.19 0.19 0.0 0 1 641.60 279.53   L 634.49 279.56   Q 634.16 279.56 634.03 279.26   L 628.78 267.37   Q 628.53 266.82 627.93 266.81   L 626.27 266.79   Q 625.56 266.78 625.56 267.49   Z   M 625.54 247.58   L 625.56 259.12   A 0.35 0.35 0.0 0 0 625.91 259.47   L 628.67 259.46   A 4.96 4.57 89.9 0 0 633.23 254.49   L 633.23 252.17   A 4.96 4.57 89.9 0 0 628.65 247.22   L 625.89 247.23   A 0.35 0.35 0.0 0 0 625.54 247.58   Z"
     id="path62"
     style="stroke:none" />
  <path
     fill="#92c33f"
     d="   M 702.93 247.66   L 702.92 279.17   A 0.38 0.38 0.0 0 1 702.54 279.55   L 695.56 279.54   A 0.38 0.38 0.0 0 1 695.18 279.16   L 695.19 247.66   A 0.38 0.38 0.0 0 0 694.81 247.28   L 688.29 247.29   A 0.38 0.38 0.0 0 1 687.91 246.91   L 687.92 240.09   A 0.38 0.38 0.0 0 1 688.30 239.71   L 709.82 239.72   A 0.38 0.38 0.0 0 1 710.20 240.10   L 710.20 246.92   A 0.38 0.38 0.0 0 1 709.82 247.30   L 703.31 247.28   A 0.38 0.38 0.0 0 0 702.93 247.66   Z"
     id="path63"
     style="stroke:none" />
  <path
     fill="#92c33f"
     d="   M 753.56 267.48   L 753.53 279.45   Q 753.53 279.55 753.44 279.55   L 746.27 279.54   Q 746.01 279.54 746.01 279.28   L 746.01 240.44   Q 746.01 239.66 746.78 239.68   C 755.58 239.94 766.14 238.05 768.40 249.80   Q 770.21 259.21 763.96 264.65   Q 763.53 265.02 763.76 265.54   L 769.82 279.27   A 0.19 0.18 -10.8 0 1 769.64 279.53   L 762.38 279.53   Q 762.16 279.53 762.07 279.33   L 756.77 267.28   Q 756.57 266.84 756.09 266.83   L 754.28 266.78   A 0.70 0.70 0.0 0 0 753.56 267.48   Z   M 753.57 247.66   L 753.53 259.04   A 0.43 0.43 0.0 0 0 753.96 259.47   L 756.68 259.48   A 5.30 4.63 -89.8 0 0 761.33 254.19   L 761.33 252.55   A 5.30 4.63 -89.8 0 0 756.72 247.24   L 754.00 247.23   A 0.43 0.43 0.0 0 0 753.57 247.66   Z"
     id="path64"
     style="stroke:none" />
  <path
     fill="#92c33f"
     d="   M 786.15 256.43   L 790.59 239.85   Q 790.62 239.72 790.76 239.72   L 798.04 239.70   Q 798.33 239.70 798.24 239.97   Q 794.65 251.90 790.85 263.42   C 789.15 268.60 789.86 273.97 789.77 279.22   Q 789.76 279.53 789.44 279.53   L 782.51 279.55   Q 782.02 279.55 782.01 279.05   C 781.93 274.01 782.62 268.60 780.98 263.62   Q 777.13 251.89 773.46 239.90   Q 773.41 239.73 773.58 239.73   L 780.79 239.71   Q 781.12 239.71 781.21 240.03   L 785.62 256.43   Q 785.88 257.42 786.15 256.43   Z"
     id="path65"
     style="stroke:none" />
  <path
     fill="#92c33f"
     d="   M 844.23 256.31   L 848.62 239.96   Q 848.68 239.71 848.94 239.71   L 856.21 239.71   Q 856.37 239.71 856.32 239.86   Q 852.49 252.60 848.89 263.47   C 847.20 268.55 847.91 273.86 847.82 279.01   Q 847.81 279.54 847.29 279.54   L 840.54 279.54   Q 840.05 279.54 840.05 279.05   C 840.00 273.92 840.66 268.53 838.98 263.43   Q 835.05 251.55 831.55 239.94   Q 831.48 239.71 831.72 239.71   L 838.96 239.72   Q 839.18 239.72 839.24 239.94   L 843.64 256.32   Q 843.94 257.41 844.23 256.31   Z"
     id="path66"
     style="stroke:none" />
  <path
     fill="#92c33f"
     d="   M 902.50 272.58   Q 902.57 272.58 902.67 272.58   Q 906.77 272.56 906.83 268.45   Q 907.01 254.20 906.93 240.25   Q 906.92 239.72 907.46 239.71   L 914.06 239.71   A 0.56 0.56 0.0 0 1 914.62 240.27   Q 914.63 253.60 914.61 267.73   Q 914.60 274.99 909.24 278.39   C 903.15 282.25 894.48 280.19 891.62 273.39   Q 890.42 270.56 890.48 265.25   Q 890.60 252.19 890.49 240.23   Q 890.48 239.71 891.01 239.71   L 897.74 239.71   A 0.49 0.49 0.0 0 1 898.22 240.20   Q 898.10 253.13 898.33 268.50   Q 898.39 272.61 902.50 272.58   Z"
     id="path67"
     style="stroke:none" />
  <path
     fill="#92c33f"
     d="   M 929.56 267.49   L 929.54 279.26   Q 929.54 279.56 929.24 279.56   L 921.99 279.54   A 0.28 0.28 0.0 0 1 921.71 279.26   L 921.72 240.31   Q 921.72 239.81 922.21 239.78   Q 929.96 239.38 935.18 240.21   C 946.36 241.98 947.48 258.43 939.89 264.63   Q 939.45 264.99 939.68 265.51   L 945.74 279.28   A 0.15 0.14 77.9 0 1 945.61 279.49   Q 939.28 279.69 938.08 279.36   Q 938.00 279.34 937.97 279.26   L 932.71 267.28   A 0.78 0.78 0.0 0 0 932.01 266.81   L 930.26 266.79   Q 929.56 266.78 929.56 267.49   Z   M 929.58 247.58   L 929.52 259.10   A 0.35 0.35 0.0 0 0 929.87 259.45   L 932.56 259.47   A 4.92 4.62 -89.7 0 0 937.20 254.57   L 937.22 252.19   A 4.92 4.62 -89.7 0 0 932.62 247.25   L 929.93 247.23   A 0.35 0.35 0.0 0 0 929.58 247.58   Z"
     id="path68"
     style="stroke:none" />
  <path
     fill="#92c33f"
     d="   M 1011.50 274.99   L 1003.21 274.99   A 0.35 0.35 0.0 0 0 1002.86 275.28   L 1002.23 279.26   A 0.35 0.35 0.0 0 1 1001.88 279.56   L 994.83 279.54   A 0.35 0.35 0.0 0 1 994.49 279.11   L 1003.25 239.99   A 0.35 0.35 0.0 0 1 1003.59 239.72   L 1011.10 239.71   A 0.35 0.35 0.0 0 1 1011.44 239.98   L 1020.24 279.11   A 0.35 0.35 0.0 0 1 1019.90 279.54   L 1012.85 279.55   A 0.35 0.35 0.0 0 1 1012.50 279.26   L 1011.85 275.28   A 0.35 0.35 0.0 0 0 1011.50 274.99   Z   M 1004.30 267.21   Q 1004.21 267.70 1004.71 267.70   L 1009.81 267.72   Q 1010.47 267.72 1010.36 267.07   L 1007.64 251.25   Q 1007.40 249.88 1007.16 251.25   L 1004.30 267.21   Z"
     id="path69"
     style="stroke:none" />
  <path
     fill="#92c33f"
     d="   M 1043.24 262.56   L 1042.76 240.24   Q 1042.75 239.73 1043.27 239.73   L 1050.11 239.73   Q 1050.50 239.73 1050.50 240.13   L 1050.50 279.03   Q 1050.50 279.56 1049.97 279.56   L 1043.46 279.56   Q 1042.79 279.56 1042.54 278.94   L 1033.30 256.42   Q 1032.90 255.45 1032.92 256.50   L 1033.41 279.22   Q 1033.42 279.56 1033.07 279.56   L 1025.98 279.56   Q 1025.67 279.56 1025.67 279.24   L 1025.67 240.28   Q 1025.67 239.73 1026.22 239.73   L 1032.78 239.73   Q 1033.38 239.73 1033.60 240.27   L 1042.79 262.65   Q 1043.27 263.83 1043.24 262.56   Z"
     id="path70"
     style="stroke:none" />
  <path
     fill="#92c33f"
     d="   M 1068.71 262.73   L 1073.23 240.30   Q 1073.35 239.71 1073.95 239.71   L 1080.51 239.69   A 0.48 0.47 -83.6 0 1 1080.97 240.27   L 1072.38 279.00   Q 1072.26 279.54 1071.71 279.54   L 1065.25 279.54   Q 1064.70 279.54 1064.58 279.00   L 1055.89 239.99   A 0.22 0.22 0.0 0 1 1056.11 239.72   L 1063.43 239.72   Q 1063.57 239.72 1063.60 239.86   L 1068.24 262.74   Q 1068.47 263.90 1068.71 262.73   Z"
     id="path71"
     style="stroke:none" />
  <path
     fill="#92c33f"
     d="   M 1096.85 274.99   L 1088.70 274.99   A 0.41 0.41 0.0 0 0 1088.29 275.33   L 1087.63 279.17   A 0.41 0.41 0.0 0 1 1087.23 279.51   L 1080.31 279.57   A 0.41 0.41 0.0 0 1 1079.90 279.07   L 1088.67 240.03   A 0.41 0.41 0.0 0 1 1089.07 239.71   L 1096.48 239.71   A 0.41 0.41 0.0 0 1 1096.88 240.03   L 1105.65 279.07   A 0.41 0.41 0.0 0 1 1105.24 279.57   L 1098.32 279.51   A 0.41 0.41 0.0 0 1 1097.92 279.17   L 1097.26 275.33   A 0.41 0.41 0.0 0 0 1096.85 274.99   Z   M 1092.98 251.19   Q 1092.78 250.07 1092.58 251.19   L 1089.76 267.05   Q 1089.65 267.70 1090.30 267.70   L 1095.28 267.71   Q 1095.93 267.71 1095.82 267.08   L 1092.98 251.19   Z"
     id="path72"
     style="stroke:none" />
  <path
     fill="#92c33f"
     d="   M 813.26 269.25   L 807.89 283.52   A 0.40 0.40 0.0 0 1 807.51 283.78   L 801.75 283.81   A 0.40 0.40 0.0 0 1 801.36 283.33   L 804.29 269.04   A 0.40 0.40 0.0 0 1 804.69 268.72   L 812.88 268.71   A 0.40 0.40 0.0 0 1 813.26 269.25   Z"
     id="path79"
     style="stroke:none" />
</svg>
