<?xml version="1.0" encoding="UTF-8" standalone="no"?>
<svg
   version="1.1"
   viewBox="0 0 1091.78 220.04001"
   id="svg79"
   sodipodi:docname="pixlit-header3.svg"
   inkscape:version="1.3.2 (091e20e, 2023-11-25)"
   inkscape:export-filename="pixlit-banner.png"
   inkscape:export-xdpi="96"
   inkscape:export-ydpi="96"
   width="1091.78"
   height="220.04001"
   xmlns:inkscape="http://www.inkscape.org/namespaces/inkscape"
   xmlns:sodipodi="http://sodipodi.sourceforge.net/DTD/sodipodi-0.dtd"
   xmlns="http://www.w3.org/2000/svg"
   xmlns:svg="http://www.w3.org/2000/svg">
  <defs
     id="defs79" />
  <sodipodi:namedview
     id="namedview79"
     pagecolor="#ffffff"
     bordercolor="#000000"
     borderopacity="0.25"
     inkscape:showpageshadow="2"
     inkscape:pageopacity="0.0"
     inkscape:pagecheckerboard="true"
     inkscape:deskcolor="#d1d1d1"
     inkscape:zoom="0.82438518"
     inkscape:cx="360.26849"
     inkscape:cy="181.95378"
     inkscape:window-width="1312"
     inkscape:window-height="751"
     inkscape:window-x="816"
     inkscape:window-y="1256"
     inkscape:window-maximized="0"
     inkscape:current-layer="svg79"
     showgrid="false"
     showguides="true">
    <inkscape:grid
       id="grid1"
       units="px"
       originx="-138.96"
       originy="-63.769999"
       spacingx="1"
       spacingy="1"
       empcolor="#0099e5"
       empopacity="0.30196078"
       color="#0099e5"
       opacity="0.14901961"
       empspacing="5"
       dotted="false"
       gridanglex="30"
       gridanglez="30"
       visible="false" />
  </sodipodi:namedview>
  <g
     stroke-width="2"
     fill="none"
     stroke-linecap="butt"
     id="g44"
     style="stroke:none"
     transform="translate(-138.96,-63.769999)">
    <path
       stroke="#b5cd9f"
       vector-effect="non-scaling-stroke"
       d="M 629.67,76.93 A 13.15,13.15 0 0 0 616.52,63.78 13.15,13.15 0 0 0 603.37,76.93 13.15,13.15 0 0 0 616.52,90.08 13.15,13.15 0 0 0 629.67,76.93"
       id="path1"
       style="stroke:none" />
    <path
       stroke="#b5cd9f"
       vector-effect="non-scaling-stroke"
       d="m 1057.56,76.92 a 13.15,13.15 0 0 0 -13.15,-13.15 13.15,13.15 0 0 0 -13.15,13.15 13.15,13.15 0 0 0 13.15,13.15 13.15,13.15 0 0 0 13.15,-13.15"
       id="path2"
       style="stroke:none" />
    <path
       stroke="#c7e09e"
       vector-effect="non-scaling-stroke"
       d="m 456.18,93.83 q 18.98,-0.06 36.15,-0.03 12.75,0.02 16.17,12.56 c 1.83,6.69 1.69,13.58 -1.54,19.27 -2.13,3.74 -3.73,7.2 -2.83,11.62 1.5,7.47 8.78,12.18 16.11,10.26 5.44,-1.43 7.82,-4.72 10.2,-9.62 q 9.76,-20.09 2.25,-41.92 C 526.49,77.93 511.57,67.12 492.33,67.19 q -23.48,0.08 -45.61,-0.11 c -7.05,-0.06 -12.92,1.07 -16.04,7.64 q -1.38,2.9 -1.36,8.52 0.11,52.58 0.06,108.95 c -0.01,18.86 26.44,18.1 26.45,0.68 q 0.03,-50.82 0.01,-98.7 a 0.34,0.34 0 0 1 0.34,-0.34"
       id="path3"
       style="stroke:none" />
    <path
       stroke="#b5cd9f"
       vector-effect="non-scaling-stroke"
       d="M 804.07,80.5 A 13.11,13.11 0 0 0 790.96,67.39 13.11,13.11 0 0 0 777.85,80.5 13.11,13.11 0 0 0 790.96,93.61 13.11,13.11 0 0 0 804.07,80.5"
       id="path4"
       style="stroke:none" />
    <path
       stroke="#c7e09e"
       vector-effect="non-scaling-stroke"
       d="m 905.42,178.94 q -0.02,-46.96 0.01,-97.61 0,-2.66 -0.76,-5.07 c -2.6,-8.27 -12.88,-11.54 -19.94,-6.71 q -5.74,3.92 -5.73,11.39 0.08,57.02 0.01,111.15 -0.02,9.22 7.4,12.85 3.34,1.64 12.87,1.43 9.93,-0.22 19.87,-0.08 6.82,0.1 10.89,-4.63 c 5.75,-6.68 3.24,-17.76 -5.13,-20.96 q -3.09,-1.18 -7.79,-1.04 -5.27,0.14 -10.97,0.02 -0.73,-0.01 -0.73,-0.74"
       id="path5"
       style="stroke:none" />
    <path
       stroke="#c7e09e"
       vector-effect="non-scaling-stroke"
       d="m 1162.63,94.4 q 0.1,46.64 0.04,93.16 c -0.01,6.58 -0.2,10.84 3.91,14.94 3.93,3.93 10.37,4.89 15.24,2.27 q 7.17,-3.86 7.15,-12.65 -0.11,-51.29 0.02,-107.84 c 0.02,-6.95 -0.76,-12.53 -7.32,-15.83 q -2.8,-1.41 -11.23,-1.32 -18.07,0.19 -35.48,0.04 c -9.14,-0.08 -15.7,7.18 -13.75,16.23 q 1.39,6.47 7.33,9.2 2.84,1.31 9.3,1.27 11.79,-0.08 24.16,-0.1 0.63,0 0.63,0.63"
       id="path6"
       style="stroke:none" />
    <path
       stroke="#b5cd9f"
       vector-effect="non-scaling-stroke"
       d="m 1230.74,80.49 a 13.15,13.15 0 0 0 -13.15,-13.15 13.15,13.15 0 0 0 -13.15,13.15 13.15,13.15 0 0 0 13.15,13.15 13.15,13.15 0 0 0 13.15,-13.15"
       id="path7"
       style="stroke:none" />
    <path
       stroke="#c7e09e"
       vector-effect="non-scaling-stroke"
       d="M 754.67,111.59 Q 742.7,93.06 730.65,74.37 c -3.36,-5.23 -9.03,-8.08 -15.12,-6.34 -8.47,2.41 -12.52,11.98 -7.69,19.54 q 15.51,24.23 31.25,48.76 a 0.76,0.74 45.6 0 1 0,0.81 q -15.13,23.68 -30.3,47.24 c -2.81,4.35 -4,9.21 -1.71,14.06 3.56,7.56 12.14,9.93 19.19,5.53 q 2.37,-1.48 5.3,-6.11 11.3,-17.83 23.3,-36.19 a 0.26,0.26 0 0 1 0.44,0 q 12.34,19.32 24.47,38.24 c 7.94,12.39 26.45,5.12 24,-9.49 q -0.45,-2.73 -4.2,-8.52 -15.39,-23.72 -28.77,-44.87 -0.23,-0.35 0,-0.71 4.72,-7.2 9.52,-14.79 c 4.81,-7.62 2.2,-17.36 -6.79,-20.13 q -5.78,-1.77 -10.83,1.34 c -3.32,2.04 -5.19,5.67 -7.28,8.85 q -0.38,0.59 -0.76,0"
       id="path8"
       style="stroke:none" />
    <path
       stroke="#c7e09e"
       vector-effect="non-scaling-stroke"
       d="m 248.69,198.34 q 34.8,-0.04 69.18,0.09 c 7.62,0.03 13.43,-0.97 19.12,-5.97 7.04,-6.21 8.25,-13.55 8.17,-23.07 q -0.29,-33.16 -0.01,-65.01 0.1,-11.4 -0.78,-15.87 C 342.15,77.24 331.84,70.05 320.43,70.04 q -44.7,-0.01 -84.92,0 c -10.9,0 -19.14,7.99 -19.15,19.03 q -0.04,81.34 0.05,168.91 0,1.93 0.17,3.89 0.12,1.33 0.69,0.12 14.5,-30.7 27.86,-58.47 c 0.82,-1.7 1.34,-3.59 2.73,-4.85 q 0.36,-0.33 0.83,-0.33"
       id="path9"
       style="stroke:none" />
    <path
       stroke="#c7e09e"
       vector-effect="non-scaling-stroke"
       d="m 629.8173,116.2131 a 12.85,12.85 0 0 0 -12.8276,-12.8724 l -0.72,-0.001 a 12.85,12.85 0 0 0 -12.8724,12.8276 l -0.1346,77.1199 a 12.85,12.85 0 0 0 12.8276,12.8724 l 0.72,10e-4 a 12.85,12.85 0 0 0 12.8724,-12.8276 l 0.1346,-77.1199"
       id="path10"
       style="stroke:none" />
    <path
       stroke="#c7e09e"
       vector-effect="non-scaling-stroke"
       d="m 1057.6973,116.2231 a 12.86,12.86 0 0 0 -12.8376,-12.8824 l -0.7,-0.001 a 12.86,12.86 0 0 0 -12.8824,12.8375 l -0.1346,77.0999 a 12.86,12.86 0 0 0 12.8376,12.8824 l 0.7,0.001 a 12.86,12.86 0 0 0 12.8824,-12.8375 l 0.1346,-77.0999"
       id="path11"
       style="stroke:none" />
    <path
       stroke="#c7e09e"
       vector-effect="non-scaling-stroke"
       d="m 208.61,141.85 a 12.82,12.82 0 0 0 -12.82,-12.82 h -44 a 12.82,12.82 0 0 0 -12.82,12.82 v 43.66 a 12.82,12.82 0 0 0 12.82,12.82 h 44 a 12.82,12.82 0 0 0 12.82,-12.82 v -43.66"
       id="path12"
       style="stroke:none" />
    <path
       stroke="#b5cd9f"
       vector-effect="non-scaling-stroke"
       d="m 495.11,149.37 a 13.1,13.1 0 0 0 -13.1,-13.1 13.1,13.1 0 0 0 -13.1,13.1 13.1,13.1 0 0 0 13.1,13.1 13.1,13.1 0 0 0 13.1,-13.1"
       id="path13"
       style="stroke:none" />
    <path
       stroke="#b5cd9f"
       vector-effect="non-scaling-stroke"
       d="m 972.71,193.04 a 13.13,13.13 0 0 0 -13.13,-13.13 13.13,13.13 0 0 0 -13.13,13.13 13.13,13.13 0 0 0 13.13,13.13 13.13,13.13 0 0 0 13.13,-13.13"
       id="path14"
       style="stroke:none" />
    <path
       stroke="#c7e09e"
       vector-effect="non-scaling-stroke"
       d="M 208.58,218.36 A 12.78,12.78 0 0 0 195.8,205.58 h -44.06 a 12.78,12.78 0 0 0 -12.78,12.78 v 43.76 a 12.78,12.78 0 0 0 12.78,12.78 h 44.06 a 12.78,12.78 0 0 0 12.78,-12.78 v -43.76"
       id="path15"
       style="stroke:none" />
    <path
       stroke="#c7e09e"
       vector-effect="non-scaling-stroke"
       d="m 257.88,205.43 q -2.32,-0.07 -4.43,0.35 -0.48,0.1 -0.69,0.54 l -30.79,64.66 a 1.46,1.46 0 0 0 0.5,1.83 q 2.93,1.99 6.2,2 20.35,0.03 41.3,0.14 c 7.13,0.04 12.68,-0.82 15.8,-7.89 q 1.3,-2.94 1.26,-8.12 -0.17,-19.91 0.04,-37.83 c 0.1,-8.15 -2.9,-15.9 -12.43,-15.64 q -8.39,0.23 -16.76,-0.04"
       id="path16"
       style="stroke:none" />
    <path
       stroke="#c7e09e"
       vector-effect="non-scaling-stroke"
       d="m 579.8739,250.409 a 11.35,11.35 0 0 0 -11.3698,-11.3302 l -1.38,0.002 A 11.35,11.35 0 0 0 555.794,250.451 l 0.0321,18.4 a 11.35,11.35 0 0 0 11.3698,11.3302 l 1.38,-0.002 A 11.35,11.35 0 0 0 579.906,268.809 l -0.0321,-18.4"
       id="path17"
       style="stroke:none" />
    <path
       stroke="#c7e09e"
       vector-effect="non-scaling-stroke"
       d="m 670.86,246.77 c 1.73,-0.8 4.25,-0.12 4.51,2.09 q 0.11,0.89 0.2,1.77 0.06,0.65 0.71,0.65 l 6.5,0.01 a 0.58,0.58 0 0 0 0.58,-0.61 q -0.62,-12.58 -12.4,-11.63 c -4.42,0.36 -8.18,3.57 -8.83,8.07 -1.34,9.22 5.69,12.88 11.92,17.62 2.63,1.99 3.73,7 -0.52,8.01 -3.17,0.74 -4.81,-2.41 -4.81,-5.08 a 0.23,0.23 0 0 0 -0.23,-0.23 l -7.21,0.02 q -0.21,0 -0.22,0.22 c -0.23,7.21 4.24,12.96 12.04,12.65 q 9.03,-0.35 10.56,-9.01 c 1.46,-8.26 -4.19,-12.47 -10.35,-16.46 q -2.62,-1.7 -3.83,-4.27 a 2.87,2.86 64.9 0 1 1.38,-3.82"
       id="path18"
       style="stroke:none" />
    <path
       stroke="#c7e09e"
       vector-effect="non-scaling-stroke"
       d="m 738.8878,250.388 a 11.35,11.35 0 0 0 -11.3895,-11.3103 l -1.4,0.005 a 11.35,11.35 0 0 0 -11.3103,11.3895 l 0.0642,18.3999 a 11.35,11.35 0 0 0 11.3895,11.3103 l 1.4,-0.005 a 11.35,11.35 0 0 0 11.3103,-11.3895 l -0.0642,-18.3999"
       id="path19"
       style="stroke:none" />
    <path
       stroke="#c7e09e"
       vector-effect="non-scaling-stroke"
       d="m 883.7438,250.3491 a 11.3,11.3 0 0 0 -11.3197,-11.2803 l -1.36,0.002 a 11.3,11.3 0 0 0 -11.2802,11.3197 l 0.0323,18.52 a 11.3,11.3 0 0 0 11.3197,11.2803 l 1.36,-0.002 a 11.3,11.3 0 0 0 11.2802,-11.3197 l -0.0323,-18.52"
       id="path20"
       style="stroke:none" />
    <path
       stroke="#c7e09e"
       vector-effect="non-scaling-stroke"
       d="m 977.41,272.71 q -3.85,-0.2 -3.85,-4.05 l -0.02,-17.76 q 0,-3.89 3.86,-4.39 0.49,-0.07 1,0.02 3.07,0.54 3.48,3.63 0.28,2.1 0.07,4.51 -0.12,1.36 1.24,1.35 l 5.4,-0.01 q 1.21,-0.01 1.25,-1.22 0.13,-4.32 -0.68,-7.44 c -2.09,-8.15 -12.11,-10.74 -18.62,-6.1 q -4.77,3.39 -4.77,9.88 0,5.98 -0.12,11.96 c -0.17,8.63 1.24,15.52 10.11,17.06 5.31,0.92 11.15,-1.91 13.06,-7.08 q 1.36,-3.7 0.94,-8.98 -0.07,-0.86 -0.93,-0.86 l -5.89,-0.01 q -1.03,-0.01 -0.96,1.02 0.19,2.81 -0.15,5.49 -0.41,3.19 -3.62,3.02 l -0.8,-0.04"
       id="path21"
       style="stroke:none" />
    <path
       stroke="#c7e09e"
       vector-effect="non-scaling-stroke"
       d="m 1119.31,246.84 c 3.81,-1.43 4.59,0.81 5.06,3.76 q 0.11,0.68 0.79,0.68 l 6.15,0.01 q 0.63,0 0.66,-0.63 c 0.29,-5.6 -2.71,-10.88 -8.66,-11.59 -6.76,-0.81 -12.43,2.64 -12.58,9.97 -0.16,7.7 6.21,11.42 11.77,15.41 2.19,1.57 3.92,5.26 1.53,7.43 -2.65,2.39 -6.34,0.16 -6.37,-3.12 q -0.01,-1.32 -1.32,-1.31 h -5.67 q -1.11,0.01 -0.99,1.11 c 0.87,7.45 4.7,12.23 12.71,11.77 5.26,-0.31 8.89,-3.28 9.98,-8.51 2.02,-9.71 -5.56,-13.34 -11.93,-18.32 q -3.4,-2.64 -1.88,-5.96 a 1.37,1.35 1.5 0 1 0.75,-0.7"
       id="path22"
       style="stroke:none" />
    <path
       stroke="#c7e09e"
       vector-effect="non-scaling-stroke"
       d="m 539.66,256.28 -4.37,-16.33 q -0.07,-0.24 -0.31,-0.24 h -7.26 a 0.17,0.16 -7.9 0 0 -0.16,0.21 q 3.7,12.05 7.54,23.81 c 1.61,4.94 0.92,10.29 0.99,15.35 q 0.01,0.45 0.46,0.45 l 6.73,0.01 q 0.55,0 0.56,-0.56 c 0.09,-4.92 -0.62,-10.15 0.89,-14.8 q 3.91,-12.1 7.65,-24.27 a 0.15,0.15 0 0 0 -0.14,-0.19 l -7.25,-0.01 a 0.35,0.34 -82.2 0 0 -0.33,0.26 l -4.38,16.31 q -0.31,1.15 -0.62,0"
       id="path23"
       style="stroke:none" />
    <path
       stroke="#c7e09e"
       vector-effect="non-scaling-stroke"
       d="m 598.52,272.57 q -4.14,0 -4.18,-4.13 -0.14,-13.77 -0.05,-28.22 0,-0.51 -0.51,-0.51 l -6.83,-0.02 q -0.44,0 -0.44,0.44 -0.14,13.64 0,27.17 0.06,6.62 3.92,9.99 c 7.16,6.24 19.47,2.41 20.08,-7.76 0.56,-9.37 0.4,-19.2 0.28,-29.29 q 0,-0.51 -0.51,-0.51 l -6.78,-0.01 q -0.49,0 -0.49,0.5 0.07,13.13 -0.13,28.22 -0.06,4.14 -4.19,4.13 -0.02,0 -0.17,0"
       id="path24"
       style="stroke:none" />
    <path
       stroke="#c7e09e"
       vector-effect="non-scaling-stroke"
       d="m 626.27,266.79 1.66,0.02 q 0.6,0.01 0.85,0.56 l 5.25,11.89 q 0.13,0.3 0.46,0.3 l 7.11,-0.03 a 0.19,0.19 0 0 0 0.17,-0.26 l -6.04,-13.78 q -0.22,-0.51 0.2,-0.87 5.43,-4.59 4.77,-12.5 c -1.1,-13.34 -11.71,-12.77 -22.49,-12.34 q -0.49,0.02 -0.49,0.51 l -0.01,38.97 a 0.28,0.28 0 0 0 0.28,0.28 l 7.25,0.01 q 0.3,0 0.3,-0.29 l 0.02,-11.77 q 0,-0.71 0.71,-0.7"
       id="path25"
       style="stroke:none" />
    <path
       stroke="#c7e09e"
       vector-effect="non-scaling-stroke"
       d="m 702.93,247.66 a 0.38,0.38 0 0 1 0.38,-0.38 l 6.51,0.02 a 0.38,0.38 0 0 0 0.38,-0.38 v -6.82 a 0.38,0.38 0 0 0 -0.38,-0.38 l -21.52,-0.01 a 0.38,0.38 0 0 0 -0.38,0.38 l -0.01,6.82 a 0.38,0.38 0 0 0 0.38,0.38 l 6.52,-0.01 a 0.38,0.38 0 0 1 0.38,0.38 l -0.01,31.5 a 0.38,0.38 0 0 0 0.38,0.38 l 6.98,0.01 a 0.38,0.38 0 0 0 0.38,-0.38 l 0.01,-31.51"
       id="path26"
       style="stroke:none" />
    <path
       stroke="#c7e09e"
       vector-effect="non-scaling-stroke"
       d="m 754.28,266.78 1.81,0.05 q 0.48,0.01 0.68,0.45 l 5.3,12.05 q 0.09,0.2 0.31,0.2 h 7.26 a 0.19,0.18 -10.8 0 0 0.18,-0.26 l -6.06,-13.73 q -0.23,-0.52 0.2,-0.89 6.25,-5.44 4.44,-14.85 c -2.26,-11.75 -12.82,-9.86 -21.62,-10.12 q -0.77,-0.02 -0.77,0.76 v 38.84 q 0,0.26 0.26,0.26 l 7.17,0.01 q 0.09,0 0.09,-0.1 l 0.03,-11.97 a 0.7,0.7 0 0 1 0.72,-0.7"
       id="path27"
       style="stroke:none" />
    <path
       stroke="#c7e09e"
       vector-effect="non-scaling-stroke"
       d="m 785.62,256.43 -4.41,-16.4 q -0.09,-0.32 -0.42,-0.32 l -7.21,0.02 q -0.17,0 -0.12,0.17 3.67,11.99 7.52,23.72 c 1.64,4.98 0.95,10.39 1.03,15.43 q 0.01,0.5 0.5,0.5 l 6.93,-0.02 q 0.32,0 0.33,-0.31 c 0.09,-5.25 -0.62,-10.62 1.08,-15.8 q 3.8,-11.52 7.39,-23.45 0.09,-0.27 -0.2,-0.27 l -7.28,0.02 q -0.14,0 -0.17,0.13 l -4.44,16.58 q -0.27,0.99 -0.53,0"
       id="path28"
       style="stroke:none" />
    <path
       stroke="#c7e09e"
       vector-effect="non-scaling-stroke"
       d="m 843.64,256.32 -4.4,-16.38 q -0.06,-0.22 -0.28,-0.22 l -7.24,-0.01 q -0.24,0 -0.17,0.23 3.5,11.61 7.43,23.49 c 1.68,5.1 1.02,10.49 1.07,15.62 q 0,0.49 0.49,0.49 h 6.75 q 0.52,0 0.53,-0.53 c 0.09,-5.15 -0.62,-10.46 1.07,-15.54 q 3.6,-10.87 7.43,-23.61 0.05,-0.15 -0.11,-0.15 h -7.27 q -0.26,0 -0.32,0.25 l -4.39,16.35 q -0.29,1.1 -0.59,0.01"
       id="path29"
       style="stroke:none" />
    <path
       stroke="#c7e09e"
       vector-effect="non-scaling-stroke"
       d="m 902.5,272.58 q -4.11,0.03 -4.17,-4.08 -0.23,-15.37 -0.11,-28.3 a 0.49,0.49 0 0 0 -0.48,-0.49 h -6.73 q -0.53,0 -0.52,0.52 0.11,11.96 -0.01,25.02 -0.06,5.31 1.14,8.14 c 2.86,6.8 11.53,8.86 17.62,5 q 5.36,-3.4 5.37,-10.66 0.02,-14.13 0.01,-27.46 a 0.56,0.56 0 0 0 -0.56,-0.56 h -6.6 q -0.54,0.01 -0.53,0.54 0.08,13.95 -0.1,28.2 -0.06,4.11 -4.16,4.13 -0.1,0 -0.17,0"
       id="path30"
       style="stroke:none" />
    <path
       stroke="#c7e09e"
       vector-effect="non-scaling-stroke"
       d="m 930.26,266.79 1.75,0.02 a 0.78,0.78 0 0 1 0.7,0.47 l 5.26,11.98 q 0.03,0.08 0.11,0.1 1.2,0.33 7.53,0.13 a 0.15,0.14 77.9 0 0 0.13,-0.21 l -6.06,-13.77 q -0.23,-0.52 0.21,-0.88 c 7.59,-6.2 6.47,-22.65 -4.71,-24.42 q -5.22,-0.83 -12.97,-0.43 -0.49,0.03 -0.49,0.53 l -0.01,38.95 a 0.28,0.28 0 0 0 0.28,0.28 l 7.25,0.02 q 0.3,0 0.3,-0.3 l 0.02,-11.77 q 0,-0.71 0.7,-0.7"
       id="path31"
       style="stroke:none" />
    <path
       stroke="#c7e09e"
       vector-effect="non-scaling-stroke"
       d="m 1011.5,274.99 a 0.35,0.35 0 0 1 0.35,0.29 l 0.65,3.98 a 0.35,0.35 0 0 0 0.35,0.29 l 7.05,-0.01 a 0.35,0.35 0 0 0 0.34,-0.43 l -8.8,-39.13 a 0.35,0.35 0 0 0 -0.34,-0.27 l -7.51,0.01 a 0.35,0.35 0 0 0 -0.34,0.27 l -8.76,39.12 a 0.35,0.35 0 0 0 0.34,0.43 l 7.05,0.02 a 0.35,0.35 0 0 0 0.35,-0.3 l 0.63,-3.98 a 0.35,0.35 0 0 1 0.35,-0.29 h 8.29"
       id="path32"
       style="stroke:none" />
    <path
       stroke="#c7e09e"
       vector-effect="non-scaling-stroke"
       d="m 1043.24,262.56 q 0.03,1.27 -0.45,0.09 l -9.19,-22.38 q -0.22,-0.54 -0.82,-0.54 h -6.56 q -0.55,0 -0.55,0.55 v 38.96 q 0,0.32 0.31,0.32 h 7.09 q 0.35,0 0.34,-0.34 l -0.49,-22.72 q -0.02,-1.05 0.38,-0.08 l 9.24,22.52 q 0.25,0.62 0.92,0.62 h 6.51 q 0.53,0 0.53,-0.53 v -38.9 q 0,-0.4 -0.39,-0.4 h -6.84 q -0.52,0 -0.51,0.51 l 0.48,22.32"
       id="path33"
       style="stroke:none" />
    <path
       stroke="#c7e09e"
       vector-effect="non-scaling-stroke"
       d="m 1068.24,262.74 -4.64,-22.88 q -0.03,-0.14 -0.17,-0.14 h -7.32 a 0.22,0.22 0 0 0 -0.22,0.27 l 8.69,39.01 q 0.12,0.54 0.67,0.54 h 6.46 q 0.55,0 0.67,-0.54 l 8.59,-38.73 a 0.48,0.47 -83.6 0 0 -0.46,-0.58 l -6.56,0.02 q -0.6,0 -0.72,0.59 l -4.52,22.43 q -0.24,1.17 -0.47,0.01"
       id="path34"
       style="stroke:none" />
    <path
       stroke="#c7e09e"
       vector-effect="non-scaling-stroke"
       d="m 1096.85,274.99 a 0.41,0.41 0 0 1 0.41,0.34 l 0.66,3.84 a 0.41,0.41 0 0 0 0.4,0.34 l 6.92,0.06 a 0.41,0.41 0 0 0 0.41,-0.5 l -8.77,-39.04 a 0.41,0.41 0 0 0 -0.4,-0.32 h -7.41 a 0.41,0.41 0 0 0 -0.4,0.32 l -8.77,39.04 a 0.41,0.41 0 0 0 0.41,0.5 l 6.92,-0.06 a 0.41,0.41 0 0 0 0.4,-0.34 l 0.66,-3.84 a 0.41,0.41 0 0 1 0.41,-0.34 h 8.15"
       id="path35"
       style="stroke:none" />
    <path
       stroke="#c7e09e"
       vector-effect="non-scaling-stroke"
       d="m 813.26,269.25 a 0.4,0.4 0 0 0 -0.38,-0.54 l -8.19,0.01 a 0.4,0.4 0 0 0 -0.4,0.32 l -2.93,14.29 a 0.4,0.4 0 0 0 0.39,0.48 l 5.76,-0.03 a 0.4,0.4 0 0 0 0.38,-0.26 l 5.37,-14.27"
       id="path36"
       style="stroke:none" />
    <path
       stroke="#c7e09e"
       vector-effect="non-scaling-stroke"
       d="m 572.1544,250.7025 a 4.15,4.15 0 0 0 -4.1572,-4.1428 l -0.32,6e-4 a 4.15,4.15 0 0 0 -4.1428,4.1572 l 0.0312,17.84 a 4.15,4.15 0 0 0 4.1572,4.1428 l 0.32,-6e-4 a 4.15,4.15 0 0 0 4.1428,-4.1572 l -0.0312,-17.84"
       id="path37"
       style="stroke:none" />
    <path
       stroke="#c7e09e"
       vector-effect="non-scaling-stroke"
       d="m 731.2211,250.7151 a 4.15,4.15 0 0 0 -4.1355,-4.1645 l -0.32,-0.001 a 4.15,4.15 0 0 0 -4.1644,4.1355 l -0.0623,17.8399 a 4.15,4.15 0 0 0 4.1355,4.1645 l 0.32,10e-4 a 4.15,4.15 0 0 0 4.1644,-4.1355 l 0.0623,-17.8399"
       id="path38"
       style="stroke:none" />
    <path
       stroke="#c7e09e"
       vector-effect="non-scaling-stroke"
       d="m 876.1911,250.7051 a 4.15,4.15 0 0 0 -4.1354,-4.1645 l -0.32,-0.001 a 4.15,4.15 0 0 0 -4.1645,4.1355 l -0.0623,17.8599 a 4.15,4.15 0 0 0 4.1354,4.1645 l 0.32,10e-4 a 4.15,4.15 0 0 0 4.1645,-4.1355 l 0.0623,-17.8599"
       id="path39"
       style="stroke:none" />
    <path
       stroke="#c7e09e"
       vector-effect="non-scaling-stroke"
       d="m 625.54,247.58 0.02,11.54 a 0.35,0.35 0 0 0 0.35,0.35 l 2.76,-0.01 a 4.96,4.57 89.9 0 0 4.56,-4.97 v -2.32 a 4.96,4.57 89.9 0 0 -4.58,-4.95 l -2.76,0.01 a 0.35,0.35 0 0 0 -0.35,0.35"
       id="path40"
       style="stroke:none" />
    <path
       stroke="#c7e09e"
       vector-effect="non-scaling-stroke"
       d="m 753.57,247.66 -0.04,11.38 a 0.43,0.43 0 0 0 0.43,0.43 l 2.72,0.01 a 5.3,4.63 -89.8 0 0 4.65,-5.29 v -1.64 a 5.3,4.63 -89.8 0 0 -4.61,-5.31 L 754,247.23 a 0.43,0.43 0 0 0 -0.43,0.43"
       id="path41"
       style="stroke:none" />
    <path
       stroke="#c7e09e"
       vector-effect="non-scaling-stroke"
       d="m 929.58,247.58 -0.06,11.52 a 0.35,0.35 0 0 0 0.35,0.35 l 2.69,0.02 a 4.92,4.62 -89.7 0 0 4.64,-4.9 l 0.02,-2.38 a 4.92,4.62 -89.7 0 0 -4.6,-4.94 l -2.69,-0.02 a 0.35,0.35 0 0 0 -0.35,0.35"
       id="path42"
       style="stroke:none" />
    <path
       stroke="#c7e09e"
       vector-effect="non-scaling-stroke"
       d="m 1004.3,267.21 q -0.09,0.49 0.41,0.49 l 5.1,0.02 q 0.66,0 0.55,-0.65 l -2.72,-15.82 q -0.24,-1.37 -0.48,0 l -2.86,15.96"
       id="path43"
       style="stroke:none" />
    <path
       stroke="#c7e09e"
       vector-effect="non-scaling-stroke"
       d="m 1092.98,251.19 q -0.2,-1.12 -0.4,0 l -2.82,15.86 q -0.11,0.65 0.54,0.65 l 4.98,0.01 q 0.65,0 0.54,-0.63 l -2.84,-15.89"
       id="path44"
       style="stroke:none" />
  </g>
  <circle
     fill="#6d9e41"
     cx="477.56003"
     cy="13.160002"
     r="13.15"
     id="circle45"
     style="stroke:none;fill:#3c84f5;fill-opacity:1" />
  <circle
     fill="#6d9e41"
     cx="905.45001"
     cy="13.15"
     r="13.15"
     id="circle46"
     style="stroke:none;fill:#3c84f5;fill-opacity:1" />
  <path
     fill="#92c33f"
     d="m 317.22,30.060001 a 0.34,0.34 0 0 0 -0.34,0.34 q 0.02,47.88 -0.01,98.699999 c -0.01,17.42 -26.46,18.18 -26.45,-0.68 q 0.05,-56.369999 -0.06,-108.949999 -0.02,-5.62 1.36,-8.52 c 3.12,-6.5699996 8.99,-7.6999996 16.04,-7.6399996 q 22.13,0.19 45.61,0.11 c 19.24,-0.07 34.16,10.7399996 40.36,28.7799996 q 7.51,21.83 -2.25,41.92 c -2.38,4.9 -4.76,8.19 -10.2,9.62 -7.33,1.92 -14.61,-2.79 -16.11,-10.26 -0.9,-4.42 0.7,-7.88 2.83,-11.62 3.23,-5.69 3.37,-12.58 1.54,-19.27 q -3.42,-12.54 -16.17,-12.56 -17.17,-0.03 -36.15,0.03 z"
     id="path46"
     style="fill:#4bdc83;fill-opacity:1;stroke:none;stroke-opacity:1" />
  <circle
     fill="#6d9e41"
     cx="652"
     cy="16.730001"
     r="13.11"
     id="circle47"
     style="stroke:none;fill:#3c84f5;fill-opacity:1" />
  <path
     fill="#92c33f"
     d="m 767.19,115.91 q 5.7,0.12 10.97,-0.02 4.7,-0.14 7.79,1.04 c 8.37,3.2 10.88,14.28 5.13,20.96 q -4.07,4.73 -10.89,4.63 -9.94,-0.14 -19.87,0.08 -9.53,0.21 -12.87,-1.43 -7.42,-3.63 -7.4,-12.85 0.07,-54.129999 -0.01,-111.149999 -0.01,-7.4699996 5.73,-11.3899996 c 7.06,-4.82999995 17.34,-1.56 19.94,6.7099996 q 0.76,2.41 0.76,5.07 -0.03,50.65 -0.01,97.609999 0,0.73 0.73,0.74 z"
     id="path47"
     style="stroke:none;fill:#4bdc83;fill-opacity:1" />
  <path
     fill="#92c33f"
     d="m 1023.04,30.000001 q -12.37,0.02 -24.16,0.1 -6.46,0.04 -9.3,-1.27 -5.94,-2.73 -7.33,-9.2 c -1.95,-9.05 4.61,-16.3099996 13.75,-16.2299996 q 17.41,0.15 35.48,-0.04 8.43,-0.09 11.23,1.32 c 6.56,3.3 7.34,8.8799996 7.32,15.8299996 q -0.13,56.55 -0.02,107.839999 0.02,8.79 -7.15,12.65 c -4.87,2.62 -11.31,1.66 -15.24,-2.27 -4.11,-4.1 -3.92,-8.36 -3.91,-14.94 q 0.06,-46.519999 -0.04,-93.159999 0,-0.63 -0.63,-0.63 z"
     id="path48"
     style="stroke:none;fill:#4bdc83;fill-opacity:1" />
  <circle
     fill="#6d9e41"
     cx="1078.63"
     cy="16.719999"
     r="13.15"
     id="circle48"
     style="stroke:none;fill:#3c84f5;fill-opacity:1" />
  <path
     fill="#92c33f"
     d="m 615.71,47.820001 q 0.38,0.59 0.76,0 c 2.09,-3.18 3.96,-6.81 7.28,-8.85 q 5.05,-3.11 10.83,-1.34 c 8.99,2.77 11.6,12.51 6.79,20.13 q -4.8,7.59 -9.52,14.79 -0.23,0.36 0,0.71 13.38,21.15 28.77,44.869999 3.75,5.79 4.2,8.52 c 2.45,14.61 -16.06,21.88 -24,9.49 Q 628.69,117.22 616.35,97.900001 a 0.26,0.26 0 0 0 -0.44,0 q -12,18.359999 -23.3,36.189999 -2.93,4.63 -5.3,6.11 c -7.05,4.4 -15.63,2.03 -19.19,-5.53 -2.29,-4.85 -1.1,-9.71 1.71,-14.06 Q 585,97.050001 600.13,73.370001 a 0.76,0.74 45.6 0 0 0,-0.81 q -15.74,-24.53 -31.25,-48.76 c -4.83,-7.56 -0.78,-17.1299996 7.69,-19.5399996 6.09,-1.74 11.76,1.11 15.12,6.3399996 q 12.05,18.69 24.02,37.22 z"
     id="path49"
     style="stroke:none;fill:#4bdc83;fill-opacity:1" />
  <path
     fill="#92c33f"
     d="m 108.9,134.9 c -1.39,1.26 -1.91,3.15 -2.73,4.85 q -13.36,27.77 -27.86,58.47 -0.57,1.21 -0.69,-0.12 -0.17,-1.96 -0.17,-3.89 Q 77.36,106.64 77.4,25.300001 c 0.01,-11.04 8.25,-19.0299996 19.15,-19.0299996 q 40.22,-0.01 84.92,0 c 11.41,0.01 21.72,7.1999996 23.94,18.4699996 q 0.88,4.47 0.78,15.87 -0.28,31.85 0.01,65.009999 c 0.08,9.52 -1.13,16.86 -8.17,23.07 -5.69,5 -11.5,6 -19.12,5.97 q -34.38,-0.13 -69.18,-0.09 -0.47,0 -0.83,0.33 z"
     id="path50"
     style="fill:#3c84f5;fill-opacity:1;stroke:none" />
  <rect
     fill="#92c33f"
     x="464.52805"
     y="38.736328"
     transform="rotate(0.1)"
     width="26.42"
     height="102.82"
     rx="12.85"
     id="rect50"
     style="stroke:none;fill:#4bdc83;fill-opacity:1" />
  <rect
     fill="#92c33f"
     x="892.40741"
     y="37.989536"
     transform="rotate(0.1)"
     width="26.42"
     height="102.82"
     rx="12.86"
     id="rect51"
     style="stroke:none;fill:#4bdc83;fill-opacity:1" />
  <rect
     fill="#92c33f"
     x="0.010001221"
     y="65.260002"
     width="69.639999"
     height="69.300003"
     rx="12.82"
     id="rect52"
     style="stroke:none;fill:#4bdc83;fill-opacity:1" />
  <circle
     fill="#6d9e41"
     cx="343.05002"
     cy="85.599998"
     r="13.1"
     id="circle52"
     style="stroke:none;fill:#3c84f5;fill-opacity:1" />
  <circle
     fill="#6d9e41"
     cx="820.62"
     cy="129.26999"
     r="13.13"
     id="circle53"
     style="stroke:none;fill:#3c84f5;fill-opacity:1" />
  <rect
     fill="#92c33f"
     x="6.7138672e-06"
     y="141.81"
     width="69.620003"
     height="69.32"
     rx="12.78"
     id="rect53"
     style="stroke:none;fill:#4bdc83;fill-opacity:1" />
  <path
     fill="#92c33f"
     d="m 118.92,141.66 q 8.37,0.27 16.76,0.04 c 9.53,-0.26 12.53,7.49 12.43,15.64 q -0.21,17.92 -0.04,37.83 0.04,5.18 -1.26,8.12 c -3.12,7.07 -8.67,7.93 -15.8,7.89 q -20.95,-0.11 -41.3,-0.14 -3.27,-0.01 -6.2,-2 a 1.46,1.46 0 0 1 -0.5,-1.83 l 30.79,-64.66 q 0.21,-0.44 0.69,-0.54 2.11,-0.42 4.43,-0.35 z"
     id="path53"
     style="stroke:none;fill:#4bdc83;fill-opacity:1" />
  <path
     fill="#92c33f"
     d="m 440.946,205.039 a 11.35,11.35 0 0 1 -11.3301,11.3698 l -1.38,0.002 A 11.35,11.35 0 0 1 416.8661,205.081 l -0.0321,-18.4 a 11.35,11.35 0 0 1 11.3301,-11.3698 l 1.38,-0.002 a 11.35,11.35 0 0 1 11.3698,11.3302 z m -7.7516,-18.1065 a 4.15,4.15 0 0 0 -4.1572,-4.1428 l -0.32,6e-4 a 4.15,4.15 0 0 0 -4.1428,4.1572 l 0.0312,17.84 a 4.15,4.15 0 0 0 4.1572,4.1428 l 0.32,-6e-4 a 4.15,4.15 0 0 0 4.1428,-4.1572 z"
     id="path54"
     style="stroke:none;fill:#4bdc83;fill-opacity:1" />
  <path
     fill="#92c33f"
     d="m 531.9,183 a 2.87,2.86 64.9 0 0 -1.38,3.82 q 1.21,2.57 3.83,4.27 c 6.16,3.99 11.81,8.2 10.35,16.46 q -1.53,8.66 -10.56,9.01 c -7.8,0.31 -12.27,-5.44 -12.04,-12.65 q 0.01,-0.22 0.22,-0.22 l 7.21,-0.02 a 0.23,0.23 0 0 1 0.23,0.23 c 0,2.67 1.64,5.82 4.81,5.08 4.25,-1.01 3.15,-6.02 0.52,-8.01 -6.23,-4.74 -13.26,-8.4 -11.92,-17.62 0.65,-4.5 4.41,-7.71 8.83,-8.07 q 11.78,-0.95 12.4,11.63 a 0.58,0.58 0 0 1 -0.58,0.61 l -6.5,-0.01 q -0.65,0 -0.71,-0.65 -0.09,-0.88 -0.2,-1.77 c -0.26,-2.21 -2.78,-2.89 -4.51,-2.09 z"
     id="path55"
     style="stroke:none;fill:#4bdc83;fill-opacity:1" />
  <path
     fill="#92c33f"
     d="m 599.992,205.0179 a 11.35,11.35 0 0 1 -11.3103,11.3895 l -1.4,0.005 A 11.35,11.35 0 0 1 575.8922,205.102 l -0.0642,-18.3999 a 11.35,11.35 0 0 1 11.3103,-11.3895 l 1.4,-0.005 a 11.35,11.35 0 0 1 11.3895,11.3103 z m -7.7309,-18.0728 a 4.15,4.15 0 0 0 -4.1355,-4.1645 l -0.32,-0.001 a 4.15,4.15 0 0 0 -4.1644,4.1355 l -0.0623,17.8399 a 4.15,4.15 0 0 0 4.1355,4.1645 l 0.32,0.001 a 4.15,4.15 0 0 0 4.1644,-4.1355 z"
     id="path56"
     style="stroke:none;fill:#4bdc83;fill-opacity:1" />
  <path
     fill="#92c33f"
     d="m 744.8161,205.0991 a 11.3,11.3 0 0 1 -11.2802,11.3197 l -1.36,0.002 a 11.3,11.3 0 0 1 -11.3197,-11.2803 l -0.0323,-18.52 a 11.3,11.3 0 0 1 11.2802,-11.3197 l 1.36,-0.002 a 11.3,11.3 0 0 1 11.3197,11.2803 z m -7.585,-18.164 a 4.15,4.15 0 0 0 -4.1354,-4.1645 l -0.32,-0.001 a 4.15,4.15 0 0 0 -4.1645,4.1355 l -0.0623,17.8599 a 4.15,4.15 0 0 0 4.1354,4.1645 l 0.32,0.001 a 4.15,4.15 0 0 0 4.1645,-4.1355 z"
     id="path57"
     style="stroke:none;fill:#4bdc83;fill-opacity:1" />
  <path
     fill="#92c33f"
     d="m 838.45,208.94 0.8,0.04 q 3.21,0.17 3.62,-3.02 0.34,-2.68 0.15,-5.49 -0.07,-1.03 0.96,-1.02 l 5.89,0.01 q 0.86,0 0.93,0.86 0.42,5.28 -0.94,8.98 c -1.91,5.17 -7.75,8 -13.06,7.08 -8.87,-1.54 -10.28,-8.43 -10.11,-17.06 q 0.12,-5.98 0.12,-11.96 0,-6.49 4.77,-9.88 c 6.51,-4.64 16.53,-2.05 18.62,6.1 q 0.81,3.12 0.68,7.44 -0.04,1.21 -1.25,1.22 l -5.4,0.01 q -1.36,0.01 -1.24,-1.35 0.21,-2.41 -0.07,-4.51 -0.41,-3.09 -3.48,-3.63 -0.51,-0.09 -1,-0.02 -3.86,0.5 -3.86,4.39 l 0.02,17.76 q 0,3.85 3.85,4.05 z"
     id="path58"
     style="stroke:none;fill:#4bdc83;fill-opacity:1" />
  <path
     fill="#92c33f"
     d="m 979.6,183.77 q -1.52,3.32 1.88,5.96 c 6.37,4.98 13.95,8.61 11.93,18.32 -1.09,5.23 -4.72,8.2 -9.98,8.51 -8.01,0.46 -11.84,-4.32 -12.71,-11.77 q -0.12,-1.1 0.99,-1.11 h 5.67 q 1.31,-0.01 1.32,1.31 c 0.03,3.28 3.72,5.51 6.37,3.12 2.39,-2.17 0.66,-5.86 -1.53,-7.43 -5.56,-3.99 -11.93,-7.71 -11.77,-15.41 0.15,-7.33 5.82,-10.78 12.58,-9.97 5.95,0.71 8.95,5.99 8.66,11.59 q -0.03,0.63 -0.66,0.63 l -6.15,-0.01 q -0.68,0 -0.79,-0.68 c -0.47,-2.95 -1.25,-5.19 -5.06,-3.76 a 1.37,1.35 1.5 0 0 -0.75,0.7 z"
     id="path59"
     style="stroke:none;fill:#4bdc83;fill-opacity:1" />
  <path
     fill="#92c33f"
     d="m 401.32,192.51 4.38,-16.31 a 0.34,0.35 7.8 0 1 0.33,-0.26 l 7.25,0.01 a 0.15,0.15 0 0 1 0.14,0.19 q -3.74,12.17 -7.65,24.27 c -1.51,4.65 -0.8,9.88 -0.89,14.8 q -0.01,0.56 -0.56,0.56 l -6.73,-0.01 q -0.45,0 -0.46,-0.45 c -0.07,-5.06 0.62,-10.41 -0.99,-15.35 Q 392.3,188.2 388.6,176.15 a 0.16,0.17 82.1 0 1 0.16,-0.21 h 7.26 q 0.24,0 0.31,0.24 l 4.37,16.33 q 0.31,1.15 0.62,0 z"
     id="path60"
     style="stroke:none;fill:#4bdc83;fill-opacity:1" />
  <path
     fill="#92c33f"
     d="m 459.56,208.8 q 0.15,0 0.17,0 4.13,0.01 4.19,-4.13 0.2,-15.09 0.13,-28.22 0,-0.5 0.49,-0.5 l 6.78,0.01 q 0.51,0 0.51,0.51 c 0.12,10.09 0.28,19.92 -0.28,29.29 -0.61,10.17 -12.92,14 -20.08,7.76 q -3.86,-3.37 -3.92,-9.99 -0.14,-13.53 0,-27.17 0,-0.44 0.44,-0.44 l 6.83,0.02 q 0.51,0 0.51,0.51 -0.09,14.45 0.05,28.22 0.04,4.13 4.18,4.13 z"
     id="path61"
     style="stroke:none;fill:#4bdc83;fill-opacity:1" />
  <path
     fill="#92c33f"
     d="m 486.6,203.72 -0.02,11.77 q 0,0.29 -0.3,0.29 l -7.25,-0.01 a 0.28,0.28 0 0 1 -0.28,-0.28 l 0.01,-38.97 q 0,-0.49 0.49,-0.51 c 10.78,-0.43 21.39,-1 22.49,12.34 q 0.66,7.91 -4.77,12.5 -0.42,0.36 -0.2,0.87 l 6.04,13.78 a 0.19,0.19 0 0 1 -0.17,0.26 l -7.11,0.03 q -0.33,0 -0.46,-0.3 l -5.25,-11.89 q -0.25,-0.55 -0.85,-0.56 l -1.66,-0.02 q -0.71,-0.01 -0.71,0.7 z m -0.02,-19.91 0.02,11.54 a 0.35,0.35 0 0 0 0.35,0.35 l 2.76,-0.01 a 4.96,4.57 89.9 0 0 4.56,-4.97 v -2.32 a 4.96,4.57 89.9 0 0 -4.58,-4.95 l -2.76,0.01 a 0.35,0.35 0 0 0 -0.35,0.35 z"
     id="path62"
     style="stroke:none;fill:#4bdc83;fill-opacity:1" />
  <path
     fill="#92c33f"
     d="m 563.97,183.89 -0.01,31.51 a 0.38,0.38 0 0 1 -0.38,0.38 l -6.98,-0.01 a 0.38,0.38 0 0 1 -0.38,-0.38 l 0.01,-31.5 a 0.38,0.38 0 0 0 -0.38,-0.38 l -6.52,0.01 a 0.38,0.38 0 0 1 -0.38,-0.38 l 0.01,-6.82 a 0.38,0.38 0 0 1 0.38,-0.38 l 21.52,0.01 a 0.38,0.38 0 0 1 0.38,0.38 v 6.82 a 0.38,0.38 0 0 1 -0.38,0.38 l -6.51,-0.02 a 0.38,0.38 0 0 0 -0.38,0.38 z"
     id="path63"
     style="stroke:none;fill:#4bdc83;fill-opacity:1" />
  <path
     fill="#92c33f"
     d="m 614.6,203.71 -0.03,11.97 q 0,0.1 -0.09,0.1 l -7.17,-0.01 q -0.26,0 -0.26,-0.26 v -38.84 q 0,-0.78 0.77,-0.76 c 8.8,0.26 19.36,-1.63 21.62,10.12 q 1.81,9.41 -4.44,14.85 -0.43,0.37 -0.2,0.89 l 6.06,13.73 a 0.18,0.19 79.2 0 1 -0.18,0.26 h -7.26 q -0.22,0 -0.31,-0.2 l -5.3,-12.05 q -0.2,-0.44 -0.68,-0.45 l -1.81,-0.05 a 0.7,0.7 0 0 0 -0.72,0.7 z m 0.01,-19.82 -0.04,11.38 a 0.43,0.43 0 0 0 0.43,0.43 l 2.72,0.01 a 4.63,5.3 0.2 0 0 4.65,-5.29 v -1.64 a 4.63,5.3 0.2 0 0 -4.61,-5.31 l -2.72,-0.01 a 0.43,0.43 0 0 0 -0.43,0.43 z"
     id="path64"
     style="stroke:none;fill:#4bdc83;fill-opacity:1" />
  <path
     fill="#92c33f"
     d="m 647.19,192.66 4.44,-16.58 q 0.03,-0.13 0.17,-0.13 l 7.28,-0.02 q 0.29,0 0.2,0.27 -3.59,11.93 -7.39,23.45 c -1.7,5.18 -0.99,10.55 -1.08,15.8 q -0.01,0.31 -0.33,0.31 l -6.93,0.02 q -0.49,0 -0.5,-0.5 c -0.08,-5.04 0.61,-10.45 -1.03,-15.43 q -3.85,-11.73 -7.52,-23.72 -0.05,-0.17 0.12,-0.17 l 7.21,-0.02 q 0.33,0 0.42,0.32 l 4.41,16.4 q 0.26,0.99 0.53,0 z"
     id="path65"
     style="stroke:none;fill:#4bdc83;fill-opacity:1" />
  <path
     fill="#92c33f"
     d="m 705.27,192.54 4.39,-16.35 q 0.06,-0.25 0.32,-0.25 h 7.27 q 0.16,0 0.11,0.15 -3.83,12.74 -7.43,23.61 c -1.69,5.08 -0.98,10.39 -1.07,15.54 q -0.01,0.53 -0.53,0.53 h -6.75 q -0.49,0 -0.49,-0.49 c -0.05,-5.13 0.61,-10.52 -1.07,-15.62 q -3.93,-11.88 -7.43,-23.49 -0.07,-0.23 0.17,-0.23 l 7.24,0.01 q 0.22,0 0.28,0.22 l 4.4,16.38 q 0.3,1.09 0.59,-0.01 z"
     id="path66"
     style="stroke:none;fill:#4bdc83;fill-opacity:1" />
  <path
     fill="#92c33f"
     d="m 763.54,208.81 q 0.07,0 0.17,0 4.1,-0.02 4.16,-4.13 0.18,-14.25 0.1,-28.2 -0.01,-0.53 0.53,-0.54 h 6.6 a 0.56,0.56 0 0 1 0.56,0.56 q 0.01,13.33 -0.01,27.46 -0.01,7.26 -5.37,10.66 c -6.09,3.86 -14.76,1.8 -17.62,-5 q -1.2,-2.83 -1.14,-8.14 0.12,-13.06 0.01,-25.02 -0.01,-0.52 0.52,-0.52 h 6.73 a 0.49,0.49 0 0 1 0.48,0.49 q -0.12,12.93 0.11,28.3 0.06,4.11 4.17,4.08 z"
     id="path67"
     style="stroke:none;fill:#4bdc83;fill-opacity:1" />
  <path
     fill="#92c33f"
     d="m 790.6,203.72 -0.02,11.77 q 0,0.3 -0.3,0.3 l -7.25,-0.02 a 0.28,0.28 0 0 1 -0.28,-0.28 l 0.01,-38.95 q 0,-0.5 0.49,-0.53 7.75,-0.4 12.97,0.43 c 11.18,1.77 12.3,18.22 4.71,24.42 q -0.44,0.36 -0.21,0.88 l 6.06,13.77 a 0.15,0.14 77.9 0 1 -0.13,0.21 q -6.33,0.2 -7.53,-0.13 -0.08,-0.02 -0.11,-0.1 l -5.26,-11.98 a 0.78,0.78 0 0 0 -0.7,-0.47 l -1.75,-0.02 q -0.7,-0.01 -0.7,0.7 z m 0.02,-19.91 -0.06,11.52 a 0.35,0.35 0 0 0 0.35,0.35 l 2.69,0.02 a 4.62,4.92 0.3 0 0 4.64,-4.9 l 0.02,-2.38 a 4.62,4.92 0.3 0 0 -4.6,-4.94 l -2.69,-0.02 a 0.35,0.35 0 0 0 -0.35,0.35 z"
     id="path68"
     style="stroke:none;fill:#4bdc83;fill-opacity:1" />
  <path
     fill="#92c33f"
     d="m 872.54,211.22 h -8.29 a 0.35,0.35 0 0 0 -0.35,0.29 l -0.63,3.98 a 0.35,0.35 0 0 1 -0.35,0.3 l -7.05,-0.02 a 0.35,0.35 0 0 1 -0.34,-0.43 l 8.76,-39.12 a 0.35,0.35 0 0 1 0.34,-0.27 l 7.51,-0.01 a 0.35,0.35 0 0 1 0.34,0.27 l 8.8,39.13 a 0.35,0.35 0 0 1 -0.34,0.43 l -7.05,0.01 a 0.35,0.35 0 0 1 -0.35,-0.29 l -0.65,-3.98 a 0.35,0.35 0 0 0 -0.35,-0.29 z m -7.2,-7.78 q -0.09,0.49 0.41,0.49 l 5.1,0.02 q 0.66,0 0.55,-0.65 l -2.72,-15.82 q -0.24,-1.37 -0.48,0 z"
     id="path69"
     style="stroke:none;fill:#4bdc83;fill-opacity:1" />
  <path
     fill="#92c33f"
     d="m 904.28,198.79 -0.48,-22.32 q -0.01,-0.51 0.51,-0.51 h 6.84 q 0.39,0 0.39,0.4 v 38.9 q 0,0.53 -0.53,0.53 h -6.51 q -0.67,0 -0.92,-0.62 l -9.24,-22.52 q -0.4,-0.97 -0.38,0.08 l 0.49,22.72 q 0.01,0.34 -0.34,0.34 h -7.09 q -0.31,0 -0.31,-0.32 v -38.96 q 0,-0.55 0.55,-0.55 h 6.56 q 0.6,0 0.82,0.54 l 9.19,22.38 q 0.48,1.18 0.45,-0.09 z"
     id="path70"
     style="stroke:none;fill:#4bdc83;fill-opacity:1" />
  <path
     fill="#92c33f"
     d="m 929.75,198.96 4.52,-22.43 q 0.12,-0.59 0.72,-0.59 l 6.56,-0.02 a 0.47,0.48 6.4 0 1 0.46,0.58 l -8.59,38.73 q -0.12,0.54 -0.67,0.54 h -6.46 q -0.55,0 -0.67,-0.54 l -8.69,-39.01 a 0.22,0.22 0 0 1 0.22,-0.27 h 7.32 q 0.14,0 0.17,0.14 l 4.64,22.88 q 0.23,1.16 0.47,-0.01 z"
     id="path71"
     style="stroke:none;fill:#4bdc83;fill-opacity:1" />
  <path
     fill="#92c33f"
     d="m 957.89,211.22 h -8.15 a 0.41,0.41 0 0 0 -0.41,0.34 l -0.66,3.84 a 0.41,0.41 0 0 1 -0.4,0.34 l -6.92,0.06 a 0.41,0.41 0 0 1 -0.41,-0.5 l 8.77,-39.04 a 0.41,0.41 0 0 1 0.4,-0.32 h 7.41 a 0.41,0.41 0 0 1 0.4,0.32 l 8.77,39.04 a 0.41,0.41 0 0 1 -0.41,0.5 l -6.92,-0.06 a 0.41,0.41 0 0 1 -0.4,-0.34 l -0.66,-3.84 a 0.41,0.41 0 0 0 -0.41,-0.34 z m -3.87,-23.8 q -0.2,-1.12 -0.4,0 l -2.82,15.86 q -0.11,0.65 0.54,0.65 l 4.98,0.01 q 0.65,0 0.54,-0.63 z"
     id="path72"
     style="stroke:none;fill:#4bdc83;fill-opacity:1" />
  <path
     fill="#92c33f"
     d="m 674.3,205.48 -5.37,14.27 a 0.4,0.4 0 0 1 -0.38,0.26 l -5.76,0.03 a 0.4,0.4 0 0 1 -0.39,-0.48 l 2.93,-14.29 a 0.4,0.4 0 0 1 0.4,-0.32 l 8.19,-0.01 a 0.4,0.4 0 0 1 0.38,0.54 z"
     id="path79"
     style="stroke:none;fill:#4bdc83;fill-opacity:1" />
</svg>
