<?xml version="1.0" encoding="UTF-8" standalone="no"?>
<svg
   version="1.1"
   viewBox="0.00 0.00 454.00 450.00"
   id="svg111"
   sodipodi:docname="threekidslogo.svg"
   inkscape:version="1.3.2 (091e20e, 2023-11-25)"
   xmlns:inkscape="http://www.inkscape.org/namespaces/inkscape"
   xmlns:sodipodi="http://sodipodi.sourceforge.net/DTD/sodipodi-0.dtd"
   xmlns="http://www.w3.org/2000/svg"
   xmlns:svg="http://www.w3.org/2000/svg">
  <defs
     id="defs111">
    <linearGradient
       id="swatch147"
       inkscape:swatch="solid">
      <stop
         style="stop-color:#ffffff;stop-opacity:1;"
         offset="0"
         id="stop147" />
    </linearGradient>
  </defs>
  <sodipodi:namedview
     id="namedview111"
     pagecolor="#ffffff"
     bordercolor="#000000"
     borderopacity="0.25"
     inkscape:showpageshadow="2"
     inkscape:pageopacity="0.0"
     inkscape:pagecheckerboard="0"
     inkscape:deskcolor="#d1d1d1"
     inkscape:zoom="1.7350136"
     inkscape:cx="225.07029"
     inkscape:cy="209.50845"
     inkscape:window-width="1728"
     inkscape:window-height="1004"
     inkscape:window-x="651"
     inkscape:window-y="1118"
     inkscape:window-maximized="1"
     inkscape:current-layer="g146" />
  <g
     id="g146">
    <g
       id="g149"
       transform="rotate(10.9,91.109277,333.81583)">
      <ellipse
         style="fill:#f3f2f7;fill-opacity:1;stroke:none;stroke-opacity:1"
         id="path146"
         cx="166.4137"
         cy="62.198524"
         rx="28.878771"
         ry="28.240681"
         inkscape:label="path146" />
      <path
         id="path67"
         d="m 163.43945,12.539062 c -3.38641,0.586667 -7.31883,1.544479 -11.79883,2.871094 -6.21974,1.829948 -12.05072,4.759349 -18.73046,3.359375 -2.64,-0.559974 -4.75086,1.180287 -4.13086,3.990235 0.92,4.22987 0.87982,9.089947 -0.66992,13.089843 -0.56667,1.453307 -0.98024,2.91422 -1.24024,4.38086 -0.0939,0.550975 -0.46859,1.013006 -0.98828,1.21875 -2.19333,0.866641 -4.30847,1.910885 -6.3418,3.130859 -4.57308,2.726589 -9.66002,3.247162 -15.25976,1.560547 -1.41,-0.42 -2.83844,0.298698 -3.39844,1.638672 -0.12667,0.313333 -0.13222,0.631172 -0.0117,0.951172 1.21333,3.146588 1.86141,6.670416 1.94141,10.570312 0.05,2.289948 1.70898,3.729141 3.95898,3.619141 4.27333,-0.2 8.21985,-0.34612 11.83985,-0.439453 2.14641,-0.05333 4.28349,-0.60375 6.41015,-1.650391 0.27549,-0.136065 0.59281,0.08507 0.56055,0.390625 -0.73,7.689792 6.34047,13.86888 13.98047,12.128906 0.9553,-0.219185 1.43754,-1.289656 0.96875,-2.15039 -1.7,-3.129922 -2.69961,-7.329479 -1.84961,-10.859375 0.29333,-1.206641 0.48054,-2.403204 0.56054,-3.589844 0.0437,-0.704478 0.41898,-1.343998 1.00977,-1.720703 3.09,-1.989948 5.85961,-4.389974 9.09961,-6.169922 4.16,-2.289948 8.80039,-3.069557 13.40039,-4.269531 2.51333,-0.66 5.00094,-0.96349 7.46094,-0.910156 5.19308,0.113308 10.32201,0.06294 15.38867,-0.150391 0.40667,-0.02 0.76674,0.09823 1.08008,0.351562 4.44641,3.593255 7.22031,8.388828 8.32031,14.388672 0.06,0.333333 0.003,0.651172 -0.16992,0.951172 -0.34,0.566666 -0.80086,1.010104 -1.38086,1.330078 -4.71,2.569948 -8.86938,4.448516 -14.10938,4.478516 -0.41333,0 -0.74976,0.15737 -1.00976,0.470703 -0.91333,1.113307 -0.91068,2.193594 -0.01,3.240234 0.26667,0.313333 0.39224,0.673437 0.37891,1.080078 -0.11,2.689948 0.10086,5.160078 -1.11914,7.75 -1.31333,2.779948 -2.64357,5.402552 -3.99024,7.869141 -0.46517,0.860323 -1.67496,0.925999 -2.23046,0.121094 -2.12,-3.049922 -2.76008,-7.960963 -3.33008,-11.630859 -0.89,-5.63987 -13.13868,-2.579844 -16.63868,-2.089844 -7.08974,0.999974 -14.13088,3.991093 -20.89062,6.541015 -0.32,0.12 -0.63279,0.09945 -0.93945,-0.06055 -0.51334,-0.273308 -1.04628,-0.564452 -1.59961,-0.871093 -0.48667,-0.273333 -0.96188,-0.300028 -1.42188,-0.08008 -0.58,0.286641 -0.81565,0.753749 -0.70898,1.40039 0.11421,0.729364 0.54564,1.372933 1.17969,1.759766 6.61974,4.006563 10.81031,9.911145 12.57031,17.710937 0.25152,1.12892 -0.4182,2.258801 -1.5293,2.580081 -3.80641,1.1 -7.19659,2.3593 -10.16992,3.7793 -6.07974,2.89 -15.1919,2.88117 -21.18164,1.45117 -6.43974,-1.54 -11.988543,-3.87024 -16.648439,-6.990238 -3.029922,-2.029948 -5.371328,-4.640859 -8.28125,-6.800781 -0.63194,-0.468545 -1.017596,-1.19676 -1.048828,-1.980469 -0.14,-3.789896 -0.159843,-11.498516 -3.009765,-14.398438 -1.286641,-1.319948 -2.568515,-1.640911 -3.841797,-0.960937 -3.449922,1.849948 -2.31987,7.500078 -3.089844,10.5 C 70.677849,85.789812 70.183373,85.859129 70,85.529297 68.066719,82.122709 65.423567,78.98263 62.070312,76.109375 58.790416,73.309453 55.660755,71.230104 51.130859,71.830078 c -0.411746,0.05574 -0.714672,0.410129 -0.701171,0.820313 0.06,2.099948 0.544531,4.156665 1.451171,6.169921 1.72664,3.866588 3.278255,7.72375 4.658203,11.570313 0.2,0.553308 0.0085,0.785885 -0.578124,0.699219 -1.099974,-0.17 -2.110261,-0.689297 -3.240235,-0.779297 -2.553256,-0.186667 -4.827031,-0.597161 -6.820312,-1.230469 -1.509974,-0.479974 -3.261302,-0.349528 -4.78125,0.06055 -1.190274,0.324215 -1.784164,1.658351 -1.228516,2.759766 2.149948,4.26987 5.55862,4.829739 9.478516,6.679687 0.393308,0.186667 0.384086,0.347136 -0.0293,0.480469 -3.693255,1.20666 -7.213959,2.84374 -10.560547,4.91015 -0.946986,0.58657 -1.362493,1.74543 -1,2.78907 0.586641,1.68641 1.818125,2.60023 3.691406,2.74023 3.159922,0.23333 6.666302,-0.1031 10.519531,-1.00977 0.428442,-0.0974 0.777107,0.34752 0.580078,0.74024 -0.266641,0.52 -0.629869,0.94906 -1.089843,1.28906 -3.949896,2.98 -8.099583,6.86979 -9.769531,11.26953 -0.121117,0.32303 -0.09253,0.68527 0.07812,0.99024 2.009948,3.43974 6.79125,2.14015 9.451172,0.41015 3.099922,-2.00974 6.359297,-2.75851 9.699219,-4.22851 8.433653,-3.78077 -6.667977,17.4515 29.53125,20.10937 6.139844,0.38 12.199394,1.07024 18.119134,0.24024 1.78,-0.25 8.11,-1.96065 8.5,-4.40039 0.1131,-0.68502 -0.53696,-1.25001 -1.20898,-1.05078 -4.24,1.28974 -8.36065,2.44031 -12.90039,2.32031 -5.51989,-0.14667 -11.320545,-0.57263 -17.400389,-1.2793 -4.693204,-0.54667 -9.27987,-1.85326 -13.759766,-3.91992 -0.299974,-0.14 -0.50776,-0.36636 -0.621093,-0.67969 -0.693333,-1.9 -0.818881,-3.78088 -0.378907,-5.64062 2.039948,-8.62 5.533933,-17.26948 10.480469,-25.949219 0.246667,-0.433333 0.395886,-0.881823 0.449219,-1.341797 0.04667,-0.346667 0.204037,-0.406354 0.470703,-0.179688 8.333125,7.053084 17.682475,11.336274 28.048824,12.849604 3.97,0.57 8.24977,-0.0896 12.25977,-0.59961 3.77974,-0.49 6.69109,-2.54976 10.37109,-3.50976 3.24666,-0.85333 6.42883,-1.86263 9.54883,-3.0293 0.39333,-0.14667 0.57435,-0.42961 0.54101,-0.84961 -0.68641,-8.119765 -3.86288,-14.988381 -9.52929,-20.601558 -0.23109,-0.227662 -0.15268,-0.617634 0.14844,-0.738281 4.52641,-1.793307 8.88365,-3.507319 13.07031,-5.140626 2.73308,-1.066615 6.85296,-1.736432 12.35937,-2.009765 2.72,-0.13 5.76117,-0.780443 6.20117,2.939453 0.69334,5.859844 2.63055,11.130677 5.81055,15.810547 1.67,2.469922 2.95883,4.798776 6.04883,5.71875 1.18319,0.351034 1.71293,1.727573 1.07031,2.78125 -3.57308,5.84641 -6.88922,11.48994 -9.94922,16.92968 -4.07974,7.27 -5.48086,15.39065 -6.63086,23.65039 -0.44666,3.21334 0.51445,6.28852 2.88086,9.22852 5.18,6.41974 10.76987,12.92016 17.59961,17.16016 5.08,3.15308 9.95273,5.87374 14.61914,8.16015 0.70982,0.34465 0.94664,1.24014 0.5,1.89063 -1.48666,2.13333 -3.27916,4.21667 -5.3789,6.25 -0.36667,0.35333 -0.47675,0.28745 -0.33008,-0.19922 0.75,-2.63 0.72849,-8.52992 -3.78125,-7.91992 -2.16,0.29 -4.60922,-0.76063 -6.44922,0.60937 -1.55333,1.15333 -2.31573,2.62349 -2.28906,4.41016 0.0867,5.14641 2.9355,7.46255 8.54883,6.94922 0.81308,-0.0733 1.00054,0.23325 0.56054,0.91992 -2.92974,4.56974 -6.48078,10.49971 -8.30078,14.43945 -1.13333,2.44 -1.99341,5.37102 -2.58008,8.79102 -0.86,5.02974 1.14985,11.63096 3.58985,15.9707 3.22974,5.74 4.2008,12.36901 7.56054,17.96875 1.45334,2.42667 2.97104,4.87008 4.55078,7.33008 1.63,2.55 3.95844,4.43953 5.89844,6.76953 0.44,0.53333 0.39156,1.01164 -0.14844,1.43164 -1.23308,0.96667 -1.54302,2.0624 -0.92968,3.28906 0.48,0.96 1.14667,1.13597 2,0.5293 0.58666,-0.41333 0.99518,-0.98852 1.22851,-1.72852 0.18667,-0.60641 0.54055,-0.72489 1.06055,-0.35156 3.32666,2.41333 5.49049,5.51722 6.49023,9.31055 0.24667,0.92 0.80636,1.19364 1.67969,0.82031 l 0.30078,-0.11914 c 1.02,-0.43333 1.34519,-1.17714 0.97852,-2.23047 -1.44,-4.08641 -3.89606,-7.44674 -7.36914,-10.08008 -0.28,-0.20666 -0.29485,-0.42992 -0.041,-0.66992 4.06,-3.80974 8.99094,-5.82002 13.71094,-8.25976 4.04666,-2.09333 7.81412,-5.11389 11.30078,-9.06055 5.24,-5.93974 6.58867,-14.97112 5.63867,-22.88086 -0.19333,-1.6 -0.75327,-3.05891 -1.67968,-4.37891 -3.9,-5.55974 -8.35917,-11.01296 -13.37891,-16.35937 -3.18,-3.37 -6.81135,-5.76055 -10.62109,-8.31055 -4.22,-2.81974 -8.35063,-3.82093 -13.39063,-3.71093 -0.84183,0.0165 -1.26165,-1.01286 -0.64844,-1.58985 2,-1.9 3.73875,-4.09341 5.21875,-6.58008 0.2,-0.34666 0.50039,-0.48659 0.90039,-0.41992 l 1.1211,0.17969 c 2.51974,0.41333 2.96145,-0.35836 1.32812,-2.31836 -1.24,-1.48667 -2.92216,-2.75722 -5.04883,-3.81055 -0.70177,-0.34123 -0.82294,-1.29253 -0.23046,-1.81054 6.07307,-5.3 10.43961,-12.0925 13.09961,-20.37891 1.14974,-3.55 0.88946,-7.18102 -0.0195,-10.79102 -1.34641,-5.31974 -2.59666,-9.65668 -3.75,-13.00976 -0.76666,-2.24667 -2.66898,-4.8393 -5.70898,-7.7793 -3.29,-3.18 -7.59172,-4.44164 -11.26172,-6.93164 -3.92,-2.67 -8.68852,-3.22961 -13.22852,-3.09961 -0.43974,0.0133 -0.55317,-0.16883 -0.33984,-0.54883 0.89,-1.61 2.23914,-2.88117 3.11914,-4.45117 1.44,-2.55333 2.51094,-5.300308 3.21094,-8.24023 0.25533,-1.047142 -0.34391,-2.11319 -1.37109,-2.439453 l -6.81055,-2.140625 c -0.48667,-0.153333 -0.59169,-0.445574 -0.31836,-0.878907 0.98,-1.499948 2.09898,-2.799557 2.70898,-4.519531 1.08,-3.033255 2.22612,-6.124896 3.43946,-9.271484 0.47333,-1.239974 0.69039,-3.505598 0.65039,-6.798828 -0.007,-0.36 0.16,-0.597605 0.5,-0.710938 2.44,-0.779974 5.06953,-1.319036 7.26953,-2.708984 1.96,-1.226641 3.9476,-2.193725 5.96094,-2.900391 1.29974,-0.459974 2.44612,-1.183281 3.43945,-2.169922 2.08,-2.066614 4.74667,-3.384505 8,-3.951172 0.17566,-0.03067 0.33712,0.102966 0.33984,0.28125 0.02,1 -0.0757,1.970183 -0.28906,2.910157 -1.02667,4.526537 -1.92279,9.00315 -2.68945,13.429687 -0.91,5.23987 0.78836,11.369662 6.31836,13.34961 7.92974,2.839922 14.58135,0.309896 21.37109,-3.75 4.14,-2.459948 7.40961,-5.848959 11.34961,-8.628907 1.13333,-0.799974 1.96977,-1.800026 2.50977,-3 2.13974,-4.73987 3.30046,-9.108333 3.48046,-13.101562 0.0223,-0.495266 0.54411,-0.806071 0.99024,-0.589844 l 23.75976,11.611328 c 0.73743,0.361302 1.16926,1.148448 1.08008,1.96875 -0.0533,0.513333 0.006,1.013359 0.17969,1.5 0.11333,0.313333 0.31604,0.539688 0.60938,0.679688 0.94641,0.446641 1.83658,0.410599 2.66992,-0.109375 0.65333,-0.406667 1.27491,-0.362449 1.86132,0.130859 l 10.20899,8.580078 c 0.33001,0.269769 0.28881,0.786202 -0.0801,1 -2.2,1.313307 -4.28333,2.668386 -6.25,4.06836 -1.78,1.259948 -3.85922,1.791119 -5.69922,2.871093 -7.98641,4.673229 -13.93628,7.876067 -17.84961,9.609373 -2.69308,1.18666 -5.21078,2.47776 -7.55078,3.87109 -2.74666,1.64667 -6.00906,2.76914 -9.78906,3.36914 -1.38667,0.22 -2.27349,1.00295 -2.66016,2.34961 -0.0667,0.24 -0.0903,0.48381 -0.0703,0.73047 0.0628,0.7948 0.76744,1.38217 1.56055,1.30078 l 3.9082,-0.38086 c 0.35777,-0.0381 0.71623,0.0743 0.99024,0.31055 2.71974,2.33 4.28046,10.61 4.73046,14 0.93,6.94974 1.71,14.33055 1.75,21.31055 0.02,3.93308 0.13938,7.68333 0.35938,11.25 0.0733,1.21333 0.31094,2.45208 0.71094,3.71875 0.31333,1.01333 0.9769,1.36101 1.99023,1.04101 l 0.42969,-0.13086 c 1.19333,-0.38 1.52976,-1.1362 1.00976,-2.26953 -0.89333,-1.96666 -1.28635,-3.84419 -1.17968,-5.63086 0.0533,-0.85333 0.28898,-0.90682 0.70898,-0.16015 0.94,1.68 1.34008,3.51 2.58008,5 3.91974,4.70974 6.38156,9.77049 8.10156,15.74023 0.96,3.32666 2.05263,6.70135 3.2793,10.12109 2.87333,7.99333 5.18302,15.80638 6.92969,23.43946 0.51333,2.24 0.84976,5.17747 1.00976,8.81054 0.48,10.76974 -0.32883,21.46948 0.70117,32.19922 0.15,1.51 -0.0598,2.51922 -0.33984,3.94922 -0.1,0.53334 0.0318,0.99729 0.39844,1.39063 0.64666,0.69333 1.40791,0.96078 2.28125,0.80078 0.41315,-0.0747 0.70754,-0.44676 0.68945,-0.87109 L 282.56055,240 c -0.0267,-0.57333 0.17294,-0.66596 0.59961,-0.2793 0.58,0.52 1.08619,1.12503 1.51953,1.81836 3.61974,5.67 7.33969,11.53188 9.67969,17.67188 1.62974,4.29974 3.78992,8.25002 5.16992,12.75976 1.83,5.96 3.71,11.44868 5,17.63868 0.95333,4.55974 2.07156,9.0808 3.35156,13.56054 0.54,1.88 1.08922,3.50096 2.44922,4.9707 1.94666,2.1 3.75945,4.25232 5.43945,6.45899 0.47485,0.62913 0.50667,1.48768 0.0801,2.15039 -2.15,3.37 -3.79049,6.5193 -4.99023,10.5293 -3.38667,11.35307 -6.2293,20.62723 -8.5293,27.82031 -1.58,4.94974 -4.88946,9.59039 -7.68946,14.15039 -2.33974,3.82 -5.31976,7.09938 -8.25976,10.35938 -2.36,2.59974 -6.00125,3.30054 -9.03125,5.06054 -2.62,1.52 -5.26637,3.07969 -7.93945,4.67969 -1.71334,1.02667 -3.66605,1.79127 -5.85938,2.29101 -5.71308,1.32 -11.418,2.77891 -17.11133,4.37891 -0.76,0.21333 -1.27239,-0.0491 -1.53906,-0.78906 -0.55,-1.49 -2.01086,-1.81953 -3.13086,-2.76953 -5.70641,-4.81333 -10.00201,-8.98026 -12.88867,-12.5 -3.4,-4.12667 -6.88761,-8.31104 -10.46094,-12.55078 -1.09,-1.28 -2.46984,-2.80938 -2.08984,-4.60938 0.33333,-1.64 0.69341,-3.31172 1.08008,-5.01172 0.14018,-0.60888 -0.26399,-1.20931 -0.88086,-1.30859 l -1.50977,-0.24024 c -0.66666,-0.10666 -0.94341,-0.49349 -0.83008,-1.16015 2.99333,-18.23282 2.52628,-36.22766 -1.40039,-53.98047 -1.22666,-5.55333 -2.0662,-13.41987 -2.51953,-23.59961 -0.0333,-0.73333 -0.41706,-1.09961 -1.15039,-1.09961 h -0.53906 c -0.38983,4e-4 -0.70423,0.31919 -0.69922,0.70899 0.23333,11.25282 1.35891,21.46445 3.37891,30.63085 0.98641,4.43333 1.68627,10.52003 2.09961,18.25977 0.29308,5.49308 0.17705,10.77938 -0.34961,15.85938 -0.74,7.1464 -1.29969,14.19706 -1.67969,21.15039 -0.28,5.13974 -1.54946,10.28984 -2.43946,15.33984 -1.39974,7.91974 -4.80166,15.95018 -10.1914,21.91992 -1.56,1.72 -3.09604,3.77969 -4.60938,6.17969 -0.56666,0.9 -1.14405,0.9125 -1.73046,0.0312 -0.44,-0.65333 -0.9732,-1.19468 -1.59961,-1.62109 -6.37,-4.36 -12.04071,-10.07876 -16.47071,-16.71876 -4.54641,-6.8264 -7.21953,-11.13325 -8.01953,-12.91992 -3.59,-7.98974 -7.60008,-15.68065 -10.83008,-23.65039 -3.26974,-8.05974 -8.99916,-13.99096 -15.1289,-20.4707 -2.98667,-3.15333 -5.88809,-5.00216 -8.70117,-5.54883 -0.4,-0.0733 -0.56977,-0.31404 -0.50977,-0.7207 0.47333,-3.06 1.72049,-5.20302 3.74023,-6.42969 2.37,-1.44 4.38032,-2.55953 5.57032,-5.26953 0.81333,-1.84667 1.75364,-3.6769 2.82031,-5.49024 2.04,-3.47974 1.24914,-7.19119 1.86914,-10.96093 1.01,-6.14 1.81984,-11.30024 0.58984,-17.74024 -0.12666,-0.64 -0.51349,-0.94968 -1.16015,-0.92968 -0.28667,0.007 -0.55526,0.0663 -0.8086,0.17968 -0.82666,0.36667 -1.13015,0.988 -0.91015,1.86133 0.95333,3.76 1.1169,7.46271 0.49023,11.10938 -0.76,4.42641 -1.44411,8.45031 -2.05078,12.07031 -0.5,3 -1.86938,4.91047 -4.10938,5.73047 -0.34956,0.13108 -0.60949,0.42764 -0.6914,0.78906 -0.16,0.66667 -0.19604,1.36628 -0.10938,2.09961 0.0533,0.46 -0.0897,0.84372 -0.42968,1.15039 -1.36,1.23 -2.97026,2.09016 -4.25,3.41016 -2.62,2.69974 -5.75008,8.70922 -3.83008,12.44922 l 7.74995,2.3398 c 3.14641,2.98 6.36992,6.29164 9.66992,9.93164 2.29333,2.52666 4.17086,5.23558 5.63086,8.12891 4.76641,9.47307 9.29342,19.24723 13.58008,29.32031 0.90666,2.13333 2.10628,4.21667 3.59961,6.25 2.55308,3.47974 5.04518,6.9862 7.47851,10.51953 0.12477,0.19121 0.20121,0.4098 0.22266,0.63672 0.0122,0.009 0.0228,0.0203 0.0352,0.0293 0.61802,0.55842 1.18505,1.16625 1.73632,1.79102 0.39153,0.4371 0.78075,0.87634 1.16407,1.32031 0.11929,-0.031 0.24556,-0.0262 0.36328,0.0137 2.45974,2.21334 4.90651,4.50248 7.33984,6.86915 1.66,1.61308 3.51723,2.30984 5.57031,2.08984 0.39334,-0.04 0.70612,0.10302 0.93946,0.42969 l 0.33984,0.48047 c 0.68356,0.96607 2.11366,0.97631 2.81055,0.0195 l 4.26953,-5.85938 c 0.26,-0.36 0.61078,-0.56271 1.05078,-0.60937 4.17333,-0.49334 8.23302,-1.57667 12.17969,-3.25 3.84974,-1.62 5.03984,-2.80993 6.08984,-6.91993 0.15333,-0.57974 0.34055,-0.59224 0.56055,-0.0312 1.2,2.96974 1.71955,6.43148 5.77929,6.52148 3.86,0.0933 7.59566,-0.69466 11.20899,-2.36133 0.358,-0.15962 0.76712,0.0681 0.81055,0.45117 l 0.16992,1.58008 c 0.06,0.54667 0.36039,0.76992 0.90039,0.66992 3.89974,-0.72 7.63078,-0.34109 11.55078,-1.37109 5.22641,-1.36667 10.41218,-2.63722 15.55859,-3.81055 0.57061,-0.12563 1.11698,-0.33431 1.6211,-0.61914 l 16.22851,-9.05078 c 0.5998,-0.17274 1.24434,-0.1026 1.79492,0.19531 0.27006,-0.4331 0.61719,-0.875 1.0586,-1.3164 l 1.41015,-1.41016 c -0.1556,-0.31587 -0.15667,-0.63146 0.14649,-0.94727 4.47974,-4.69307 8.65507,-10.27667 12.52148,-16.75 3.73,-6.24974 5.26852,-13.4308 7.22852,-19.31054 2.22666,-6.70666 4.40458,-13.47437 6.53125,-20.30078 0.3368,-0.92169 1.18401,-1.56104 2.16601,-1.63477 -0.0679,-0.53636 -0.006,-1.09577 0.0566,-1.75976 0.074,-0.24335 0.17608,-0.46845 0.29102,-0.68555 -4.9e-4,-0.1289 -0.004,-0.25776 -0.004,-0.38672 -4.5e-4,-0.30503 6e-5,-0.611 0,-0.91602 -3e-5,-0.23316 0,-0.46606 0,-0.69921 -0.0307,-0.62951 0.14306,-1.0918 0.29493,-1.77344 0.97773,-1.56129 -0.62537,0.74414 0.95507,-1.51367 0.0572,-0.0503 -7.3e-4,0.002 0.0449,-0.0391 0.17961,-0.28696 0.39786,-0.54575 0.62109,-0.79882 0.0306,-0.0648 0.0627,-0.12883 0.0937,-0.19336 0.0702,-0.0948 0.15821,-0.17136 0.23633,-0.25782 0.0238,-0.0635 0.0913,-0.15953 0.12695,-0.22461 0.007,-0.29914 0.11624,-0.59721 0.16992,-0.89453 0.0193,-0.0666 0.0543,-0.12667 0.0781,-0.1914 -1.2402,-1.61604 -2.65307,-3.04871 -3.93164,-4.02149 -2.06,-1.57 -4.35057,-3.72955 -5.07031,-6.27929 -1.33334,-4.75333 -2.55659,-9.62272 -3.66993,-14.60938 -0.97,-4.37974 -2.52023,-8.5301 -3.74023,-12.83984 -1.45,-5.17 -3.72836,-9.56024 -5.56836,-14.49024 -2.80666,-7.53974 -6.59467,-14.68018 -11.36133,-21.41992 -0.83,-1.19 -2.32867,-1.59101 -3.63867,-0.79101 -0.23294,0.15068 -0.54015,-0.0245 -0.54102,-0.3086 0.0533,-4.61974 0.11922,-9.23848 0.19922,-13.85156 0.06,-3.96 -0.50883,-7.92844 -0.79883,-11.89844 -0.18,-2.52 -0.70364,-5.38343 -1.57031,-8.58984 -1.7,-6.31333 -3.64961,-12.23026 -5.84961,-17.75 -3.20974,-8.04974 -3.77002,-16.3811 -9.00976,-23.6211 -1.80667,-2.49308 -3.41985,-5.34411 -4.83985,-8.55078 -0.55333,-1.25333 -1.58823,-2.12581 -3.10156,-2.61914 -0.3895,-0.12671 -0.65757,-0.487 -0.66992,-0.90039 -0.18667,-5.97308 -0.65992,-12.00963 -1.41992,-18.10937 -1.06,-8.46 -1.54909,-15.2205 -5.54883,-22.24024 -0.13675,-0.23298 -0.0388,-0.5331 0.20898,-0.64062 3.43,-1.4 6.23112,-3.61844 9.63086,-4.89844 2.28667,-0.86 4.51018,-1.96388 6.66992,-3.31055 1.9,-1.179893 4.08071,-1.809711 5.97071,-2.929685 7.03974,-4.166563 14.68328,-8.368333 22.92968,-12.601563 1.08977,-0.558945 1.33952,-2.006677 0.5,-2.898437 -3.97307,-4.206562 -8.35111,-7.944374 -13.13085,-11.210937 -0.95334,-0.653333 -0.90889,-1.230495 0.13085,-1.730469 4.51333,-2.173281 8.88272,-4.643543 13.10938,-7.410157 1.10294,-0.721791 2.28487,-1.028018 3.4668,-1.390624 0.0113,-0.009 0.0141,-0.01318 0.0215,-0.01953 0.22229,-0.182747 0.45016,-0.343194 0.68555,-0.478515 10e-4,-0.01043 0.003,-0.02082 0.004,-0.03125 0.0718,-0.02896 0.14593,-0.04632 0.21875,-0.07031 0.45689,-0.228586 0.94082,-0.370641 1.46094,-0.404297 0.0564,-0.03386 0.11576,-0.04809 0.17188,-0.08398 1.84,-1.173307 3.74452,-2.203203 5.71093,-3.089844 1.42667,-0.639974 2.46271,-1.690417 3.10938,-3.150391 0.37074,-0.845485 0.13369,-1.834403 -0.58008,-2.419921 -5.6994,-4.629768 -10.96963,-2.070261 -17.10937,-0.320313 -0.46667,0.133333 -0.57055,-0.0035 -0.31055,-0.410156 1.94,-3.059922 5.21992,-8.21026 5.41992,-11.910156 0.02,-0.353333 -0.0932,-0.659948 -0.33984,-0.919922 -5.34,-5.46987 -10.95024,1.680416 -14.49024,5.070312 -0.74666,0.72 -0.94627,0.589349 -0.59961,-0.390625 1.3,-3.679896 2.5942,-7.296379 3.88086,-10.849609 0.68,-1.869948 1.27953,-4.559505 -0.23047,-6.189453 -3.32974,-3.579922 -7.12117,2.019921 -8.70117,4.339843 -1.8,2.653281 -3.61898,5.392162 -5.45898,8.21875 -0.55333,0.84 -0.81768,0.761693 -0.79102,-0.238281 0.0867,-3.159922 0.28848,-6.498464 0.60156,-10.011719 0.24,-2.749922 -1.40023,-4.150026 -2.99023,-6 -0.23624,-0.279964 -0.64484,-0.343089 -0.96094,-0.148437 -2.96974,1.879948 -4.27031,6.979844 -4.82031,10.259766 -0.46667,2.779922 -1.12208,5.446719 -1.96875,8 -0.14,0.439974 -0.3838,0.502761 -0.73047,0.189453 l -5.75976,-5.199219 c -0.25334,-0.226666 -0.53008,-0.264661 -0.83008,-0.111328 -1.91333,0.979974 -2.71992,2.375001 -2.41992,4.181641 0.56,3.353229 1.31929,6.87203 2.27929,10.558593 0.60667,2.319948 0.81443,4.64099 0.6211,6.960938 -0.0267,0.313308 -0.18714,0.41526 -0.48047,0.308593 -1.77333,-0.653307 -3.77979,-0.761457 -6.01953,-0.328124 -0.34479,0.06189 -0.6285,0.306678 -0.74024,0.638671 -0.62666,1.879948 -1.01969,3.787422 -1.17969,5.720703 -0.36974,4.379896 -2.40101,8.729297 -6.04101,11.699219 -1.68,1.373307 -3.31373,2.700495 -4.90039,3.980469 -3.63,2.909922 -12.73977,8.240677 -18.25977,7.220703 -2.06641,-0.386641 -4.34031,-1.264244 -6.82031,-2.630859 -2.49,-1.379974 -2.79875,-5.430156 -2.46875,-7.830078 0.59333,-4.306563 1.60263,-9.413802 3.0293,-15.320313 0.42666,-1.786615 0.5162,-3.506874 0.26953,-5.160156 -0.12188,-0.779274 -0.86316,-1.304096 -1.63867,-1.160156 -2.44,0.466641 -4.71365,1.153881 -6.82032,2.060547 -0.93308,0.399974 -1.11744,0.176718 -0.55078,-0.669922 2.99,-4.439896 3.20068,-10.869636 -3.28906,-11.84961 -0.11333,-0.01333 -0.21721,-0.04628 -0.31055,-0.09961 -0.08,-0.04667 -0.12729,-0.120703 -0.14062,-0.220703 -0.02,-0.18 0.0602,-0.286979 0.24023,-0.320313 6.32,-0.969974 18.66985,-4.679817 19.08985,-12.349609 0.14666,-2.686589 0.14931,-5.273152 -0.01,-7.759766 -0.0657,-1.074373 -1.39014,-1.541311 -2.09961,-0.740234 -0.98,1.08664 -2.11062,1.866511 -3.39062,2.339844 -5.87333,2.139922 -11.35279,3.592709 -16.43946,4.359375 -3.30974,0.489974 -7.33963,-1.01836 -11.10937,-0.81836 -2.63,0.14 -5.03039,1.089089 -7.15039,-1.130859 -3.43333,-3.586588 -6.19769,-7.130938 -8.29102,-10.63086 -1.11,-1.869948 -3.17961,-3.129974 -5.34961,-2.75 z m -0.51953,3.820313 c 0.98189,-0.302184 2.04868,0.02707 2.68946,0.830078 l 10.54101,13.201172 c 0.52753,0.664725 1.36319,1.009042 2.20899,0.910156 4.14641,-0.473308 8.34033,-0.368306 12.58007,0.31836 1.04667,0.173308 2.07961,0.184558 3.09961,0.03125 5.87333,-0.886641 11.96818,-2.520443 18.28125,-4.900391 0.88,-0.326666 1.38,-0.02318 1.5,0.910156 0.34,2.649948 -1.16109,4.870261 -3.37109,6.240235 -4.18666,2.599922 -7.78265,4.120547 -10.78906,4.560547 -3.21333,0.466641 -8.73414,0.988359 -16.56055,1.568359 -3.07333,0.233333 -6.11893,0.263252 -9.13867,0.08984 -8.44974,-0.48 -16.01073,1.711562 -24.23047,4.521484 -3.94,1.349974 -6.56016,4.369349 -10.16016,6.279297 -6.46641,3.43323 -12.62119,5.950833 -18.46093,7.550781 -3.62667,0.999974 -8.06194,1.369375 -13.3086,1.109375 -1.25333,-0.06 -1.93435,-0.717396 -2.04101,-1.970703 l -0.58985,-7.089844 c -0.06,-0.739974 0.27643,-1.062083 1.00977,-0.96875 1.55333,0.186667 3.01729,0.375026 4.39062,0.56836 4.24,0.619974 9.56946,-1.829193 13.43946,-4.119141 0.65308,-0.386666 0.90023,-0.210677 0.74023,0.529297 l -1.19922,5.650391 c -0.25333,1.2 0.22922,1.851171 1.44922,1.951171 l 0.7207,0.05859 c 1.15334,0.09333 1.74287,-0.436536 1.76953,-1.589844 0.14,-6.539818 2.61055,-12.409218 4.56055,-18.539062 1.18,-3.689896 0.55977,-7.19151 0.25977,-10.941406 -0.0333,-0.433333 0.16033,-0.606198 0.58007,-0.519532 3.85333,0.773333 7.94622,0.35664 12.2793,-1.25 2.53,-0.949974 4.55055,-2.259947 7.31055,-2.669921 3.68,-0.54 7.15971,-1.313672 10.43945,-2.320313 z m 105.07227,9.705078 c 0.245,0.03 0.39703,0.803125 0.45703,2.316406 0.08,1.919948 0.002,3.786328 -0.23828,5.59961 -0.46,3.499896 0.38922,6.799869 0.44922,10.259765 0.007,0.432844 0.12357,0.85643 0.33984,1.230469 0.77333,1.333307 1.66016,1.962005 2.66016,1.888672 1.00666,-0.07333 1.5458,-0.615599 1.61914,-1.628906 0.45,-6.139844 3.77109,-10.610755 6.87109,-15.390625 0.62667,-0.959974 1.42706,-1.8325 2.40039,-2.619141 0.35333,-0.286666 0.71961,-0.214558 1.09961,0.21875 0.19333,0.218415 0.26116,0.520712 0.17969,0.800781 -1.41333,5.213203 -3.07381,10.192892 -4.98047,14.939454 -0.33333,0.833307 -0.56899,1.687239 -0.70899,2.560546 -0.42974,2.709948 -1.76046,4.630052 1.01954,6.75 0.36883,0.275318 0.8958,0.1622 1.11914,-0.240234 2.18641,-4.019896 5.31109,-8.043775 9.37109,-12.070312 1.08,-1.066641 2.3362,-1.602709 3.76953,-1.609376 0.51695,-0.0024 0.88726,0.49466 0.73047,0.980469 -2.03,6.659844 -7.18018,12.509505 -12.16992,17.109375 -0.7,0.65 -0.46944,1.680104 0.0703,2.330078 0.50561,0.610517 1.34725,0.817947 2.06836,0.509766 3.99,-1.719948 6.82143,-5.240964 10.95117,-6.460938 0.30849,0.312068 8.5697,0.840938 -0.0508,5.621094 -3.52,2.439948 -7.26971,4.620339 -11.18945,6.320313 -1.74667,0.759974 -3.34745,1.739479 -4.80078,2.939453 -0.31334,0.26 -0.64357,0.286694 -0.99024,0.08008 -6.16641,-3.706563 -12.58979,-7.02263 -19.26953,-9.949219 -0.56666,-0.253308 -0.88565,-0.687473 -0.95898,-1.300781 l -0.45117,-3.820312 c -0.0429,-0.357517 -2.21584,-0.326184 -1.85588,-0.316558 4.48358,0.07431 3.82717,-3.338866 7.75653,-4.233132 0.28146,-0.06385 0.48321,-0.306846 0.48997,-0.590936 0.18667,-6.773151 1.2638,-13.470025 3.23047,-20.089843 0.43,-1.453307 0.76672,-2.164766 1.01172,-2.134766 z m -13.30078,12.986328 c 0.12084,-0.07561 0.27602,-0.06781 0.38867,0.01953 l 2.17969,1.730469 c 0.0384,0.03257 0.0691,0.07327 0.0898,0.119141 l 1.88086,3.669922 c 0.0365,0.071 0.0469,0.152596 0.0293,0.230468 l -2.16016,6.080044 c -0.0707,0.374848 0.0597,0.377027 0,0 L 254.53902,39.41012 c -0.0299,-0.139914 0.031,-0.283569 0.15235,-0.359375 z m -62.25196,3.509766 c 0.24639,0.101198 0.28617,0.433571 0.0703,0.589844 -0.14667,0.09333 -0.31024,0.156119 -0.49024,0.189453 -0.38117,0.0692 -0.6119,-0.405918 -0.33008,-0.679688 0.20667,-0.18 0.45667,-0.212917 0.75,-0.09961 z m 4.32032,2.580078 c 0.15691,-0.07354 0.34155,-0.05477 0.48046,0.04883 l 3.32032,2.429688 c 0.16773,0.124675 0.23299,0.345128 0.16015,0.541015 l -2.23047,5.919922 c -0.14725,0.370126 -0.65932,0.400739 -0.84961,0.05078 l -3.67968,-7.091797 c -0.1218,-0.233815 -0.0275,-0.522074 0.20898,-0.638671 z m 108.07031,6.40625 c 0.2111,-0.01494 0.43216,0.01633 0.65234,0.0957 0.4407,0.159479 1.63235,0.0677 1.63235,0.0677 l -1.60176,0.785415 c 0.12333,0.201819 1.19793,0.649361 0.99681,0.773839 -0.94184,0.755454 -1.86957,1.209003 -2.81055,1.210938 l -0.0586,-0.09961 c -0.55928,-0.917353 -0.41612,-2.026591 0.32032,-2.480468 l -0.33961,-1.340807 c 0.1776,-0.107523 0.99764,1.002227 1.20875,0.987291 z m -169.65039,5.423828 c 0.26666,-0.06667 0.39109,0.03526 0.37109,0.308594 -0.0267,0.246666 -0.0832,0.478073 -0.16992,0.691406 -0.42667,1.033307 -1.17357,1.199974 -2.24024,0.5 -0.18476,-0.120041 -0.19567,-0.386635 -0.0215,-0.521484 0.62,-0.473333 1.30721,-0.798516 2.06055,-0.978516 z M 299.90234,60.3125 c -0.15344,0.07832 -0.34178,0.182636 -0.52148,0.28125 0.1689,-0.05289 0.33738,-0.106023 0.50586,-0.164062 0.004,-0.0391 0.0113,-0.07808 0.0156,-0.117188 z m -167.73242,1.177734 c 1.61333,0.266667 2.57419,1.203932 2.88086,2.810547 L 136,69.240234 c 0.0719,0.384816 -0.2501,0.726726 -0.63086,0.669922 -3.1,-0.453308 -5.22867,-2.182864 -6.38867,-5.189453 -0.57333,-1.479948 -0.12037,-2.497473 1.35937,-3.050781 0.59334,-0.226667 1.20342,-0.286354 1.83008,-0.179688 z M 54.550781,74.580078 C 61.840599,76.560026 67.580156,86 70.080078,92.589844 c 0.113333,0.306641 0.309844,0.53612 0.589844,0.689453 0.513308,0.28 1.01026,0.321068 1.490234,0.121094 0.36,-0.153334 0.565808,-0.423906 0.619141,-0.810547 l 1.919922,-13.470703 c 0.06101,-0.441752 0.483364,-0.739459 0.919922,-0.648438 0.506641,0.106667 0.818307,0.413281 0.93164,0.919922 0.7,3.233255 1.194973,6.319844 1.488281,9.259766 0.213334,2.139922 0.02497,4.872655 -0.568359,8.199218 -0.439974,2.433281 -1.198177,4.817061 -2.271484,7.150391 -1.319974,2.86666 -2.519636,5.77714 -3.59961,8.73047 -0.24773,0.67746 -0.953098,1.07246 -1.660156,0.92969 -2.306614,-0.46667 -4.539271,-0.19922 -6.699219,0.80078 -3.17323,1.46 -6.357526,2.70495 -9.550781,3.73828 -2.649922,0.86 -4.438984,2.7707 -7.128906,3.4707 -1.146641,0.3 -1.443958,-0.0775 -0.890625,-1.13086 0.899974,-1.69333 2.110911,-3.13169 3.630859,-4.31836 3.126589,-2.42641 5.992996,-5.19127 8.59961,-8.29101 0.554211,-0.65396 0.215487,-1.66268 -0.621094,-1.84961 -1.589974,-0.37 -3.409583,-0.66063 -5.019531,-0.39063 -3.193256,0.53334 -6.485652,0.87792 -9.878907,1.03125 -0.143681,0.006 -0.286818,-0.0329 -0.410156,-0.11132 -0.999974,-0.62 -0.919739,-1.16844 0.240235,-1.64844 2.559922,-1.05 5.119687,-2.17133 7.849609,-2.61133 2.219948,-0.35 7.199583,-0.81969 8.769531,-2.17969 0.740485,-0.635389 0.681871,-1.800981 -0.11914,-2.369139 -1.626641,-1.14664 -3.504245,-1.43776 -5.63086,-0.871093 -0.393308,0.106641 -0.777083,0.07682 -1.15039,-0.08984 -2.449948,-1.139974 -6.829193,-2.359193 -8.369141,-4.619141 -0.546666,-0.806641 -0.347031,-1.094661 0.599609,-0.861328 3.553255,0.893307 7.21698,1.690651 10.990235,2.390625 2.433256,0.46 4.51052,1.579427 6.230468,3.359375 0.433786,0.457602 1.15816,0.471667 1.609375,0.03125 0.36,-0.346666 0.517345,-0.828099 0.470704,-1.441406 -0.16,-2.119948 -3.231433,-4.090052 -4.191407,-6.25 -1.806615,-4.059928 -3.529948,-8.089948 -5.169922,-12.089844 -0.253308,-0.613308 -0.423099,-1.259479 -0.509765,-1.939453 -0.0688,-0.547391 0.436698,-0.989177 0.960937,-0.839844 z M 176.83984,112.44922 c 4.33333,-0.18667 7.97636,0.49745 10.92969,2.05078 6.63974,3.49 14.75016,7.01112 17.41016,14.88086 1.88,5.53974 3.1269,10.34179 3.74023,14.4082 0.33333,2.19333 0.0535,4.53172 -0.83984,7.01172 -2.78,7.74641 -7.43763,14.20893 -13.9707,19.38867 -0.27334,0.21334 -0.55938,0.23958 -0.85938,0.0801 -7.82974,-4.12974 -14.21987,-7.77969 -20.09961,-14.17969 -3.26666,-3.55308 -5.95388,-6.92916 -8.06055,-10.1289 -0.24,-0.36667 -0.35937,-0.77094 -0.35937,-1.21094 0.0333,-10.97307 2.83373,-20.917 8.40039,-29.83008 0.82,-1.31 2.12924,-2.4007 3.70898,-2.4707 z m -108.628902,4.7168 c 0.487668,0.035 0.784087,0.15932 0.824218,0.3457 0.08344,0.389 -0.949558,0.93654 -2.30664,1.22266 -1.357691,0.28616 -2.52477,0.20218 -2.605469,-0.1875 -0.07894,-0.3892 0.953954,-0.93535 2.308594,-1.22071 0.650758,-0.13727 1.290712,-0.19487 1.779297,-0.16015 z m 115.902342,62.58789 2.87305,0.20117 c 0.81553,0.0571 1.43025,0.76456 1.37305,1.58008 l -0.0918,1.3164 c -0.0571,0.81553 -0.76456,1.43033 -1.58008,1.37305 l -2.87305,-0.20117 c -0.81472,-0.0571 -1.42919,-0.76335 -1.37304,-1.57813 l 0.0918,-1.31836 c 0.0571,-0.81553 0.76456,-1.43032 1.58008,-1.37304 z m 15.375,11.39453 c 2.14375,0.1325 4.27117,0.74687 5.95117,1.67187 10.12974,5.59 16.80026,14.06909 23.5,23.29883 1.51,2.08 2.54993,4.57018 2.66993,7.16992 0.51974,11.12974 -5.08034,20.8719 -15.08008,25.68164 -3.02,1.45334 -5.99946,3.00683 -8.93946,4.66016 -1.99974,1.13 -3.64914,2.88924 -5.36914,4.45898 -0.32666,0.3 -0.6507,0.3029 -0.9707,-0.01 -5.76974,-5.59 -10.88039,-12.71946 -13.40039,-20.43946 -1.33,-4.08974 -2.93969,-7.61156 -4.92969,-11.35156 -2.9,-5.42641 -3.52752,-11.34669 -1.88086,-17.75976 1.17,-4.51 4.06055,-8.50969 6.31055,-12.67969 0.48097,-0.88406 1.28962,-1.5418 2.25,-1.83008 1.36,-0.40667 2.63984,-0.95706 3.83984,-1.65039 1.745,-1.005 3.90508,-1.3532 6.04883,-1.2207 z m 153.15625,93.2207 c 0.034,0.18026 0.0841,0.36078 0.11719,0.54102 0.0173,0.002 0.0234,0.002 0.041,0.004 -0.0188,-0.12922 -0.041,-0.25775 -0.0605,-0.38672 -0.0326,-0.0527 -0.0651,-0.10548 -0.0977,-0.1582 z m -33.69726,30.38672 c -0.0554,0.0891 -0.1146,0.1761 -0.16602,0.26758 -0.042,0.0748 -0.1197,0.32014 -0.0801,0.24414 0.0878,-0.16769 0.165,-0.34064 0.2461,-0.51172 z m -210.61915,13.90039 c 0.085,0.22951 0.17371,0.45767 0.25782,0.6875 -0.0491,-0.22751 -0.10476,-0.45419 -0.1543,-0.68164 -0.0344,-0.002 -0.0694,-0.004 -0.10352,-0.006 z m 105.73633,38.94531 c 0.11667,-0.0217 0.25292,0.0552 0.40625,0.22852 l 5.18946,5.95898 c 0.71187,0.81419 1.03977,1.89605 0.90039,2.97071 -0.42,3.25308 -0.83977,6.50953 -1.25977,9.76953 -0.10667,0.81333 -0.31443,0.83932 -0.62109,0.0801 -1.62667,-4.02667 -3.28714,-8.02693 -4.98047,-12 -0.86,-2.02 -0.8361,-4.23511 0.0703,-6.64844 0.08,-0.21667 0.17826,-0.33771 0.29492,-0.35938 z m 9.89063,11.32813 c 0.11,-0.0233 0.2412,0.0569 0.39453,0.24023 4.03333,4.78 8.29794,9.38104 12.79101,13.80078 0.40923,0.40635 0.29665,1.09478 -0.2207,1.34961 -2.41,1.19 -10.92992,3.57891 -12.41992,0.12891 -2.06666,-4.78 -2.33721,-9.8256 -0.81055,-15.13867 0.0667,-0.23 0.15563,-0.35753 0.26563,-0.38086 z m -12.38477,1.70703 c 0.22667,-0.0117 0.47047,0.28901 0.73047,0.90234 l 3.89844,9.23047 c 0.19333,0.46 0.17264,0.91466 -0.0684,1.36133 -1.08,2 -2.36135,4.56969 -4.87109,4.92969 -0.3908,0.0587 -0.72673,-0.28213 -0.66993,-0.67969 0.42,-2.69 -0.0402,-4.64039 -1.16015,-6.90039 -0.27334,-0.56 -0.32373,-1.18468 -0.15039,-1.87109 0.51333,-2.00667 1.06682,-4.00692 1.66015,-6 0.19334,-0.63667 0.4042,-0.96099 0.63086,-0.97266 z"
         sodipodi:nodetypes="ccccccccccccccccccccccccccccccccccccccccccccccccccccccccccccccccccccccccccccccccccccccccccccccccccccccccccccccccccccccccccsccccccccccccccccccccccccccccccccccccccccccccccccccscccccccccccccccccccccccccccccccccccccccccccccccccccccccccccccccccccsccccccccccccccccccccccccccccccccccccccccccccccccccccccccccccccccscccccccccscccccccccccccccccccccccccccccccccccccccccccccccccccccccccccccccccccccccccccccccccccccccccccccccccsccccccccccccccccccccccccccccccssscccccccccccccccsccccccccccccccccsscccccccccccscccsscccccccccccsccccccccsccccsssccsscccccccsccccccccccsccccccccccccccccccccccccccsssccccccccccsscccccccsccccccscccccccccccccccccccccscsscsssccsscccccccsscsccccssccccccccssc" />
      <path
         fill="#f3f2f7"
         d="m 125,54.13 0.72,0.06 q 1.73,0.14 1.77,-1.59 c 0.14,-6.54 2.61,-12.41 4.56,-18.54 1.18,-3.69 0.56,-7.19 0.26,-10.94 q -0.05,-0.65 0.58,-0.52 5.78,1.16 12.28,-1.25 c 2.53,-0.95 4.55,-2.26 7.31,-2.67 q 5.52,-0.81 10.44,-2.32 a 2.5,2.5 0 0 1 2.69,0.83 l 10.54,13.2 a 2.46,2.45 -22.5 0 0 2.21,0.91 q 6.22,-0.71 12.58,0.32 1.57,0.26 3.1,0.03 8.81,-1.33 18.28,-4.9 1.32,-0.49 1.5,0.91 c 0.34,2.65 -1.16,4.87 -3.37,6.24 q -6.28,3.9 -10.79,4.56 -4.82,0.7 -16.56,1.57 -4.61,0.35 -9.14,0.09 c -8.45,-0.48 -16.01,1.71 -24.23,4.52 -3.94,1.35 -6.56,4.37 -10.16,6.28 q -9.7,5.15 -18.46,7.55 -5.44,1.5 -13.31,1.11 -1.88,-0.09 -2.04,-1.97 l -0.59,-7.09 q -0.09,-1.11 1.01,-0.97 2.33,0.28 4.39,0.57 c 4.24,0.62 9.57,-1.83 13.44,-4.12 q 0.98,-0.58 0.74,0.53 l -1.2,5.65 q -0.38,1.8 1.45,1.95 z"
         id="path68" />
      <path
         fill="#f3f2f7"
         d="m 280.28,52.75 c 2.18667,-4.02 5.31,-8.043333 9.37,-12.07 1.08,-1.066667 2.33667,-1.603333 3.77,-1.61 0.51648,-0.002 0.88632,0.494523 0.73,0.98 -2.03,6.66 -7.18,12.51 -12.17,17.11 -0.7,0.65 -0.47,1.68 0.07,2.33 0.5058,0.611355 1.3484,0.818952 2.07,0.51 3.99,-1.72 6.82,-5.24 10.95,-6.46 0.52,-0.16 9.74172,-6.34666 11.14378,-3.167942 -1.44604,-1.138257 1.72685,-0.276638 1.51365,2.090853 0.87574,0.102795 -12.1849,6.338462 -12.70743,6.697089 -3.52,2.44 -7.27,4.62 -11.19,6.32 -1.74667,0.76 -3.34667,1.74 -4.8,2.94 -0.31333,0.26 -0.64333,0.286667 -0.99,0.08 -6.16667,-3.706667 -12.59,-7.023333 -19.27,-9.95 -0.56667,-0.253333 -0.88667,-0.686667 -0.96,-1.3 l -0.45,-3.82 c -0.0427,-0.356818 -0.35992,-0.009 -6.5e-4,-3.1e-4 0.56659,0.0094 -1.94043,-8.462653 -1.53935,-8.27469 2.4408,1.143865 3.17774,6.394632 2.47,-2.4 0.7,-0.5 4.00333,6.345 4.97,6.125 0.28073,-0.06377 0.48244,-0.306652 0.49,-0.59 0.18667,-6.773333 1.26333,-13.47 3.23,-20.09 0.86,-2.906667 1.35,-2.846667 1.47,0.18 0.08,1.92 0,3.786667 -0.24,5.6 -0.46,3.5 0.39,6.8 0.45,10.26 0.007,0.432698 0.12375,0.856114 0.34,1.23 0.77333,1.333333 1.66,1.963333 2.66,1.89 1.00667,-0.07333 1.54667,-0.616667 1.62,-1.63 0.45,-6.14 3.77,-10.61 6.87,-15.39 0.62667,-0.96 1.42667,-1.833333 2.4,-2.62 0.35333,-0.286667 0.72,-0.213333 1.1,0.22 0.19316,0.218183 0.2611,0.520108 0.18,0.8 -1.41333,5.213333 -3.07333,10.193333 -4.98,14.94 -0.33333,0.833333 -0.57,1.686667 -0.71,2.56 -0.43,2.71 -1.76,4.63 1.02,6.75 0.3689,0.276032 0.8966,0.162955 1.12,-0.24 z"
         id="path69"
         sodipodi:nodetypes="ccccccccccccccccccscccccccccccccccccc" />
      <path
         fill="#f3f2f7"
         d="m 257.1,50.9 -2.56,-11.49 a 0.34,0.34 0 0 1 0.54,-0.34 l 2.18,1.73 a 0.34,0.34 0 0 1 0.09,0.12 l 1.88,3.67 a 0.34,0.34 0 0 1 0.03,0.23 l -1.49,6.09 A 0.34,0.34 0 0 1 257.1,50.9 Z"
         id="path70" />
      <path
         fill="#eeefe2"
         d="m 191.69,42.66 q 0.31,-0.27 0.75,-0.1 a 0.34,0.34 0 0 1 0.07,0.59 q -0.22,0.14 -0.49,0.19 a 0.4,0.39 -71.2 0 1 -0.33,-0.68 z"
         id="path71" />
      <ellipse
         fill="#131312"
         cx="0"
         cy="0"
         transform="rotate(127.1,75.802287,68.698938)"
         rx="5.0799999"
         ry="3.99"
         id="ellipse71" />
      <path
         fill="#f3f2f7"
         d="m 197.64,54.13 -3.68,-7.09 a 0.47,0.47 0 0 1 0.21,-0.64 l 2.59,-1.26 a 0.47,0.47 0 0 1 0.48,0.05 l 3.32,2.43 a 0.47,0.47 0 0 1 0.16,0.54 l -2.23,5.92 a 0.47,0.47 0 0 1 -0.85,0.05 z"
         id="path72" />
      <path
         fill="#f3f2f7"
         d="m 304.29,54.62 a 0.43,0.43 0 0 1 -0.59,-0.14 l -0.06,-0.1 a 1.95,1.57 58.7 0 1 0.32,-2.48 l 0.28,-0.17 a 1.95,1.57 58.7 0 1 2.35,0.85 l 0.06,0.1 a 0.43,0.43 0 0 1 -0.14,0.59 z"
         id="path73" />
      <ellipse
         fill="#131312"
         cx="0"
         cy="0"
         transform="rotate(70.9,34.171951,134.47258)"
         rx="5.9200001"
         ry="4.6599998"
         id="ellipse73" />
      <path
         fill="#eeefe2"
         d="m 135.18,56.97 q 0.4,-0.1 0.37,0.31 -0.04,0.37 -0.17,0.69 -0.64,1.55 -2.24,0.5 a 0.32,0.32 0 0 1 -0.02,-0.52 q 0.93,-0.71 2.06,-0.98 z"
         id="path74" />
      <path
         fill="#f3f2f7"
         d="m 216.53,356.48 -1.51,-0.24 c -0.66667,-0.10667 -0.94333,-0.49333 -0.83,-1.16 2.99333,-18.23333 2.52667,-36.22667 -1.4,-53.98 -1.22667,-5.55333 -2.06667,-13.42 -2.52,-23.6 -0.0333,-0.73333 -0.41667,-1.1 -1.15,-1.1 h -0.54 c -0.39054,-4e-5 -0.70558,0.3195 -0.7,0.71 0.23333,11.25333 1.36,21.46333 3.38,30.63 0.98667,4.43333 1.68667,10.52 2.1,18.26 0.29333,5.49333 0.17667,10.78 -0.35,15.86 -0.74,7.14667 -1.3,14.19667 -1.68,21.15 -0.28,5.14 -1.55,10.29 -2.44,15.34 -1.4,7.92 -4.8,15.95 -10.19,21.92 -1.56,1.72 -3.09667,3.78 -4.61,6.18 -0.56667,0.9 -1.14333,0.91 -1.73,0.03 -0.44,-0.65333 -0.97333,-1.19333 -1.6,-1.62 -6.37,-4.36 -12.04,-10.08 -16.47,-16.72 -4.54667,-6.82667 -7.22,-11.13333 -8.02,-12.92 -3.59,-7.99 -7.6,-15.68 -10.83,-23.65 -3.27,-8.06 -9,-13.99 -15.13,-20.47 -2.98667,-3.15333 -5.88667,-5.00333 -8.7,-5.55 -0.4,-0.0733 -0.57,-0.31333 -0.51,-0.72 0.47333,-3.06 1.72,-5.20333 3.74,-6.43 2.37,-1.44 4.38,-2.56 5.57,-5.27 0.81333,-1.84667 1.75333,-3.67667 2.82,-5.49 2.04,-3.48 1.25,-7.19 1.87,-10.96 3.25017,-22.62816 -5.29825,-47.4211 -9.72,-69.71 -1.08961,-47.21894 -14.28663,-83.68479 -18.29,-92.06 0.11276,-0.68528 -0.53799,-1.24998 -1.21,-1.05 -4.24,1.29 -8.36,2.44 -12.9,2.32 -5.52,-0.14667 -11.32,-0.57333 -17.4,-1.28 -4.693333,-0.54667 -9.28,-1.85333 -13.76,-3.92 -0.3,-0.14 -0.506667,-0.36667 -0.62,-0.68 -0.693333,-1.9 -0.82,-3.78 -0.38,-5.64 2.04,-8.62 5.533333,-17.27 10.48,-25.95 0.246667,-0.433333 0.396667,-0.88 0.45,-1.34 0.04667,-0.346667 0.203333,-0.406667 0.47,-0.18 8.333333,7.05333 17.683333,11.33667 28.05,12.85 3.97,0.57 8.25,-0.09 12.26,-0.6 3.78,-0.49 6.69,-2.55 10.37,-3.51 3.24667,-0.85333 6.43,-1.86333 9.55,-3.03 0.39333,-0.14667 0.57333,-0.43 0.54,-0.85 -0.68667,-8.12 -3.86333,-14.986667 -9.53,-20.6 -0.23278,-0.22819 -0.15326,-0.620466 0.15,-0.74 4.52667,-1.793333 8.88333,-3.506667 13.07,-5.14 2.73333,-1.066667 6.85333,-1.736667 12.36,-2.01 2.72,-0.13 5.76,-0.78 6.2,2.94 0.69333,5.86 2.63,11.13 5.81,15.81 1.67,2.47 2.96,4.8 6.05,5.72 1.18218,0.351383 1.71152,1.726687 1.07,2.78 -3.57333,5.84667 -6.89,11.49 -9.95,16.93 -4.08,7.27 -5.48,15.39 -6.63,23.65 -0.44667,3.21333 0.51333,6.29 2.88,9.23 5.18,6.42 10.77,12.92 17.6,17.16 5.08,3.15333 9.95333,5.87333 14.62,8.16 0.70939,0.34469 0.94614,1.23962 0.5,1.89 -1.48667,2.13333 -3.28,4.21667 -5.38,6.25 -0.36667,0.35333 -0.47667,0.28667 -0.33,-0.2 0.75,-2.63 0.73,-8.53 -3.78,-7.92 -2.16,0.29 -4.61,-0.76 -6.45,0.61 -1.55333,1.15333 -2.31667,2.62333 -2.29,4.41 0.0867,5.14667 2.93667,7.46333 8.55,6.95 0.81333,-0.0733 1,0.23333 0.56,0.92 -2.93,4.57 -6.48,10.5 -8.3,14.44 -1.13333,2.44 -1.99333,5.37 -2.58,8.79 -0.86,5.03 1.15,11.63 3.59,15.97 3.23,5.74 4.2,12.37 7.56,17.97 1.45333,2.42667 2.97,4.87 4.55,7.33 1.63,2.55 3.96,4.44 5.9,6.77 0.44,0.53333 0.39,1.01 -0.15,1.43 -1.23333,0.96667 -1.54333,2.06333 -0.93,3.29 0.48,0.96 1.14667,1.13667 2,0.53 0.58667,-0.41333 0.99667,-0.99 1.23,-1.73 0.18667,-0.60667 0.54,-0.72333 1.06,-0.35 3.32667,2.41333 5.49,5.51667 6.49,9.31 0.24667,0.92 0.80667,1.19333 1.68,0.82 l 0.3,-0.12 c 1.02,-0.43333 1.34667,-1.17667 0.98,-2.23 -1.44,-4.08667 -3.89667,-7.44667 -7.37,-10.08 -0.28,-0.20667 -0.29333,-0.43 -0.04,-0.67 4.06,-3.81 8.99,-5.82 13.71,-8.26 4.04667,-2.09333 7.81333,-5.11333 11.3,-9.06 5.24,-5.94 6.59,-14.97 5.64,-22.88 -0.19333,-1.6 -0.75333,-3.06 -1.68,-4.38 -3.9,-5.56 -8.36,-11.01333 -13.38,-16.36 -3.18,-3.37 -6.81,-5.76 -10.62,-8.31 -4.22,-2.82 -8.35,-3.82 -13.39,-3.71 -0.84279,0.0181 -1.26411,-1.01251 -0.65,-1.59 2,-1.9 3.74,-4.09333 5.22,-6.58 0.2,-0.34667 0.5,-0.48667 0.9,-0.42 l 1.12,0.18 c 2.52,0.41333 2.96333,-0.36 1.33,-2.32 -1.24,-1.48667 -2.92333,-2.75667 -5.05,-3.81 -0.70119,-0.34153 -0.82199,-1.29213 -0.23,-1.81 6.07333,-5.3 10.44,-12.09333 13.1,-20.38 1.15,-3.55 0.89,-7.18 -0.02,-10.79 -1.34667,-5.32 -2.59667,-9.65667 -3.75,-13.01 -0.76667,-2.24667 -2.67,-4.84 -5.71,-7.78 -3.29,-3.18 -7.59,-4.44 -11.26,-6.93 -3.92,-2.67 -8.69,-3.23 -13.23,-3.1 -0.44,0.0133 -0.55333,-0.17 -0.34,-0.55 0.89,-1.61 2.24,-2.88 3.12,-4.45 1.44,-2.55333 2.51,-5.3 3.21,-8.24 0.25576,-1.047014 -0.34292,-2.113271 -1.37,-2.44 L 175.2,91.2 c -0.48667,-0.153333 -0.59333,-0.446667 -0.32,-0.88 0.98,-1.5 2.1,-2.8 2.71,-4.52 1.08,-3.033333 2.22667,-6.123333 3.44,-9.27 0.47333,-1.24 0.69,-3.506667 0.65,-6.8 -0.007,-0.36 0.16,-0.596667 0.5,-0.71 2.44,-0.78 5.07,-1.32 7.27,-2.71 1.96,-1.226667 3.94667,-2.193333 5.96,-2.9 1.3,-0.46 2.44667,-1.183333 3.44,-2.17 2.08,-2.066667 4.74667,-3.383333 8,-3.95 0.17522,-0.0307 0.33654,0.102139 0.34,0.28 0.02,1 -0.0767,1.97 -0.29,2.91 -1.02667,4.526667 -1.92333,9.003333 -2.69,13.43 -0.91,5.24 0.79,11.37 6.32,13.35 7.93,2.84 14.58,0.31 21.37,-3.75 4.14,-2.46 7.41,-5.85 11.35,-8.63 1.13333,-0.8 1.97,-1.8 2.51,-3 2.14,-4.74 3.3,-9.106667 3.48,-13.1 0.0223,-0.495169 0.54387,-0.80601 0.99,-0.59 l 23.76,11.61 c 0.73786,0.361487 1.16975,1.149275 1.08,1.97 -0.0533,0.513333 0.007,1.013333 0.18,1.5 0.11333,0.313333 0.31667,0.54 0.61,0.68 0.94667,0.446667 1.83667,0.41 2.67,-0.11 0.65333,-0.406667 1.27333,-0.363333 1.86,0.13 l 10.21,8.58 c 0.33003,0.269736 0.28872,0.786164 -0.08,1 -2.2,1.313333 -4.28333,2.67 -6.25,4.07 -1.78,1.26 -3.86,1.79 -5.7,2.87 -7.98667,4.673333 -13.93667,7.876667 -17.85,9.61 -2.69333,1.18667 -5.21,2.47667 -7.55,3.87 -2.74667,1.64667 -6.01,2.77 -9.79,3.37 -1.38667,0.22 -2.27333,1.00333 -2.66,2.35 -0.0667,0.24 -0.09,0.48333 -0.07,0.73 0.0632,0.79425 0.76737,1.38106 1.56,1.3 l 3.91,-0.38 c 0.35761,-0.0382 0.71596,0.074 0.99,0.31 2.72,2.33 4.28,10.61 4.73,14 0.93,6.95 1.71,14.33 1.75,21.31 0.02,3.93333 0.14,7.68333 0.36,11.25 0.0733,1.21333 0.31,2.45333 0.71,3.72 0.31333,1.01333 0.97667,1.36 1.99,1.04 l 0.43,-0.13 c 1.19333,-0.38 1.53,-1.13667 1.01,-2.27 -0.89333,-1.96667 -1.28667,-3.84333 -1.18,-5.63 0.0533,-0.85333 0.29,-0.90667 0.71,-0.16 0.94,1.68 1.34,3.51 2.58,5 3.92,4.71 6.38,9.77 8.1,15.74 0.96,3.32667 2.05333,6.7 3.28,10.12 2.87333,7.99333 5.18333,15.80667 6.93,23.44 0.51333,2.24 0.85,5.17667 1.01,8.81 0.48,10.77 -0.33,21.47 0.7,32.2 0.15,1.51 -0.06,2.52 -0.34,3.95 -0.1,0.53333 0.0333,0.99667 0.4,1.39 0.64667,0.69333 1.40667,0.96 2.28,0.8 0.41294,-0.0744 0.7075,-0.44582 0.69,-0.87 L 282.56,240 c -0.0267,-0.57333 0.17333,-0.66667 0.6,-0.28 0.58,0.52 1.08667,1.12667 1.52,1.82 3.62,5.67 7.34,11.53 9.68,17.67 1.63,4.3 3.79,8.25 5.17,12.76 1.83,5.96 3.71,11.45 5,17.64 0.95333,4.56 2.07,9.08 3.35,13.56 0.54,1.88 1.09,3.5 2.45,4.97 1.94667,2.1 3.76,4.25333 5.44,6.46 0.47464,0.62907 0.50658,1.4874 0.08,2.15 -2.15,3.37 -3.79,6.52 -4.99,10.53 -3.38667,11.35333 -6.23,20.62667 -8.53,27.82 -1.58,4.95 -4.89,9.59 -7.69,14.15 -2.34,3.82 -5.32,7.1 -8.26,10.36 -2.36,2.6 -6,3.3 -9.03,5.06 -2.62,1.52 -5.26667,3.08 -7.94,4.68 -1.71333,1.02667 -3.66667,1.79 -5.86,2.29 -5.71333,1.32 -11.41667,2.78 -17.11,4.38 -0.76,0.21333 -1.27333,-0.05 -1.54,-0.79 -0.55,-1.49 -2.01,-1.82 -3.13,-2.77 -5.70667,-4.81333 -10.00333,-8.98 -12.89,-12.5 -3.4,-4.12667 -6.88667,-8.31 -10.46,-12.55 -1.09,-1.28 -2.47,-2.81 -2.09,-4.61 0.33333,-1.64 0.69333,-3.31 1.08,-5.01 0.14114,-0.60907 -0.26279,-1.21036 -0.88,-1.31 z M 174.35,98.16 168.1,95.63 c -1.20948,-0.487926 -2.5859,0.09303 -3.08,1.3 l -0.27,0.66 c -1.64204,4.04211 -0.62575,8.27294 2.27,9.45 l 0.15,0.06 c 2.89519,1.17079 6.56915,-1.15172 8.21,-5.19 l 0.27,-0.66 c 0.49457,-1.21227 -0.0875,-2.595898 -1.3,-3.09 z m -38.6,85.39 c 2.96,3.65 5.14,6.88 9.54,9.06 0.50667,0.24667 0.95333,0.17 1.34,-0.23 0.0867,-0.0933 0.15,-0.20333 0.19,-0.33 0.26,-0.87333 0.0367,-1.60333 -0.67,-2.19 -7.76,-6.4 -12.68,-14.71 -17.36,-23.55 -2.15,-4.07 -2.64,-8.95 -4.33,-13.04 -1.74,-4.19333 -3.39,-8.25 -4.95,-12.17 -0.08,-0.21333 -0.21,-0.37 -0.39,-0.47 -0.24,-0.13333 -0.45333,-0.1 -0.64,0.1 -0.16667,0.18 -0.24667,0.39667 -0.24,0.65 0.0533,1.70667 0.31667,3.31667 0.79,4.83 1.84,5.84667 3.66333,11.62 5.47,17.32 1.65,5.22 4.71,10.13 7.65,14.73 0.3196,0.49943 0.4276,1.10066 0.3,1.67 -0.82,3.72 0.49,7.68 1.22,11.34 0.38667,1.94 0.63333,3.95333 0.74,6.04 0.46524,16.35255 1.16299,32.63693 2.4,48.94 0.5,7.39 2.32,14.6 4.97,21.11 1.75,4.28 3.54,8.87 5.86,12.79 1.06,1.79333 1.92333,3.64667 2.59,5.56 0.38,1.1 1.12,1.51 2.22,1.23 0.33946,-0.0875 0.56458,-0.40607 0.53,-0.75 -0.42,-4.4 -3.72,-8.36 -5.35,-12.44 -1.10667,-2.76667 -2.22,-5.39 -3.34,-7.87 -2.79,-6.2 -4.34,-13.72 -5.01,-20.98 -0.59,-6.43 -1.29,-12.74 -1.25,-19.16 0.0467,-7.7 -0.0767,-15.61333 -0.37,-23.74 -0.21333,-6.02667 -1.07667,-12.06333 -2.59,-18.11 -0.28667,-1.14667 -0.06,-1.26 0.68,-0.34 z m 68.681,85.7858 c -1.2031,-2.52234 -4.82934,-3.30267 -8.0994,-1.7429 -3.27011,1.55974 -4.94574,4.86895 -3.7426,7.3913 1.2031,2.52234 4.82934,3.30267 8.0994,1.7429 3.27011,-1.55974 4.94574,-4.86895 3.7426,-7.3913 z"
         id="path75"
         sodipodi:nodetypes="cccccssccscccccccccccccccccccccccccccccccccccccccccccccccccccccccccccccsccccccccccccccccccccccccccccccccccccccccccccccccccsccccccccccccccccccccccccccccccccccccccccccccccccccccccccccccccccccccccccccccccccscccccccccccccccccccccsssss" />
      <path
         fill="#131312"
         d="m 169.17,64.92 a 2.35,2.34 -7.1 0 0 2.08,-2.66 l -0.24,-1.73 a 1.53,1.53 0 0 1 2.12,-1.62 q 2.88,1.24 2.06,3.5 c -1.45,4.01 -7.09,8.53 -10.9,4.36 q -2.57,-2.8 -2.83,-6.28 -0.06,-0.77 0.71,-0.81 l 1.68,-0.07 q 0.95,-0.05 1.15,0.89 c 0.22,1.08 -0.01,2.31 0.85,3.16 q 1.48,1.46 3.32,1.26 z"
         id="path76" />
      <path
         fill="#f3f2f7"
         d="m 135.05,64.3 0.95,4.94 a 0.57,0.56 88.5 0 1 -0.63,0.67 q -4.65,-0.68 -6.39,-5.19 -0.86,-2.22 1.36,-3.05 0.89,-0.34 1.83,-0.18 2.42,0.4 2.88,2.81 z"
         id="path77" />
      <path
         fill="#f3f2f7"
         d="m 62.99,97.14 c 0.36,-0.346667 0.516667,-0.826667 0.47,-1.44 -0.16,-2.12 -3.23,-4.09 -4.19,-6.25 -1.806667,-4.06 -3.53,-8.09 -5.17,-12.09 -0.253333,-0.613333 -0.423333,-1.26 -0.51,-1.94 -0.06866,-0.546926 0.436016,-0.988513 0.96,-0.84 7.29,1.98 13.03,11.42 15.53,18.01 0.113333,0.306667 0.31,0.536667 0.59,0.69 0.513333,0.28 1.01,0.32 1.49,0.12 0.36,-0.153333 0.566667,-0.423333 0.62,-0.81 L 74.7,79.12 c 0.0602,-0.442429 0.482878,-0.741059 0.92,-0.65 0.506667,0.106667 0.816667,0.413333 0.93,0.92 0.7,3.233333 1.196667,6.32 1.49,9.26 0.213333,2.14 0.02333,4.873333 -0.57,8.2 -0.44,2.433333 -1.196667,4.81667 -2.27,7.15 -1.32,2.86667 -2.52,5.77667 -3.6,8.73 -0.247613,0.67751 -0.952902,1.07264 -1.66,0.93 -2.306667,-0.46667 -4.54,-0.2 -6.7,0.8 -3.173333,1.46 -6.356667,2.70667 -9.55,3.74 -2.65,0.86 -4.44,2.77 -7.13,3.47 -1.146667,0.3 -1.443333,-0.0767 -0.89,-1.13 0.9,-1.69333 2.11,-3.13333 3.63,-4.32 3.126667,-2.42667 5.993333,-5.19 8.6,-8.29 0.554632,-0.65364 0.216499,-1.66258 -0.62,-1.85 -1.59,-0.37 -3.41,-0.66 -5.02,-0.39 -3.193333,0.53333 -6.486667,0.87667 -9.88,1.03 -0.143502,0.006 -0.286561,-0.0321 -0.41,-0.11 -1,-0.62 -0.92,-1.17 0.24,-1.65 2.56,-1.05 5.12,-2.17 7.85,-2.61 2.22,-0.35 7.2,-0.82 8.77,-2.18 0.741039,-0.635699 0.681978,-1.802153 -0.12,-2.37 -1.626667,-1.146667 -3.503333,-1.436667 -5.63,-0.87 -0.393333,0.106667 -0.776667,0.07667 -1.15,-0.09 -2.45,-1.14 -6.83,-2.36 -8.37,-4.62 -0.546667,-0.806667 -0.346667,-1.093333 0.6,-0.86 3.553333,0.893333 7.216667,1.69 10.99,2.39 2.433333,0.46 4.51,1.58 6.23,3.36 0.434202,0.457669 1.159049,0.471176 1.61,0.03 z"
         id="path79"
         sodipodi:nodetypes="ccccccccccccccccccccccccccccccccccccccc" />
      <path
         fill="#131312"
         d="m 174.35,98.16 a 2.37,2.37 0 0 1 1.3,3.09 l -0.27,0.66 a 7.9,5.66 -67.9 0 1 -8.21,5.19 l -0.15,-0.06 a 7.9,5.66 -67.9 0 1 -2.27,-9.45 l 0.27,-0.66 a 2.37,2.37 0 0 1 3.08,-1.3 z m -3.32,2.69 -2.54,-0.7 a 0.58,0.58 0 0 0 -0.72,0.4 l -0.04,0.16 a 2.62,1.9 -74.5 0 0 1.13,3.03 v 0 a 2.62,1.9 -74.5 0 0 2.53,-2.02 l 0.04,-0.15 a 0.58,0.58 0 0 0 -0.4,-0.72 z"
         id="path80" />
      <path
         fill="#f3f2f7"
         d="m 171.03,100.85 a 0.58,0.58 0 0 1 0.4,0.72 l -0.04,0.15 a 2.62,1.9 -74.5 0 1 -2.53,2.02 v 0 a 2.62,1.9 -74.5 0 1 -1.13,-3.03 l 0.04,-0.16 a 0.58,0.58 0 0 1 0.72,-0.4 z"
         id="path81" />
      <path
         fill="#f3f2f7"
         d="m 173.15,156.09 q -4.9,-5.33 -8.06,-10.13 -0.36,-0.55 -0.36,-1.21 0.05,-16.46 8.4,-29.83 c 0.82,-1.31 2.13,-2.4 3.71,-2.47 q 6.5,-0.28 10.93,2.05 c 6.64,3.49 14.75,7.01 17.41,14.88 q 2.82,8.31 3.74,14.41 0.5,3.29 -0.84,7.01 -4.17,11.62 -13.97,19.39 -0.41,0.32 -0.86,0.08 c -7.83,-4.13 -14.22,-7.78 -20.1,-14.18 z m 18.1866,-19.9138 a 5.39,4.03 133.4 0 0 6.6315,-1.1472 5.39,4.03 133.4 0 0 0.7753,-6.6852 5.39,4.03 133.4 0 0 -6.6315,1.1472 5.39,4.03 133.4 0 0 -0.7753,6.6852 z M 176.27,134.35 a 2.72,2.72 0 0 0 -2.46,-0.61 l -1.51,0.37 a 2.72,2.72 0 0 0 -1.89,3.62 l 1.47,3.81 a 2.72,2.72 0 0 0 4.51,0.9 l 2.16,-2.29 a 2.72,2.72 0 0 0 -0.16,-3.9 z m 25.5044,15.6067 a 1.3,1.3 0 0 0 -1.6218,-0.8659 l -17.8541,5.4245 a 1.3,1.3 0 0 0 -0.8659,1.6218 l 0.093,0.3062 a 1.3,1.3 0 0 0 1.6218,0.8659 l 17.8541,-5.4245 a 1.3,1.3 0 0 0 0.8659,-1.6218 z"
         id="path83" />
      <ellipse
         fill="#131312"
         cx="0"
         cy="0"
         transform="rotate(133.4,69.039923,108.12875)"
         rx="5.3899999"
         ry="4.0300002"
         id="ellipse84" />
      <path
         fill="#131312"
         d="m 176.27,134.35 2.12,1.9 a 2.72,2.72 0 0 1 0.16,3.9 l -2.16,2.29 a 2.72,2.72 0 0 1 -4.51,-0.9 l -1.47,-3.81 a 2.72,2.72 0 0 1 1.89,-3.62 l 1.51,-0.37 a 2.72,2.72 0 0 1 2.46,0.61 z"
         id="path84" />
      <path
         fill="#131312"
         d="m 135.75,183.55 q -1.11,-1.38 -0.68,0.34 2.27,9.07 2.59,18.11 0.44,12.19 0.37,23.74 c -0.04,6.42 0.66,12.73 1.25,19.16 0.67,7.26 2.22,14.78 5.01,20.98 q 1.68,3.72 3.34,7.87 c 1.63,4.08 4.93,8.04 5.35,12.44 a 0.71,0.7 -10 0 1 -0.53,0.75 q -1.65,0.42 -2.22,-1.23 -1,-2.87 -2.59,-5.56 c -2.32,-3.92 -4.11,-8.51 -5.86,-12.79 -2.65,-6.51 -4.47,-13.72 -4.97,-21.11 -0.44,-6.38 -1.37,-12.81 -1.43,-19.28 q -0.14,-14.03 -0.97,-29.66 -0.16,-3.13 -0.74,-6.04 c -0.73,-3.66 -2.04,-7.62 -1.22,-11.34 a 2.23,2.18 35.4 0 0 -0.3,-1.67 c -2.94,-4.6 -6,-9.51 -7.65,-14.73 q -2.71,-8.55 -5.47,-17.32 -0.71,-2.27 -0.79,-4.83 -0.01,-0.38 0.24,-0.65 0.28,-0.3 0.64,-0.1 0.27,0.15 0.39,0.47 2.34,5.88 4.95,12.17 c 1.69,4.09 2.18,8.97 4.33,13.04 4.68,8.84 9.6,17.15 17.36,23.55 q 1.06,0.88 0.67,2.19 -0.06,0.19 -0.19,0.33 -0.58,0.6 -1.34,0.23 c -4.4,-2.18 -6.58,-5.41 -9.54,-9.06 z"
         id="path85" />
      <rect
         fill="#131312"
         x="-10.63"
         y="-1.46"
         transform="rotate(-16.9,611.44519,-568.43009)"
         width="21.26"
         height="2.9200001"
         rx="1.3"
         id="rect85" />
      <rect
         fill="#f3f2f7"
         x="-2.9200001"
         y="-2.1400001"
         transform="rotate(4,-2513.0559,2745.5757)"
         width="5.8400002"
         height="4.2800002"
         rx="1.48"
         id="rect86" />
      <path
         fill="#f3f2f7"
         d="m 207.59,253.63 c -2,1.13 -3.65,2.89 -5.37,4.46 q -0.49,0.45 -0.97,-0.01 c -5.77,-5.59 -10.88,-12.72 -13.4,-20.44 -1.33,-4.09 -2.94,-7.61 -4.93,-11.35 q -4.35,-8.14 -1.88,-17.76 c 1.17,-4.51 4.06,-8.51 6.31,-12.68 a 3.82,3.8 -84 0 1 2.25,-1.83 q 2.04,-0.61 3.84,-1.65 c 3.49,-2.01 8.64,-1.4 12,0.45 10.13,5.59 16.8,14.07 23.5,23.3 1.51,2.08 2.55,4.57 2.67,7.17 0.52,11.13 -5.08,20.87 -15.08,25.68 q -4.53,2.18 -8.94,4.66 z m 1.47,-47.37 1.75,-0.99 a 0.81,0.81 0 0 0 -0.21,-1.49 c -1.9,-0.46 -5.03,-0.84 -6.73,0.29 -2.19,1.47 -3.38,4.78 -1.3,6.91 q 0.36,0.37 0.89,0.32 2.43,-0.26 4.37,-1.49 0.45,-0.28 0.53,-0.81 l 0.31,-2.17 a 0.81,0.8 79.8 0 1 0.39,-0.57 z m -19.26,11.09 1.42,-6.24 a 1.87,1.87 0 0 0 -1.41,-2.23 l -1.21,-0.28 a 5.02,4.87 -77.2 0 0 -5.86,3.82 l -0.02,0.09 a 5.02,4.87 -77.2 0 0 3.63,5.98 l 1.21,0.27 a 1.87,1.87 0 0 0 2.24,-1.41 z m 16.56,12.78 c -3.2,1.73 -8.42,4 -11.17,0.8 q -1.12,-1.29 -2.62,-0.48 l -0.82,0.45 q -1.39,0.76 -0.24,1.83 c 1.69,1.58 3.69,3.14 6.2,2.84 q 5.14,-0.6 8.15,-2.31 5.41,-3.06 11.09,-5.63 3.17,-1.43 4.88,-4.11 a 1.46,1.28 69.9 0 0 0.21,-0.54 q 0.59,-3.21 -1.99,-1.91 a 1.66,1.63 4.6 0 0 -0.61,0.51 c -1.15,1.55 -1.83,3.06 -3.72,3.91 q -4.78,2.15 -9.36,4.64 z"
         id="path87" />
      <path
         fill="#131312"
         d="m 208.67,206.83 -0.31,2.17 q -0.08,0.53 -0.53,0.81 -1.94,1.23 -4.37,1.49 -0.53,0.05 -0.89,-0.32 c -2.08,-2.13 -0.89,-5.44 1.3,-6.91 1.7,-1.13 4.83,-0.75 6.73,-0.29 a 0.81,0.81 0 0 1 0.21,1.49 l -1.75,0.99 a 0.81,0.8 79.8 0 0 -0.39,0.57 z"
         id="path90" />
      <path
         fill="#131312"
         d="m 189.8,217.35 a 1.87,1.87 0 0 1 -2.24,1.41 l -1.21,-0.27 a 5.02,4.87 -77.2 0 1 -3.63,-5.98 l 0.02,-0.09 a 5.02,4.87 -77.2 0 1 5.86,-3.82 l 1.21,0.28 a 1.87,1.87 0 0 1 1.41,2.23 z"
         id="path91" />
      <path
         fill="#131312"
         d="m 195.19,230.93 c 2.75,3.2 7.97,0.93 11.17,-0.8 q 4.58,-2.49 9.36,-4.64 c 1.89,-0.85 2.57,-2.36 3.72,-3.91 a 1.66,1.63 4.6 0 1 0.61,-0.51 q 2.58,-1.3 1.99,1.91 a 1.46,1.28 69.9 0 1 -0.21,0.54 q -1.71,2.68 -4.88,4.11 -5.68,2.57 -11.09,5.63 -3.01,1.71 -8.15,2.31 c -2.51,0.3 -4.51,-1.26 -6.2,-2.84 q -1.15,-1.07 0.24,-1.83 l 0.82,-0.45 q 1.5,-0.81 2.62,0.48 z"
         id="path92" />
      <path
         fill="#131312"
         d="m 204.431,269.3358 a 6.56,5.06 -25.5 0 1 -3.7426,7.3913 6.56,5.06 -25.5 0 1 -8.0994,-1.7429 6.56,5.06 -25.5 0 1 3.7426,-7.3913 6.56,5.06 -25.5 0 1 8.0994,1.7429 z m -4.3502,2.4257 a 2.44,1.95 -23.9 0 0 -3.0208,-0.7943 2.44,1.95 -23.9 0 0 -1.4408,2.7713 2.44,1.95 -23.9 0 0 3.0208,0.7943 2.44,1.95 -23.9 0 0 1.4408,-2.7713 z"
         id="path94" />
      <ellipse
         fill="#f3f2f7"
         cx="0"
         cy="0"
         transform="rotate(-23.9,743.2834,-331.03585)"
         rx="2.4400001"
         ry="1.95"
         id="ellipse94" />
      <path
         id="path97"
         d="m 316.89062,322.8418 c -0.99321,0.0846 -1.84109,0.74694 -2.16015,1.6875 -2.12667,6.82659 -4.30459,13.59412 -6.53125,20.30078 -1.96,5.87992 -3.49852,13.06062 -7.22852,19.31054 -3.86659,6.47333 -8.04156,12.05675 -12.52148,16.75 l 28.44154,-58.04887 z m 9.40235,52.33203 c -0.0507,0.12869 -0.0688,0.25348 -0.25195,1 0.0791,-0.33451 0.17055,-0.66605 0.25195,-1 z m -0.26367,1.04687 c -0.0304,0.10792 -0.0979,0.2067 -0.10742,0.31836 -7.1e-4,0.008 5.7e-4,0.017 0,0.0254 0.007,-10e-4 0.0141,-0.005 0.0215,-0.006 0.0264,-0.11316 0.0592,-0.22479 0.0859,-0.33789 z"
         sodipodi:nodetypes="scccccscccsscccs" />
      <path
         id="path99"
         d="m 175.7695,395.99409 c -0.0225,-0.23031 -0.10175,-0.45178 -0.23047,-0.64453 -2.43333,-3.53333 -4.92524,-7.0396 -7.47851,-10.51953 -1.49333,-2.03333 -2.69295,-4.11667 -3.59961,-6.25 z"
         sodipodi:nodetypes="ccccc" />
      <path
         fill="#f3f2f7"
         d="m 218.68,386.61 q -2.44,-6.04 -4.98,-12 -1.29,-3.03 0.07,-6.65 0.24,-0.65 0.7,-0.13 l 5.19,5.96 a 3.78,3.77 -61.9 0 1 0.9,2.97 q -0.63,4.88 -1.26,9.77 -0.16,1.22 -0.62,0.08 z"
         id="path104" />
      <path
         fill="#f3f2f7"
         d="m 223.69,379.31 q 0.2,-0.69 0.66,-0.14 6.05,7.17 12.79,13.8 a 0.84,0.84 0 0 1 -0.22,1.35 c -2.41,1.19 -10.93,3.58 -12.42,0.13 q -3.1,-7.17 -0.81,-15.14 z"
         id="path106" />
      <path
         fill="#f3f2f7"
         d="m 210.59,396.38 c 0.42,-2.69 -0.04,-4.64 -1.16,-6.9 q -0.41,-0.84 -0.15,-1.87 0.77,-3.01 1.66,-6 0.58,-1.91 1.36,-0.07 l 3.9,9.23 q 0.29,0.69 -0.07,1.36 c -1.08,2 -2.36,4.57 -4.87,4.93 a 0.6,0.59 -89.6 0 1 -0.67,-0.68 z"
         id="path107" />
    </g>
  </g>
</svg>
