<?xml version="1.0" encoding="UTF-8" standalone="no"?>
<!DOCTYPE svg PUBLIC "-//W3C//DTD SVG 1.1//EN" "http://www.w3.org/Graphics/SVG/1.1/DTD/svg11.dtd">
<svg xmlns="http://www.w3.org/2000/svg" version="1.1" viewBox="0.00 0.00 240.00 240.00">
<path stroke="#e9e9e9" stroke-width="2.00" fill="none" stroke-linecap="butt" vector-effect="non-scaling-stroke" d="
  M 215.04 240.00
  L 214.55 232.15
  L 213.64 224.20
  L 212.28 216.15
  L 210.50 208.00
  L 208.96 202.41
  L 207.12 197.07
  L 204.97 191.95
  L 202.51 187.04
  L 199.33 181.70
  L 195.73 176.59
  L 191.64 171.60
  L 187.10 166.79
  L 179.36 159.64
  L 179.36 159.64
  L 172.61 154.18
  L 165.53 149.10
  L 158.11 144.41
  L 150.36 140.11
  L 150.01 139.63
  L 150.17 139.06
  L 150.31 138.95
  L 155.30 135.52
  L 159.81 131.74
  L 163.86 127.63
  L 167.43 123.17
  L 167.43 123.17
  L 167.43 123.17
  L 169.87 119.49
  L 172.03 115.61
  L 173.91 111.53
  L 175.51 107.24
  L 176.81 102.73
  L 177.74 98.18
  L 178.27 93.85
  L 178.48 89.53
  L 178.36 85.14
  L 177.92 80.79
  L 177.15 76.47
  L 176.06 72.23
  L 174.67 68.09
  L 172.98 64.06
  L 171.00 60.18
  L 168.74 56.45
  L 166.20 52.89
  L 163.40 49.53
  L 160.37 46.40
  L 157.09 43.51
  L 153.67 40.91
  L 150.02 38.57
  L 145.90 36.36
  L 141.56 34.48
  L 135.81 32.59
  L 130.04 31.30
  L 124.13 30.59
  L 118.27 30.47
  L 114.33 30.71
  L 110.44 31.22
  L 106.61 31.98
  L 102.86 32.98
  L 99.15 34.24
  L 95.53 35.74
  L 92.03 37.46
  L 88.66 39.41
  L 85.44 41.57
  L 82.36 43.94
  L 79.45 46.51
  L 76.71 49.28
  L 74.17 52.22
  L 71.83 55.33
  L 69.74 58.53
  L 67.86 61.89
  L 65.37 67.45
  L 63.46 73.35
  L 62.18 79.49
  L 61.56 85.72
  L 61.50 89.72
  L 61.71 93.71
  L 62.18 97.66
  L 62.92 101.57
  L 63.90 105.42
  L 65.14 109.18
  L 66.62 112.86
  L 68.33 116.42
  L 70.25 119.80
  L 72.39 123.04
  L 74.75 126.14
  L 77.32 129.07
  L 80.06 131.78
  L 82.99 134.31
  L 86.04 136.58
  L 89.27 138.64
  L 89.56 138.81
  L 89.73 138.94
  L 89.93 139.59
  L 89.53 140.14
  L 80.52 145.22
  L 71.98 150.81
  L 63.92 156.90
  L 56.33 163.50
  L 56.33 163.50
  L 49.50 170.31
  L 44.30 176.43
  L 41.95 179.65
  L 39.78 182.97
  L 39.78 182.97
  L 39.78 182.97
  L 39.78 182.97
  L 37.26 187.36
  L 35.02 191.91
  L 33.06 196.64
  L 31.37 201.54
  L 29.12 209.61
  L 27.35 217.77
  L 27.35 217.77
  L 26.44 223.27
  L 25.75 228.81
  L 25.26 234.38
  L 25.00 240.00"
/>
<path fill="#d2d2d2" d="
  M 240.00 0.00
  L 240.00 240.00
  L 215.04 240.00
  L 214.55 232.15
  L 213.64 224.20
  L 212.28 216.15
  L 210.50 208.00
  L 208.96 202.41
  L 207.12 197.07
  L 204.97 191.95
  L 202.51 187.04
  L 199.33 181.70
  L 195.73 176.59
  L 191.64 171.60
  L 187.10 166.79
  L 179.36 159.64
  L 179.36 159.64
  L 172.61 154.18
  L 165.53 149.10
  L 158.11 144.41
  L 150.36 140.11
  L 150.01 139.63
  L 150.17 139.06
  L 150.31 138.95
  L 155.30 135.52
  L 159.81 131.74
  L 163.86 127.63
  L 167.43 123.17
  L 167.43 123.17
  L 167.43 123.17
  L 169.87 119.49
  L 172.03 115.61
  L 173.91 111.53
  L 175.51 107.24
  L 176.81 102.73
  L 177.74 98.18
  L 178.27 93.85
  L 178.48 89.53
  L 178.36 85.14
  L 177.92 80.79
  L 177.15 76.47
  L 176.06 72.23
  L 174.67 68.09
  L 172.98 64.06
  L 171.00 60.18
  L 168.74 56.45
  L 166.20 52.89
  L 163.40 49.53
  L 160.37 46.40
  L 157.09 43.51
  L 153.67 40.91
  L 150.02 38.57
  L 145.90 36.36
  L 141.56 34.48
  L 135.81 32.59
  L 130.04 31.30
  L 124.13 30.59
  L 118.27 30.47
  L 114.33 30.71
  L 110.44 31.22
  L 106.61 31.98
  L 102.86 32.98
  L 99.15 34.24
  L 95.53 35.74
  L 92.03 37.46
  L 88.66 39.41
  L 85.44 41.57
  L 82.36 43.94
  L 79.45 46.51
  L 76.71 49.28
  L 74.17 52.22
  L 71.83 55.33
  L 69.74 58.53
  L 67.86 61.89
  L 65.37 67.45
  L 63.46 73.35
  L 62.18 79.49
  L 61.56 85.72
  L 61.50 89.72
  L 61.71 93.71
  L 62.18 97.66
  L 62.92 101.57
  L 63.90 105.42
  L 65.14 109.18
  L 66.62 112.86
  L 68.33 116.42
  L 70.25 119.80
  L 72.39 123.04
  L 74.75 126.14
  L 77.32 129.07
  L 80.06 131.78
  L 82.99 134.31
  L 86.04 136.58
  L 89.27 138.64
  L 89.56 138.81
  L 89.73 138.94
  L 89.93 139.59
  L 89.53 140.14
  L 80.52 145.22
  L 71.98 150.81
  L 63.92 156.90
  L 56.33 163.50
  L 56.33 163.50
  L 49.50 170.31
  L 44.30 176.43
  L 41.95 179.65
  L 39.78 182.97
  L 39.78 182.97
  L 39.78 182.97
  L 39.78 182.97
  L 37.26 187.36
  L 35.02 191.91
  L 33.06 196.64
  L 31.37 201.54
  L 29.12 209.61
  L 27.35 217.77
  L 27.35 217.77
  L 26.44 223.27
  L 25.75 228.81
  L 25.26 234.38
  L 25.00 240.00
  L 0.00 240.00
  L 0.00 0.00
  L 240.00 0.00
  Z"
/>
<path fill="#ffffff" d="
  M 215.04 240.00
  L 25.00 240.00
  L 25.26 234.38
  L 25.75 228.81
  L 26.44 223.27
  L 27.35 217.77
  L 27.35 217.77
  L 29.12 209.61
  L 31.37 201.54
  L 33.06 196.64
  L 35.02 191.91
  L 37.26 187.36
  L 39.78 182.97
  L 39.78 182.97
  L 39.78 182.97
  L 41.95 179.65
  L 44.30 176.43
  L 49.50 170.31
  L 56.33 163.50
  L 56.33 163.50
  L 63.92 156.90
  L 71.98 150.81
  L 80.52 145.22
  L 89.53 140.14
  L 89.93 139.59
  L 89.73 138.94
  L 89.56 138.81
  L 89.27 138.64
  L 86.04 136.58
  L 82.99 134.31
  L 80.06 131.78
  L 77.32 129.07
  L 74.75 126.14
  L 72.39 123.04
  L 70.25 119.80
  L 68.33 116.42
  L 66.62 112.86
  L 65.14 109.18
  L 63.90 105.42
  L 62.92 101.57
  L 62.18 97.66
  L 61.71 93.71
  L 61.50 89.72
  L 61.56 85.72
  L 62.18 79.49
  L 63.46 73.35
  L 65.37 67.45
  L 67.86 61.89
  L 69.74 58.53
  L 71.83 55.33
  L 74.17 52.22
  L 76.71 49.28
  L 79.45 46.51
  L 82.36 43.94
  L 85.44 41.57
  L 88.66 39.41
  L 92.03 37.46
  L 95.53 35.74
  L 99.15 34.24
  L 102.86 32.98
  L 106.61 31.98
  L 110.44 31.22
  L 114.33 30.71
  L 118.27 30.47
  L 124.13 30.59
  L 130.04 31.30
  L 135.81 32.59
  L 141.56 34.48
  L 145.90 36.36
  L 150.02 38.57
  L 153.67 40.91
  L 157.09 43.51
  L 160.37 46.40
  L 163.40 49.53
  L 166.20 52.89
  L 168.74 56.45
  L 171.00 60.18
  L 172.98 64.06
  L 174.67 68.09
  L 176.06 72.23
  L 177.15 76.47
  L 177.92 80.79
  L 178.36 85.14
  L 178.48 89.53
  L 178.27 93.85
  L 177.74 98.18
  L 176.81 102.73
  L 175.51 107.24
  L 173.91 111.53
  L 172.03 115.61
  L 169.87 119.49
  L 167.43 123.17
  L 167.43 123.17
  L 167.43 123.17
  L 167.43 123.17
  L 163.86 127.63
  L 159.81 131.74
  L 155.30 135.52
  L 150.31 138.95
  L 150.17 139.06
  L 150.01 139.63
  L 150.36 140.11
  L 158.11 144.41
  L 165.53 149.10
  L 172.61 154.18
  L 179.36 159.64
  L 179.36 159.64
  L 179.36 159.64
  L 187.10 166.79
  L 191.64 171.60
  L 195.73 176.59
  L 199.33 181.70
  L 202.51 187.04
  L 204.97 191.95
  L 207.12 197.07
  L 208.96 202.41
  L 210.50 208.00
  L 212.28 216.15
  L 213.64 224.20
  L 214.55 232.15
  L 215.04 240.00
  Z"
/>
</svg>
